<svg xmlns="http://www.w3.org/2000/svg" xmlns:xlink="http://www.w3.org/1999/xlink" version="1.1" viewBox="0 0 60 60" fill="currentcolor">
  <path d="M54.7,13.7l3.5-3.5c2.3-2.3,2.3-6.1,0-8.4c-2.3-2.3-6.1-2.3-8.4,0l-3.5,3.5c-6.9-3.6-15.4-3-21.7,2.1L7.9,20.9  c-0.5,0.4-1.2,0.6-1.8,0.6c-1.3,0-2.5,0.5-3.5,1.4l-1.9,1.9c-1.8,1.8,0,6.3,1.8,9.8c2.4,4.6,6,9.4,9.7,13.1  C18.1,53.5,27.9,60,32.9,60c1,0,1.7-0.2,2.3-0.8l1.9-1.9c0.9-0.9,1.4-2.2,1.4-3.5c0-0.7,0.2-1.3,0.6-1.8l13.5-16.7  C57.7,29,58.3,20.5,54.7,13.7z M51.3,3.2c1.5-1.5,4.1-1.5,5.6,0C57.6,3.9,58,4.9,58,5.9s-0.4,2-1.2,2.8l-3.2,3.2  c-0.7-1.1-1.6-2.1-2.5-3.1c-1-1-2-1.8-3.1-2.5L51.3,3.2z M13.7,46.3c-3.5-3.5-7-8.3-9.3-12.6c-2.5-4.8-2.6-7.1-2.2-7.4l0,0l0,0  C2.4,26,3.1,26,4,26.2c0.1,5.2,3.7,10.9,12.3,19.5c0.2,0.2,0.5,0.3,0.7,0.3s0.5-0.1,0.7-0.3c0.4-0.4,0.4-1,0-1.4  C9.9,36.4,6.4,31.3,6,26.8c4,1.5,10.5,5.2,16.2,10.9c0.7,0.7,1.4,1.4,2.1,2.2c-0.1,0.1-0.1,0.2-0.1,0.3L23,47.8  c-0.3,1.7,0.8,3.3,2.5,3.7c0.3,0.1,0.5,0.1,0.8,0.1c0.6,0,1.2-0.2,1.7-0.5c0.8-0.5,1.3-1.2,1.5-2.1l0.4-1.7c0.6,1,1.2,2,1.7,3  c2.4,4.6,2.6,7,2.1,7.5l0,0c0,0,0,0,0,0C32.4,59.2,22,54.6,13.7,46.3z M26,41.8c0.8,1,1.6,2.1,2.4,3.1l-0.8,3.6  c-0.1,0.4-0.3,0.6-0.6,0.8c-0.3,0.2-0.7,0.2-1,0.2c-0.7-0.2-1.1-0.8-1-1.5L26,41.8z M37.6,50.8c-0.7,0.9-1.1,2-1.1,3.1  c0,0.7-0.2,1.3-0.6,1.8c-0.3-2-1.4-4.3-2.4-6.3c-2.4-4.5-5.9-9.3-9.7-13.1C16.9,29.5,8.8,25,4.1,24.3c0.5-0.5,1.2-0.7,1.9-0.7  c1.1,0,2.2-0.4,3.1-1.1L25.9,9c7.1-5.8,17.4-5.2,23.9,1.3c6.5,6.5,7,16.7,1.3,23.9L37.6,50.8z M36,7.8c0-0.6,0.4-1,1-1  c3.3-0.2,6.3,0.7,8.6,2.4c0.4,0.3,0.5,1,0.2,1.4C45.6,10.9,45.3,11,45,11c-0.2,0-0.4-0.1-0.6-0.2c-2-1.5-4.5-2.2-7.4-2  C36.5,8.8,36,8.4,36,7.8z M31.9,8.6c0.2,0.5,0,1.1-0.4,1.3c-3.9,1.9-7.8,5.9-10.7,8.8C20.5,18.9,20.3,19,20,19s-0.5-0.1-0.7-0.3  c-0.4-0.4-0.4-1,0-1.4c3-3,7.1-7.1,11.3-9.2C31,7.9,31.6,8.1,31.9,8.6z M27.7,33.3c0.4,0.4,0.4,1,0,1.4C27.5,34.9,27.3,35,27,35  s-0.5-0.1-0.7-0.3c-4.8-4.8-11.6-8.7-14.6-9.8c-0.5-0.2-0.8-0.7-0.6-1.3c0.2-0.5,0.7-0.8,1.3-0.6C15.6,24.1,22.7,28.3,27.7,33.3z   M50.6,30.2c0.4,0.4,0.5,1,0.1,1.4l-14,17C36.6,48.9,36.3,49,36,49c-0.2,0-0.4-0.1-0.6-0.2c-0.4-0.4-0.5-1-0.1-1.4l14-17  C49.6,29.9,50.2,29.9,50.6,30.2z M15.7,7.7c0.5-0.2,1.1,0.1,1.2,0.7c0.2,0.5-0.1,1.1-0.7,1.2c-3.2,1-5.7,3.5-6.7,6.7  c-0.1,0.4-0.5,0.7-1,0.7c-0.1,0-0.2,0-0.3,0c-0.5-0.2-0.8-0.7-0.7-1.2C8.9,11.9,11.9,8.9,15.7,7.7z M0,13.4C2,7,7,2,13.4,0  c0.5-0.2,1.1,0.1,1.2,0.7C14.9,1.2,14.6,1.8,14,2C8.2,3.7,3.7,8.2,2,14c-0.1,0.4-0.5,0.7-1,0.7c-0.1,0-0.2,0-0.3,0  C0.2,14.5-0.1,14,0,13.4z M14.6,3.9c0.5-0.2,1.1,0.1,1.2,0.7c0.2,0.5-0.1,1.1-0.7,1.2c-4.5,1.4-8,4.9-9.4,9.4  c-0.1,0.4-0.5,0.7-1,0.7c-0.1,0-0.2,0-0.3,0c-0.5-0.2-0.8-0.7-0.7-1.2C5.4,9.4,9.4,5.4,14.6,3.9z M60,46.6C58,53,53,58,46.6,60  c-0.1,0-0.2,0-0.3,0c-0.4,0-0.8-0.3-1-0.7c-0.2-0.5,0.1-1.1,0.7-1.2C51.8,56.3,56.3,51.8,58,46c0.2-0.5,0.7-0.8,1.2-0.7  C59.8,45.5,60.1,46,60,46.6z M45.4,56.1c-0.1,0-0.2,0-0.3,0c-0.4,0-0.8-0.3-1-0.7c-0.2-0.5,0.1-1.1,0.7-1.2c4.5-1.4,8-4.9,9.4-9.4  c0.2-0.5,0.7-0.8,1.2-0.7c0.5,0.2,0.8,0.7,0.7,1.2C54.6,50.6,50.6,54.6,45.4,56.1z M44.3,52.3c-0.1,0-0.2,0-0.3,0  c-0.4,0-0.8-0.3-1-0.7c-0.2-0.5,0.1-1.1,0.7-1.2c3.2-1,5.7-3.5,6.7-6.7c0.2-0.5,0.7-0.8,1.2-0.7c0.5,0.2,0.8,0.7,0.7,1.2  C51.1,48.1,48.1,51.1,44.3,52.3z"/>
  <text x="0" y="75" fill="#000000" font-size="5px" font-weight="bold" font-family="'Helvetica Neue', Helvetica, Arial-Unicode, Arial, Sans-serif">
    Created by Denis Shumaylov
  </text>
  <text x="0" y="80" fill="#000000" font-size="5px" font-weight="bold" font-family="'Helvetica Neue', Helvetica, Arial-Unicode, Arial, Sans-serif">
    from the Noun Project
  </text>
</svg>