<svg xmlns="http://www.w3.org/2000/svg" xmlns:xlink="http://www.w3.org/1999/xlink" version="1.1" viewBox="0 0 60 60" fill="currentcolor">
  <path d="M50,51.3C46.3,49,37.9,48,30,48s-16.3,1-20,3.3c0-1.6,0.6-3.5,1.8-4.7c1.4-1.4,2.2-3.3,2.4-5.3l1-16.3  c0.1-2,0.6-3.9,1.5-5.6c0.2-0.5,0-1.1-0.5-1.3c-0.5-0.2-1.1,0-1.3,0.5c-1,2-1.5,4.1-1.7,6.4l-1,16.3c-0.1,1.5-0.7,2.9-1.8,4  C8.8,46.7,8,48.8,8,50.9V54c0,4.1,11.4,6,22,6s22-1.9,22-6v-3.1c0-2.2-0.8-4.2-2.4-5.7c-1.1-1.1-1.7-2.5-1.8-4l-1-16.3  c-0.1-2.3-0.7-4.5-1.7-6.5c-0.2-0.5-0.8-0.7-1.3-0.5c-0.5,0.2-0.7,0.8-0.5,1.3c0.9,1.8,1.4,3.7,1.5,5.7l1,16.3c0.1,2,1,3.9,2.4,5.3  C49.4,47.8,50,49.7,50,51.3z M33,50.1c0,1.6-1.4,2.9-3,2.9s-3-1.3-3-2.9c1,0,2-0.1,3-0.1S32,50,33,50.1z M30,58c-12.9,0-20-2.6-20-4  c0-1.2,5.3-3.3,15-3.9c0.1,2.7,2.3,4.9,5,4.9s4.9-2.2,5-4.9c4.6,0.3,8.2,0.9,10.7,1.6C44.1,52.6,40.2,54,37,54c-0.6,0-1,0.4-1,1  s0.4,1,1,1c4.1,0,9.4-2,10.7-3.3c0.1-0.1,0.1-0.2,0.2-0.3C49.3,53,50,53.6,50,54C50,55.4,42.9,58,30,58z M11,9  c0,1.1-0.2,2.6-0.5,4.3c-0.2,0.9,0.1,1.9,0.7,2.6c0.6,0.7,1.5,1.1,2.5,1.1c0.3,0,0.6,0,0.9-0.1l5.6-1.7c-1.7,3.4-3.1,8.3-3.2,8.5  c-0.1,0.3,0,0.7,0.2,1c0.2,0.3,0.6,0.4,0.9,0.3l4.5-0.9l3.6,3.6c0.2,0.2,0.6,0.4,1,0.2c0.3-0.1,0.6-0.4,0.7-0.8c0.3-1.5,1-4.5,2-7.3  c1.3,3.5,2,7.3,2,7.3c0.1,0.4,0.3,0.6,0.7,0.8c0.3,0.1,0.8-0.1,1-0.2l3.6-3.6l4.5,0.9c0.3,0.1,0.7,0,0.9-0.3c0.2-0.3,0.3-0.6,0.2-1  c-0.1-0.2-1.5-5.1-3.2-8.5l5.6,1.7C45.7,17,46,17,46.3,17c0.9,0,1.8-0.4,2.4-1.1c0.6-0.7,0.9-1.7,0.7-2.6C49.2,11.6,49,10.1,49,9  c0-1.2,0.2-3.1,0.5-5.3c0.1-0.9-0.1-1.8-0.7-2.5c-0.9-1-2.3-1.4-3.6-0.9l-8.4,3.3c-0.1-0.2-0.3-0.4-0.6-0.5C36.2,3,33.1,2,30,2  S23.8,3,23.7,3c-0.3,0.1-0.5,0.3-0.6,0.5l-8.4-3.3c-1.2-0.5-2.7-0.1-3.6,0.9c-0.6,0.7-0.9,1.6-0.7,2.5C10.8,5.9,11,7.7,11,9z M30,15  c-0.3,0.5-0.6,1.2-0.9,1.8c-1.2,2.8-2.2,6.2-2.7,8.2l-2.7-2.7c-0.2-0.2-0.6-0.3-0.9-0.3l-3.4,0.7c0.7-2.2,2.1-6.3,3.5-8.3l1.6-0.5  C24.6,13.9,27.9,15,30,15z M37.1,14.4c1.3,2,2.8,6.1,3.5,8.3L37.2,22c-0.3-0.1-0.7,0-0.9,0.3L33.6,25c-0.5-1.9-1.3-5.1-2.5-7.8  c0.5-1.1,1.1-2,1.7-2.6c1.4-0.3,2.7-0.7,2.8-0.7L37.1,14.4z M36.1,12l0.3-3c1.3-0.1,5.4-0.4,8.1-2.2c0.5-0.3,0.6-0.9,0.3-1.4  c-0.3-0.5-0.9-0.6-1.4-0.3c-2.1,1.4-5.4,1.7-6.8,1.8l0.1-1.2L46,2.1c0.5-0.2,1-0.1,1.3,0.3c0.2,0.3,0.3,0.6,0.3,0.9  C47.2,5.7,47,7.6,47,9c0,1.3,0.2,2.8,0.5,4.6c0.1,0.3,0,0.7-0.3,0.9c-0.3,0.3-0.8,0.5-1.3,0.4L36.1,12z M30,4c1.9,0,3.9,0.4,4.9,0.7  l-0.8,7.5C33.1,12.5,31.3,13,30,13c-1.3,0-3.1-0.5-4.1-0.8l-0.8-7.5C26.1,4.4,28.1,4,30,4z M23.9,12L14,14.9c-0.4,0.1-0.9,0-1.3-0.4  c-0.2-0.3-0.3-0.6-0.3-0.9C12.8,11.8,13,10.3,13,9c0-1.4-0.2-3.3-0.6-5.7c-0.1-0.3,0-0.7,0.3-0.9C13,2,13.6,1.9,14,2.1l9.2,3.7  l0.1,1.1L19.2,6c-0.5-0.1-1.1,0.2-1.2,0.8s0.2,1.1,0.8,1.2l4.7,0.9L23.9,12z M45,11c0,0.6-0.4,1-1,1h-2c-0.6,0-1-0.4-1-1s0.4-1,1-1  h2C44.6,10,45,10.4,45,11z M14.2,12.6c-0.3-0.5-0.2-1.1,0.3-1.4C14.6,11.1,17.7,9,21,9c0.6,0,1,0.4,1,1s-0.4,1-1,1  c-2.7,0-5.4,1.8-5.4,1.8C14.9,13.2,14.4,12.8,14.2,12.6z M15.8,45c4.1-1,10.2-1,14.2-1c0.6,0,1,0.4,1,1s-0.4,1-1,1  c-3.9,0-9.9,0-13.8,1c-0.4,0.1-1-0.1-1.2-0.7C14.9,45.7,15.2,45.2,15.8,45z M18,41c-0.6,0-1-0.5-1-1c0-4,0.5-8.6,1-11.2  c0.1-0.5,0.6-0.9,1.2-0.8c0.5,0.1,0.9,0.6,0.8,1.2c-0.5,2.5-1,6.9-1,10.8C19,40.6,18.6,41,18,41C18,41,18,41,18,41z M22,41  c-0.6,0-1-0.5-1-1c0-0.1,0-3.6,0.5-6.2c0.1-0.5,0.6-0.9,1.2-0.8c0.5,0.1,0.9,0.6,0.8,1.2C23,36.6,23,40,23,40C23,40.6,22.5,41,22,41  C22,41,22,41,22,41z"/>
  <text x="0" y="75" fill="#000000" font-size="5px" font-weight="bold" font-family="'Helvetica Neue', Helvetica, Arial-Unicode, Arial, Sans-serif">
    Created by Denis Shumaylov
  </text>
  <text x="0" y="80" fill="#000000" font-size="5px" font-weight="bold" font-family="'Helvetica Neue', Helvetica, Arial-Unicode, Arial, Sans-serif">
    from the Noun Project
  </text>
</svg>