<svg xmlns="http://www.w3.org/2000/svg" viewBox="0 0 60 60" fill="currentcolor"><path d="M54.7 13.7l3.5-3.5c2.3-2.3 2.3-6.1 0-8.4-2.3-2.3-6.1-2.3-8.4 0l-3.5 3.5c-6.9-3.6-15.4-3-21.7 2.1L7.9 20.9c-.5.4-1.2.6-1.8.6-1.3 0-2.5.5-3.5 1.4L.7 24.8c-1.8 1.8 0 6.3 1.8 9.8 2.4 4.6 6 9.4 9.7 13.1C18.1 53.5 27.9 60 32.9 60c1 0 1.7-.2 2.3-.8l1.9-1.9c.9-.9 1.4-2.2 1.4-3.5 0-.7.2-1.3.6-1.8l13.5-16.7c5.1-6.3 5.7-14.8 2.1-21.6zM51.3 3.2c1.5-1.5 4.1-1.5 5.6 0 .7.7 1.1 1.7 1.1 2.7s-.4 2-1.2 2.8l-3.2 3.2c-.7-1.1-1.6-2.1-2.5-3.1-1-1-2-1.8-3.1-2.5l3.3-3.1zM13.7 46.3c-3.5-3.5-7-8.3-9.3-12.6-2.5-4.8-2.6-7.1-2.2-7.4.2-.3.9-.3 1.8-.1.1 5.2 3.7 10.9 12.3 19.5.2.2.5.3.7.3s.5-.1.7-.3c.4-.4.4-1 0-1.4C9.9 36.4 6.4 31.3 6 26.8c4 1.5 10.5 5.2 16.2 10.9.7.7 1.4 1.4 2.1 2.2-.1.1-.1.2-.1.3L23 47.8c-.3 1.7.8 3.3 2.5 3.7.3.1.5.1.8.1.6 0 1.2-.2 1.7-.5.8-.5 1.3-1.2 1.5-2.1l.4-1.7c.6 1 1.2 2 1.7 3 2.4 4.6 2.6 7 2.1 7.5-1.3 1.4-11.7-3.2-20-11.5zM26 41.8c.8 1 1.6 2.1 2.4 3.1l-.8 3.6c-.1.4-.3.6-.6.8-.3.2-.7.2-1 .2-.7-.2-1.1-.8-1-1.5l1-6.2zm11.6 9c-.7.9-1.1 2-1.1 3.1 0 .7-.2 1.3-.6 1.8-.3-2-1.4-4.3-2.4-6.3-2.4-4.5-5.9-9.3-9.7-13.1-6.9-6.8-15-11.3-19.7-12 .5-.5 1.2-.7 1.9-.7 1.1 0 2.2-.4 3.1-1.1L25.9 9c7.1-5.8 17.4-5.2 23.9 1.3s7 16.7 1.3 23.9L37.6 50.8zM36 7.8c0-.6.4-1 1-1 3.3-.2 6.3.7 8.6 2.4.4.3.5 1 .2 1.4-.2.3-.5.4-.8.4-.2 0-.4-.1-.6-.2-2-1.5-4.5-2.2-7.4-2-.5 0-1-.4-1-1zm-4.1.8c.2.5 0 1.1-.4 1.3-3.9 1.9-7.8 5.9-10.7 8.8-.3.2-.5.3-.8.3s-.5-.1-.7-.3c-.4-.4-.4-1 0-1.4 3-3 7.1-7.1 11.3-9.2.4-.2 1 0 1.3.5zm-4.2 24.7c.4.4.4 1 0 1.4-.2.2-.4.3-.7.3s-.5-.1-.7-.3c-4.8-4.8-11.6-8.7-14.6-9.8-.5-.2-.8-.7-.6-1.3.2-.5.7-.8 1.3-.6 3.2 1.1 10.3 5.3 15.3 10.3zm22.9-3.1c.4.4.5 1 .1 1.4l-14 17c-.1.3-.4.4-.7.4-.2 0-.4-.1-.6-.2-.4-.4-.5-1-.1-1.4l14-17c.3-.5.9-.5 1.3-.2zM15.7 7.7c.5-.2 1.1.1 1.2.7.2.5-.1 1.1-.7 1.2-3.2 1-5.7 3.5-6.7 6.7-.1.4-.5.7-1 .7h-.3c-.5-.2-.8-.7-.7-1.2 1.4-3.9 4.4-6.9 8.2-8.1zM0 13.4C2 7 7 2 13.4 0c.5-.2 1.1.1 1.2.7.3.5 0 1.1-.6 1.3C8.2 3.7 3.7 8.2 2 14c-.1.4-.5.7-1 .7H.7c-.5-.2-.8-.7-.7-1.3zm14.6-9.5c.5-.2 1.1.1 1.2.7.2.5-.1 1.1-.7 1.2-4.5 1.4-8 4.9-9.4 9.4-.1.4-.5.7-1 .7h-.3c-.5-.2-.8-.7-.7-1.2C5.4 9.4 9.4 5.4 14.6 3.9zM60 46.6C58 53 53 58 46.6 60h-.3c-.4 0-.8-.3-1-.7-.2-.5.1-1.1.7-1.2 5.8-1.8 10.3-6.3 12-12.1.2-.5.7-.8 1.2-.7.6.2.9.7.8 1.3zm-14.6 9.5h-.3c-.4 0-.8-.3-1-.7-.2-.5.1-1.1.7-1.2 4.5-1.4 8-4.9 9.4-9.4.2-.5.7-.8 1.2-.7.5.2.8.7.7 1.2-1.5 5.3-5.5 9.3-10.7 10.8zm-1.1-3.8H44c-.4 0-.8-.3-1-.7-.2-.5.1-1.1.7-1.2 3.2-1 5.7-3.5 6.7-6.7.2-.5.7-.8 1.2-.7.5.2.8.7.7 1.2-1.2 3.9-4.2 6.9-8 8.1z"/><text y="75" fill="#000" font-size="5" font-weight="bold" font-family="'Helvetica Neue', Helvetica, Arial-Unicode, Arial, Sans-serif">Created by Denis Shumaylov</text><text y="80" fill="#000" font-size="5" font-weight="bold" font-family="'Helvetica Neue', Helvetica, Arial-Unicode, Arial, Sans-serif">from the Noun Project</text></svg>