<svg xmlns="http://www.w3.org/2000/svg" xmlns:xlink="http://www.w3.org/1999/xlink" version="1.1" viewBox="0 0 60 60" fill="currentcolor">
  <path d="M30.5,48.1l-2.8,8.4c-0.7,2-2.6,3.4-4.7,3.4c-0.5,0-1.1-0.1-1.6-0.3c-2.6-0.9-4-3.7-3.2-6.3l2.7-8.2  c0.2-0.5,0.7-0.8,1.3-0.6c0.5,0.2,0.8,0.7,0.6,1.3L20.2,54c-0.5,1.6,0.3,3.3,1.9,3.8c0.3,0.1,0.6,0.2,0.9,0.2c1.3,0,2.4-0.8,2.8-2.1  l2.8-8.4c0.2-0.5,0.7-0.8,1.3-0.6C30.4,47,30.7,47.6,30.5,48.1z M57.6,17l-1.5,4.5c-0.4,1.3-1.3,2.3-2.5,2.9  c-0.7,0.4-1.5,0.5-2.2,0.5c-0.5,0-1.1-0.1-1.6-0.3c-2.6-0.9-4-3.7-3.2-6.3l1.5-4.5c0.2-0.7,0.2-1.5-0.2-2.2  c-0.3-0.7-0.9-1.2-1.7-1.5C45.5,10,44.7,10,44,10.4c-0.7,0.3-1.2,0.9-1.5,1.7l-3.5,10.5c-0.2,0.5-0.7,0.8-1.3,0.6  c-0.5-0.2-0.8-0.7-0.6-1.3l0.9-2.6c0,0,0,0,0,0L35,9.5l-2,6.1c0,0,0,0,0,0l1.7,5c0.2,0.5-0.1,1.1-0.6,1.3c-0.6,0.2-1.1-0.2-1.3-0.6  l-0.8-2.5l-0.8,2.5c-0.2,0.5-0.7,0.8-1.3,0.6c-0.5-0.2-0.8-0.7-0.6-1.3l3.9-11.8c1.1-3.3,3.4-5.9,6.5-7.5c3.1-1.5,6.6-1.8,9.9-0.7  c3.3,1.1,5.9,3.4,7.5,6.5C58.4,10.3,58.7,13.8,57.6,17z M41,10.4l-0.9-7.1c-1.6,0.9-2.9,2.1-3.9,3.6l2.9,9.1L41,10.4z M43.1,8.6  c0.4-0.2,0.8-0.3,1.2-0.4l4.1-5.6c-2.1-0.6-4.3-0.6-6.4,0l0.8,6.2C43,8.7,43,8.6,43.1,8.6z M46.7,8.3c0.4,0.1,1,0.4,1.4,0.7l7-0.9  c-1-2.1-2.7-3.7-4.7-4.8L46.7,8.3z M54,21.3l-4.5-5.4l-1,3.1c-0.5,1.6,0.3,3.3,1.9,3.8c0.8,0.3,1.6,0.2,2.3-0.2  C53.3,22.3,53.7,21.9,54,21.3z M55.8,10l-6.1,0.8c0,0,0,0,0,0c0.4,0.9,0.6,1.9,0.5,2.8l4.6,5.5l0.9-2.7C56.4,14.3,56.4,12.1,55.8,10  z M39.1,45.6c-0.2-0.5-0.7-0.8-1.3-0.6c-0.5,0.2-0.8,0.7-0.6,1.3l2.6,7.9c0.2,0.7,0.2,1.5-0.2,2.2c-0.4,0.7-1,1.2-1.7,1.5  c-1.6,0.5-3.3-0.4-3.8-1.9l-1.4-4.3c-0.2-0.5-0.7-0.8-1.3-0.6c-0.5,0.2-0.8,0.7-0.6,1.3l1.4,4.3c0.7,2,2.6,3.4,4.7,3.4  c0.5,0,1.1-0.1,1.6-0.3c1.3-0.4,2.3-1.3,2.9-2.5c0.6-1.2,0.7-2.5,0.3-3.7L39.1,45.6z M23.5,24.1c0.1,0,3.3-1.1,6.5-1.1  s6.2,1,6.3,1.1c0.4,0.1,0.6,0.5,0.7,0.8l8.9-0.9c0.4,0,0.8,0.2,1,0.5c1.2,2.3,0.6,4.6,0.1,6.7c-0.5,1.9-0.9,3.6-0.1,5.3  c0.2,0.4,0.1,0.8-0.1,1.1c-0.2,0.2-0.7,0.4-1.1,0.3L41,36.5l2.8,4.9c0.2,0.3,0.2,0.7,0,1C43.7,42.8,43.4,43,43,43h-5.5l-3.7,4.6  C33.6,47.8,33.3,48,33,48c-0.4,0-0.8-0.3-0.9-0.6L30,42.8l-2.1,4.6C27.8,47.7,27.4,48,27,48c-0.3,0-0.6-0.1-0.8-0.4L22.5,43H17  c-0.4,0-0.7-0.2-0.9-0.5c-0.2-0.3-0.2-0.7,0-1l2.8-4.9l-4.7,1.4C14,38,13.6,38,13.2,37.6c-0.3-0.3-0.3-0.7-0.1-1.1  c0.8-1.7,0.4-3.4-0.1-5.3c-0.5-2-1.1-4.4,0.1-6.7c0.2-0.4,0.6-0.6,1-0.5l7.5,0.8L17.4,12c-0.2-0.7-0.8-1.3-1.5-1.7  c-0.7-0.3-1.5-0.4-2.2-0.2c-0.7,0.2-1.3,0.8-1.7,1.5c-0.3,0.7-0.4,1.5-0.2,2.2l1.5,4.5c0.9,2.6-0.5,5.5-3.2,6.3  C9,25.1,7.6,25,6.4,24.4c-1.2-0.6-2.1-1.6-2.5-2.9L2.4,17c-1.1-3.3-0.8-6.8,0.7-9.9c1.5-3.1,4.2-5.4,7.5-6.5  c3.3-1.1,6.8-0.8,9.9,0.7c3.1,1.5,5.4,4.2,6.5,7.5l2.6,7.8c0.2,0.5-0.1,1.1-0.6,1.3c-0.5,0.2-1.1-0.1-1.3-0.6L25,9.5  c-0.9-2.8-2.9-5-5.5-6.3c-2.6-1.3-5.6-1.5-8.3-0.6c-2.8,0.9-5,2.9-6.3,5.5c-1.3,2.6-1.5,5.6-0.6,8.3l1.5,4.5  c0.3,0.8,0.8,1.4,1.5,1.7C8,23,8.9,23.1,9.6,22.8c1.6-0.5,2.4-2.2,1.9-3.8L10,14.5c-0.4-1.2-0.3-2.6,0.3-3.7c0.6-1.2,1.6-2,2.8-2.5  c1.2-0.4,2.6-0.3,3.7,0.3c1.2,0.6,2,1.6,2.5,2.8L23.5,24.1z M25.1,25.7l0.9,8.5c0.9,0.3,2.8,0.8,4.1,0.8c1.3,0,3.1-0.5,4.1-0.8  l0.9-8.5c-1-0.3-3-0.7-4.9-0.7S26.1,25.4,25.1,25.7z M23.2,26.9L14.6,26c-0.4,1.5,0,3.1,0.4,4.7c0.4,1.5,0.8,3.1,0.5,4.7l8.2-2.5  c0,0,0.1,0,0.1,0L23.2,26.9z M30.5,36.9c-0.2,0-0.3,0-0.5,0c-2.1,0-5.2-1-5.3-1.1c-0.4-0.1-0.6-0.5-0.7-0.8l0-0.1l-2.3,0.7l-3,5.3  H23c0.3,0,0.6,0.1,0.8,0.4l3,3.7L30.5,36.9z M38.3,35.7L36,35l0,0.1c0,0.4-0.3,0.7-0.7,0.8c-0.1,0-1.2,0.4-2.5,0.7l-1.7,3.8l2.1,4.7  l3-3.7c0.2-0.2,0.5-0.4,0.8-0.4h4.3L38.3,35.7z M45.4,26l-8.5,0.9L36.2,33c0,0,0.1,0,0.1,0l8.2,2.5c-0.2-1.7,0.2-3.3,0.5-4.7  C45.4,29.1,45.8,27.5,45.4,26z M11.6,6.1c0.5-0.2,0.8-0.8,0.5-1.3c-0.2-0.5-0.8-0.8-1.3-0.5C6.5,6,4.2,10.9,5.7,15.3l1.3,4  C7.2,19.7,7.6,20,8,20c0.9,0,1.1-0.8,0.9-1.3l-1.3-4C6.5,11.2,8.2,7.5,11.6,6.1z M21.7,11c-0.5,0.2-0.8,0.7-0.6,1.3l3,9  c0.1,0.4,0.5,0.7,0.9,0.7c0.8,0,1.1-0.8,0.9-1.3l-3-9C22.8,11.1,22.2,10.8,21.7,11z M22.7,49.8l-1.6,4.8C20.9,55.2,21.2,56,22,56  c0.4,0,0.8-0.3,0.9-0.7l1.6-4.8c0.2-0.5-0.1-1.1-0.6-1.3C23.4,49,22.8,49.3,22.7,49.8z"/>
  <text x="0" y="75" fill="#000000" font-size="5px" font-weight="bold" font-family="'Helvetica Neue', Helvetica, Arial-Unicode, Arial, Sans-serif">
    Created by Denis Shumaylov
  </text>
  <text x="0" y="80" fill="#000000" font-size="5px" font-weight="bold" font-family="'Helvetica Neue', Helvetica, Arial-Unicode, Arial, Sans-serif">
    from the Noun Project
  </text>
</svg>