<svg xmlns="http://www.w3.org/2000/svg" viewBox="0 0 60 60" fill="currentcolor"><path d="M30.5 48.1l-2.8 8.4c-.7 2-2.6 3.4-4.7 3.4-.5 0-1.1-.1-1.6-.3-2.6-.9-4-3.7-3.2-6.3l2.7-8.2c.2-.5.7-.8 1.3-.6.5.2.8.7.6 1.3L20.2 54c-.5 1.6.3 3.3 1.9 3.8.3.1.6.2.9.2 1.3 0 2.4-.8 2.8-2.1l2.8-8.4c.2-.5.7-.8 1.3-.6.5.1.8.7.6 1.2zM57.6 17l-1.5 4.5c-.4 1.3-1.3 2.3-2.5 2.9-.7.4-1.5.5-2.2.5-.5 0-1.1-.1-1.6-.3-2.6-.9-4-3.7-3.2-6.3l1.5-4.5c.2-.7.2-1.5-.2-2.2-.3-.7-.9-1.2-1.7-1.5-.7-.1-1.5-.1-2.2.3-.7.3-1.2.9-1.5 1.7L39 22.6c-.2.5-.7.8-1.3.6-.5-.2-.8-.7-.6-1.3l.9-2.6-3-9.8-2 6.1 1.7 5c.2.5-.1 1.1-.6 1.3-.6.2-1.1-.2-1.3-.6l-.8-2.5-.8 2.5c-.2.5-.7.8-1.3.6-.5-.2-.8-.7-.6-1.3l3.9-11.8c1.1-3.3 3.4-5.9 6.5-7.5 3.1-1.5 6.6-1.8 9.9-.7 3.3 1.1 5.9 3.4 7.5 6.5 1.3 3.2 1.6 6.7.5 9.9zM41 10.4l-.9-7.1c-1.6.9-2.9 2.1-3.9 3.6l2.9 9.1 1.9-5.6zm2.1-1.8c.4-.2.8-.3 1.2-.4l4.1-5.6c-2.1-.6-4.3-.6-6.4 0l.8 6.2c.2-.1.2-.2.3-.2zm3.6-.3c.4.1 1 .4 1.4.7l7-.9c-1-2.1-2.7-3.7-4.7-4.8l-3.7 5zm7.3 13l-4.5-5.4-1 3.1c-.5 1.6.3 3.3 1.9 3.8.8.3 1.6.2 2.3-.2.6-.3 1-.7 1.3-1.3zM55.8 10l-6.1.8c.4.9.6 1.9.5 2.8l4.6 5.5.9-2.7c.7-2.1.7-4.3.1-6.4zM39.1 45.6c-.2-.5-.7-.8-1.3-.6-.5.2-.8.7-.6 1.3l2.6 7.9c.2.7.2 1.5-.2 2.2-.4.7-1 1.2-1.7 1.5-1.6.5-3.3-.4-3.8-1.9l-1.4-4.3c-.2-.5-.7-.8-1.3-.6-.5.2-.8.7-.6 1.3l1.4 4.3c.7 2 2.6 3.4 4.7 3.4.5 0 1.1-.1 1.6-.3 1.3-.4 2.3-1.3 2.9-2.5.6-1.2.7-2.5.3-3.7l-2.6-8zM23.5 24.1c.1 0 3.3-1.1 6.5-1.1s6.2 1 6.3 1.1c.4.1.6.5.7.8l8.9-.9c.4 0 .8.2 1 .5 1.2 2.3.6 4.6.1 6.7-.5 1.9-.9 3.6-.1 5.3.2.4.1.8-.1 1.1-.2.2-.7.4-1.1.3L41 36.5l2.8 4.9c.2.3.2.7 0 1-.1.4-.4.6-.8.6h-5.5l-3.7 4.6c-.2.2-.5.4-.8.4-.4 0-.8-.3-.9-.6L30 42.8l-2.1 4.6c-.1.3-.5.6-.9.6-.3 0-.6-.1-.8-.4L22.5 43H17c-.4 0-.7-.2-.9-.5-.2-.3-.2-.7 0-1l2.8-4.9-4.7 1.4c-.2 0-.6 0-1-.4-.3-.3-.3-.7-.1-1.1.8-1.7.4-3.4-.1-5.3-.5-2-1.1-4.4.1-6.7.2-.4.6-.6 1-.5l7.5.8L17.4 12c-.2-.7-.8-1.3-1.5-1.7-.7-.3-1.5-.4-2.2-.2-.7.2-1.3.8-1.7 1.5-.3.7-.4 1.5-.2 2.2l1.5 4.5c.9 2.6-.5 5.5-3.2 6.3-1.1.5-2.5.4-3.7-.2-1.2-.6-2.1-1.6-2.5-2.9L2.4 17c-1.1-3.3-.8-6.8.7-9.9C4.6 4 7.3 1.7 10.6.6c3.3-1.1 6.8-.8 9.9.7 3.1 1.5 5.4 4.2 6.5 7.5l2.6 7.8c.2.5-.1 1.1-.6 1.3-.5.2-1.1-.1-1.3-.6L25 9.5c-.9-2.8-2.9-5-5.5-6.3-2.6-1.3-5.6-1.5-8.3-.6-2.8.9-5 2.9-6.3 5.5-1.3 2.6-1.5 5.6-.6 8.3l1.5 4.5c.3.8.8 1.4 1.5 1.7.7.4 1.6.5 2.3.2 1.6-.5 2.4-2.2 1.9-3.8L10 14.5c-.4-1.2-.3-2.6.3-3.7.6-1.2 1.6-2 2.8-2.5 1.2-.4 2.6-.3 3.7.3 1.2.6 2 1.6 2.5 2.8l4.2 12.7zm1.6 1.6l.9 8.5c.9.3 2.8.8 4.1.8 1.3 0 3.1-.5 4.1-.8l.9-8.5c-1-.3-3-.7-4.9-.7s-4.1.4-5.1.7zm-1.9 1.2l-8.6-.9c-.4 1.5 0 3.1.4 4.7.4 1.5.8 3.1.5 4.7l8.2-2.5h.1l-.6-6zm7.3 10H30c-2.1 0-5.2-1-5.3-1.1-.4-.1-.6-.5-.7-.8v-.1l-2.3.7-3 5.3H23c.3 0 .6.1.8.4l3 3.7 3.7-8.1zm7.8-1.2L36 35v.1c0 .4-.3.7-.7.8-.1 0-1.2.4-2.5.7l-1.7 3.8 2.1 4.7 3-3.7c.2-.2.5-.4.8-.4h4.3l-3-5.3zm7.1-9.7l-8.5.9-.7 6.1h.1l8.2 2.5c-.2-1.7.2-3.3.5-4.7.4-1.7.8-3.3.4-4.8zM11.6 6.1c.5-.2.8-.8.5-1.3-.2-.5-.8-.8-1.3-.5-4.3 1.7-6.6 6.6-5.1 11l1.3 4c.2.4.6.7 1 .7.9 0 1.1-.8.9-1.3l-1.3-4c-1.1-3.5.6-7.2 4-8.6zM21.7 11c-.5.2-.8.7-.6 1.3l3 9c.1.4.5.7.9.7.8 0 1.1-.8.9-1.3l-3-9c-.1-.6-.7-.9-1.2-.7zm1 38.8l-1.6 4.8c-.2.6.1 1.4.9 1.4.4 0 .8-.3.9-.7l1.6-4.8c.2-.5-.1-1.1-.6-1.3-.5-.2-1.1.1-1.2.6z"/><text y="75" fill="#000" font-size="5" font-weight="bold" font-family="'Helvetica Neue', Helvetica, Arial-Unicode, Arial, Sans-serif">Created by Denis Shumaylov</text><text y="80" fill="#000" font-size="5" font-weight="bold" font-family="'Helvetica Neue', Helvetica, Arial-Unicode, Arial, Sans-serif">from the Noun Project</text></svg>