<svg xmlns="http://www.w3.org/2000/svg" xmlns:xlink="http://www.w3.org/1999/xlink" version="1.1" viewBox="0 0 60 60" fill="currentcolor">
  <path d="M8.1,20.3c-1.9,1.4-2.8,3.8-2.2,6.1l1,3.8C5.7,30.1,4.6,30,3.5,30H2c-0.3,0-0.6,0.2-0.8,0.4  c-0.2,0.3-0.2,0.6-0.1,0.9l2,5c1.4,3.4,4.7,5.7,8.4,5.7h1.4l0.3,2.1c0.6,3.5,2.4,6.8,5,9.2l4.9,4.5c1.6,1.5,3.7,2.3,5.9,2.3  s4.3-0.8,5.9-2.3l4.9-4.5c2.6-2.4,4.4-5.7,5-9.2l0.3-2.1h1.4c3.7,0,7-2.2,8.4-5.7l2-5c0.1-0.3,0.1-0.7-0.1-0.9  C56.6,30.2,56.3,30,56,30h-1.5c-2.6,0-5.1,0.5-7.5,1.5V29c0-0.6-0.4-1-1-1s-1,0.4-1,1v4c0,0.3,0.2,0.7,0.5,0.9c0.3,0.2,0.7,0.2,1,0  c2.5-1.2,5.3-1.9,8-1.9h0.1l-1.4,3.6C52,38.3,49.5,40,46.6,40h-1.1l0.5-2.8c0.1-0.5-0.3-1.1-0.8-1.2c-0.5-0.1-1.1,0.3-1.2,0.8  l-1.1,6.9c-0.5,3.1-2.1,5.9-4.4,8l-4.9,4.5C32.3,57.4,30.7,58,29,58s-3.3-0.6-4.5-1.8l-4.9-4.5c-2.3-2.1-3.9-4.9-4.4-8L14,36.8  c-0.1-0.5-0.6-0.9-1.2-0.8c-0.5,0.1-0.9,0.6-0.8,1.2l0.5,2.8h-1.1c-2.9,0-5.4-1.7-6.5-4.4L3.5,32h0.1c2.8,0,5.5,0.7,8,1.9  c0.5,0.2,1.1,0,1.3-0.4c0.2-0.5,0-1.1-0.4-1.3c-1.1-0.6-2.3-1-3.5-1.3c0,0,0,0,0,0L7.8,26c-0.4-1.6,0.2-3.2,1.6-4.1  C15.5,17.6,21,15,29,15c5.7,0,9.7,1,12.1,1.8c1.3,0.4,2.2,1.5,2.5,2.8l0.7,3.3c0.1,0.4-0.1,0.7-0.3,0.8s-0.4,0.3-0.8,0.2  c-2.9-0.9-5.9-1.5-9.2-1.7V21c0-0.6-0.4-1-1-1s-1,0.4-1,1v1.1c-0.7,0-1.3,0-2-0.1v-3c0-0.6-0.4-1-1-1s-1,0.4-1,1v3  c-0.7,0-1.4,0-2,0.1V19c0-0.6-0.4-1-1-1s-1,0.4-1,1v3.4c-4.7,0.8-8.5,2.7-11.7,5.9c-0.4,0.4-0.4,1,0,1.4s1,0.4,1.4,0  C17.6,25.8,22.5,24,29,24c5.3,0,9.5,0.6,13.6,1.8c1,0.3,2,0.1,2.8-0.6c0.8-0.7,1.1-1.7,0.9-2.7l-0.7-3.3c-0.3-1.5-1.2-2.8-2.5-3.6  c0.1-0.6,0.3-1.4,1-1.6c0.8-0.3,2.2,0.2,3.1,1.6c0,0,0,0,0,0C47.1,16,47,16.5,47,17c0,3.3,2.7,6,6,6s6-2.7,6-6s-2.7-6-6-6  c-0.1,0-0.3,0-0.4,0C48.7,3.7,41.4,0,31,0C17.5,0,7.9,8.6,8.1,20.3z M57,17c0,2.2-1.8,4-4,4s-4-1.8-4-4s1.8-4,4-4S57,14.8,57,17z   M43.5,12c-1.2,0.4-2,1.4-2.3,2.7C38.6,13.9,34.5,13,29,13c-7.7,0-13.2,2.3-18.9,6C10.6,8.9,19,2,31,2c9.4,0,16,3.2,19.6,9.5  c-1,0.4-1.9,1.2-2.5,2C46.8,12.2,45,11.6,43.5,12z M26.7,33.3c0.4,0.4,0.4,1,0.1,1.4c-0.4,0.5-1.1,0.3-1.4,0.1  c-0.1,0-0.9-0.7-2.3-0.7c-1.5,0-2.3,0.7-2.3,0.7c-0.4,0.4-1,0.3-1.4-0.1c-0.4-0.4-0.3-1,0.1-1.4c0.1-0.1,1.5-1.3,3.7-1.3  S26.5,33.1,26.7,33.3z M37.3,34.7c0,0-0.9-0.7-2.3-0.7c-1.5,0-2.3,0.7-2.3,0.7c-0.4,0.4-1,0.3-1.4-0.1s-0.3-1,0.1-1.4  c0.1-0.1,1.5-1.3,3.7-1.3s3.5,1.1,3.7,1.3c0.4,0.4,0.4,1,0.1,1.4C38.3,35.2,37.6,35,37.3,34.7z M31,5c0,0.6-0.4,1-1,1  c-6.8,0-12.3,2.9-14.1,7.4c-0.2,0.5-0.8,0.8-1.3,0.6c-0.5-0.2-0.8-0.8-0.6-1.3C16.2,7.4,22.4,4,30,4C30.6,4,31,4.4,31,5z M22.2,47.6  c-0.3-0.4-0.2-1.1,0.2-1.4c0.4-0.3,1.1-0.2,1.4,0.2c0.5,0.7,2.5,2.6,5.2,2.6s4.7-1.9,5.2-2.6c0.3-0.4,1-0.5,1.4-0.2  c0.4,0.3,0.5,1,0.2,1.4C34.9,48.9,32.4,51,29,51S23.1,48.9,22.2,47.6z M26.3,41.3c0.4-0.4,1-0.4,1.4,0C28,41.6,28.6,42,29,42  s1-0.4,1.3-0.7c0.4-0.4,1-0.4,1.4,0c0.4,0.4,0.4,1,0,1.4C31.6,42.8,30.4,44,29,44s-2.6-1.2-2.7-1.3C25.9,42.3,25.9,41.7,26.3,41.3z"/>
  <text x="0" y="75" fill="#000000" font-size="5px" font-weight="bold" font-family="'Helvetica Neue', Helvetica, Arial-Unicode, Arial, Sans-serif">
    Created by Denis Shumaylov
  </text>
  <text x="0" y="80" fill="#000000" font-size="5px" font-weight="bold" font-family="'Helvetica Neue', Helvetica, Arial-Unicode, Arial, Sans-serif">
    from the Noun Project
  </text>
</svg>