<svg xmlns="http://www.w3.org/2000/svg" viewBox="0 -9 60 41" fill="currentcolor"><path d="M55.3 13.7A4.8 4.8 0 0057 10a5 5 0 00-5-5 96 96 0 01-21.8-2.5A98.55 98.55 0 008 0a5 5 0 00-5 5 5.13 5.13 0 001.3 3.4A8.31 8.31 0 002 14a7.88 7.88 0 001.7 4.9A13 13 0 0013 41h31a16 16 0 0011.3-27.3zM44 39H13a11 11 0 01-7.2-19.3A11.07 11.07 0 0113 17a1 1 0 000-2 13.06 13.06 0 00-7.8 2.6A5.78 5.78 0 014 14a6 6 0 012.4-4.8 6.06 6.06 0 013.5-1.1 15.73 15.73 0 016.7 1.6A16.44 16.44 0 0022 11a.94.94 0 001-1 .94.94 0 00-1-1 12.05 12.05 0 01-4.5-1.2A18.35 18.35 0 0010 6a8.39 8.39 0 00-4.1 1.1A2.72 2.72 0 015 5a3 3 0 013-3 96 96 0 0121.8 2.5A98.55 98.55 0 0052 7a3 3 0 013 3 2.85 2.85 0 01-1.2 2.4A15.76 15.76 0 0044 9a.94.94 0 00-1 1 .94.94 0 001 1 14.05 14.05 0 019 3.3A14 14 0 0144 39zM34 17.9L32 19l2 1.1a1.11 1.11 0 01.4 1.4 1.05 1.05 0 01-.9.5.9.9 0 01-.5-.1l-2-1.1V23a1 1 0 01-2 0v-2.3l-2 1.1c-.1.2-.3.2-.5.2a1.19 1.19 0 01-.9-.5 1 1 0 01.4-1.4l2-1.1-2-1.1a1 1 0 011-1.8l2 1.1V15a1 1 0 012 0v2.3l2-1.1a1 1 0 011.4.4 1.13 1.13 0 01-.4 1.3zm13 10L45 29l2 1.1a1.11 1.11 0 01.4 1.4 1.05 1.05 0 01-.9.5.9.9 0 01-.5-.1l-2-1.1V33a1 1 0 01-2 0v-2.3l-2 1.1c-.1.2-.3.2-.5.2a1.19 1.19 0 01-.9-.5 1 1 0 01.4-1.4l2-1.1-2-1.1a1 1 0 111-1.8l2 1.1V25a1 1 0 012 0v2.3l2-1.1a1 1 0 011.4.4 1.13 1.13 0 01-.4 1.3zm-26 0L19 29l2 1.1a1.11 1.11 0 01.4 1.4 1.05 1.05 0 01-.9.5.9.9 0 01-.5-.1l-2-1.1V33a1 1 0 01-2 0v-2.3l-2 1.1c-.1.2-.3.2-.5.2a1.19 1.19 0 01-.9-.5 1 1 0 01.4-1.4l2-1.1-2-1.1a1 1 0 011-1.8l2 1.1V25a1 1 0 012 0v2.3l2-1.1a1 1 0 011.4.4 1.13 1.13 0 01-.4 1.3z"/><text y="75" fill="#000" font-size="5" font-weight="bold" font-family="'Helvetica Neue', Helvetica, Arial-Unicode, Arial, Sans-serif">Created by Denis Shumaylov</text><text y="80" fill="#000" font-size="5" font-weight="bold" font-family="'Helvetica Neue', Helvetica, Arial-Unicode, Arial, Sans-serif">from the Noun Project</text></svg>