<svg xmlns="http://www.w3.org/2000/svg" xmlns:xlink="http://www.w3.org/1999/xlink" version="1.1" viewBox="0 0 60 60" fill="currentcolor">
  <path d="M55.3,32.7A4.8,4.8,0,0,0,57,29a5,5,0,0,0-5-5,96,96,0,0,1-21.8-2.5A98.55,98.55,0,0,0,8,19a5,5,0,0,0-5,5,5.13,5.13,0,0,0,1.3,3.4A8.31,8.31,0,0,0,2,33a7.88,7.88,0,0,0,1.7,4.9A13,13,0,0,0,13,60H44A16,16,0,0,0,55.3,32.7ZM44,58H13A11,11,0,0,1,5.8,38.7h0A11.07,11.07,0,0,1,13,36a1,1,0,0,0,0-2,13.06,13.06,0,0,0-7.8,2.6A5.78,5.78,0,0,1,4,33a6,6,0,0,1,2.4-4.8h0a6.06,6.06,0,0,1,3.5-1.1,15.73,15.73,0,0,1,6.7,1.6A16.44,16.44,0,0,0,22,30a1,1,0,0,0,0-2,12.05,12.05,0,0,1-4.5-1.2A18.35,18.35,0,0,0,10,25a8.39,8.39,0,0,0-4.1,1.1A2.72,2.72,0,0,1,5,24a3,3,0,0,1,3-3,96,96,0,0,1,21.8,2.5A98.55,98.55,0,0,0,52,26a3,3,0,0,1,3,3,2.85,2.85,0,0,1-1.2,2.4A15.76,15.76,0,0,0,44,28a1,1,0,0,0,0,2,14.05,14.05,0,0,1,9,3.3h0A14,14,0,0,1,44,58ZM34,36.9,32,38l2,1.1a1.11,1.11,0,0,1,.4,1.4,1.05,1.05,0,0,1-.9.5.9.9,0,0,1-.5-.1l-2-1.1V42a1,1,0,0,1-2,0V39.7l-2,1.1c-.1.2-.3.2-.5.2a1.19,1.19,0,0,1-.9-.5,1,1,0,0,1,.4-1.4L28,38l-2-1.1a1,1,0,0,1,1-1.8l2,1.1V34a1,1,0,0,1,2,0v2.3l2-1.1a1,1,0,0,1,1.4.4A1.13,1.13,0,0,1,34,36.9Zm13,10L45,48l2,1.1a1.11,1.11,0,0,1,.4,1.4,1.05,1.05,0,0,1-.9.5.9.9,0,0,1-.5-.1l-2-1.1V52a1,1,0,0,1-2,0V49.7l-2,1.1c-.1.2-.3.2-.5.2a1.19,1.19,0,0,1-.9-.5,1,1,0,0,1,.4-1.4L41,48l-2-1.1a1,1,0,1,1,1-1.8l2,1.1V44a1,1,0,0,1,2,0v2.3l2-1.1a1,1,0,0,1,1.4.4A1.13,1.13,0,0,1,47,46.9Zm-26,0L19,48l2,1.1a1.11,1.11,0,0,1,.4,1.4,1.05,1.05,0,0,1-.9.5.9.9,0,0,1-.5-.1l-2-1.1V52a1,1,0,0,1-2,0V49.7l-2,1.1c-.1.2-.3.2-.5.2a1.19,1.19,0,0,1-.9-.5,1,1,0,0,1,.4-1.4L15,48l-2-1.1a1,1,0,0,1,1-1.8l2,1.1V44a1,1,0,0,1,2,0v2.3l2-1.1a1,1,0,0,1,1.4.4A1.13,1.13,0,0,1,21,46.9ZM10,18a.94.94,0,0,0,1-1V11h6v6a1,1,0,0,0,2,0V11h5v7a1,1,0,0,0,2,0V11h6v9a1,1,0,0,0,2,0V10a.94.94,0,0,0-1-1H25.9a4.16,4.16,0,0,0-4.4-4,4.69,4.69,0,0,0-4.4,4H10a.94.94,0,0,0-1,1v7A.94.94,0,0,0,10,18ZM21.5,7a2.17,2.17,0,0,1,2.4,2H19.2A2.54,2.54,0,0,1,21.5,7ZM26,5h6V7a1,1,0,0,0,2,0V5h4v8a1,1,0,0,0,2,0V5h6V15H36a1,1,0,0,0,0,2h1v4a1,1,0,0,0,2,0V17h3v5a1,1,0,0,0,2,0V17h5v5a1,1,0,0,0,2,0V16a.94.94,0,0,0-1-1H48V4a.94.94,0,0,0-1-1H39.9a4,4,0,0,0-7.8,0H26a.94.94,0,0,0-1,1A.94.94,0,0,0,26,5ZM36,2a1.94,1.94,0,0,1,1.8,1H34.3A1.67,1.67,0,0,1,36,2Z"/>
  <text x="0" y="75" fill="#000000" font-size="5px" font-weight="bold" font-family="'Helvetica Neue', Helvetica, Arial-Unicode, Arial, Sans-serif">
    Created by Denis Shumaylov
  </text>
  <text x="0" y="80" fill="#000000" font-size="5px" font-weight="bold" font-family="'Helvetica Neue', Helvetica, Arial-Unicode, Arial, Sans-serif">
    from the Noun Project
  </text>
</svg>