<svg xmlns="http://www.w3.org/2000/svg" xmlns:xlink="http://www.w3.org/1999/xlink" version="1.1" viewBox="0 0 60 60" fill="currentcolor">
  <path d="M37,38h-9.7c0.3-0.9,0.7-2.2,0.7-3c0-2.3-1.9-3.6-4-3.9c0-0.3-0.1-0.5-0.2-0.7C23.6,30.1,23.3,30,23,30h-6  c-0.3,0-0.6,0.1-0.8,0.3c-0.2,0.2-0.2,0.5-0.2,0.7c-2.1,0.3-4,1.6-4,3.9c0,0.8,0.4,2.1,0.7,3H3c-1.7,0-3,1.3-3,3v16c0,1.7,1.3,3,3,3  h34c1.7,0,3-1.3,3-3V41C40,39.3,38.7,38,37,38z M26,35c0,0.5-0.5,2-0.9,3H23l0.7-4.9C24.7,33.2,26,33.7,26,35z M21.8,32L21,37.9  c0,0,0,0.1,0,0.1h-2c0,0,0-0.1,0-0.1L18.2,32H21.8z M14,35c0-1.3,1.3-1.8,2.3-1.9L17,38h-2.1C14.5,37,14,35.5,14,35z M9.4,58  l3.3-3.3c0.4-0.4,0.4-1,0-1.4s-1-0.4-1.4,0L6.6,58H3.4l9.3-9.3c0.4-0.4,0.4-1,0-1.4s-1-0.4-1.4,0L2,56.6v-3.2l7.7-7.7  c0.4-0.4,0.4-1,0-1.4s-1-0.4-1.4,0L2,50.6v-3.2l1.7-1.7c0.4-0.4,0.4-1,0-1.4s-1-0.4-1.4,0L2,44.6V41c0-0.6,0.4-1,1-1h12v18H9.4z   M17,58V43h4c0.6,0,1-0.4,1-1s-0.4-1-1-1h-4v-1h6v18H17z M38,57c0,0.6-0.4,1-1,1h-3.6l2.3-2.3c0.4-0.4,0.4-1,0-1.4s-1-0.4-1.4,0  L30.6,58h-3.2l8.3-8.3c0.4-0.4,0.4-1,0-1.4s-1-0.4-1.4,0L25,57.6v-3.2l10.7-10.7c0.4-0.4,0.4-1,0-1.4s-1-0.4-1.4,0L25,51.6v-3.2  l2.7-2.7c0.4-0.4,0.4-1,0-1.4s-1-0.4-1.4,0L25,45.6V40h12c0.6,0,1,0.4,1,1V57z M57,21h-9.7c0.3-0.9,0.7-2.2,0.7-3  c0-2.3-1.9-3.6-4-3.9c0-0.3-0.1-0.5-0.2-0.7C43.6,13.1,43.3,13,43,13h-6c-0.3,0-0.6,0.1-0.8,0.3c-0.2,0.2-0.2,0.5-0.2,0.7  c-2.1,0.3-4,1.6-4,3.9c0,0.8,0.4,2.1,0.7,3H23c-1.7,0-3,1.3-3,3v4c0,0.6,0.4,1,1,1s1-0.4,1-1v-4c0-0.6,0.4-1,1-1h11v13  c0,0.6,0.4,1,1,1s1-0.4,1-1V26h3c0.6,0,1-0.4,1-1s-0.4-1-1-1h-3v-1h8v35h-1c-0.6,0-1,0.4-1,1s0.4,1,1,1h14c1.7,0,3-1.3,3-3V24  C60,22.3,58.7,21,57,21z M41.8,15L41,20.9c0,0,0,0.1,0,0.1h-2c0,0,0-0.1,0-0.1L38.2,15H41.8z M34.9,21c-0.4-1-0.9-2.5-0.9-3  c0-1.3,1.3-1.8,2.3-1.9L37,21H34.9z M43,21l0.7-4.9c1,0.2,2.3,0.7,2.3,1.9c0,0.5-0.5,2-0.9,3H43z M58,57c0,0.6-0.4,1-1,1H46V23h11  c0.6,0,1,0.4,1,1V57z M6,36c0.6,0,1-0.4,1-1V11c0-0.6,0.4-1,1-1h8v18c0,0.6,0.4,1,1,1s1-0.4,1-1V13h5c0.6,0,1-0.4,1-1s-0.4-1-1-1h-5  v-1h10v9c0,0.6,0.4,1,1,1s1-0.4,1-1v-9h8c0.6,0,1,0.4,1,1c0,0.6,0.4,1,1,1s1-0.4,1-1c0-1.7-1.3-3-3-3h-7.7C30.6,7.1,31,5.8,31,5  c0-2.3-1.9-3.6-4-3.9c0-0.3-0.1-0.5-0.2-0.7C26.6,0.1,26.3,0,26,0h-6c-0.3,0-0.6,0.1-0.8,0.3C19.1,0.5,19,0.8,19,1.1  c-2.1,0.3-4,1.6-4,3.9c0,0.8,0.4,2.1,0.7,3H8c-1.7,0-3,1.3-3,3v24C5,35.6,5.4,36,6,36z M29,5c0,0.5-0.5,2-0.9,3H26l0.7-4.9  C27.7,3.2,29,3.7,29,5z M24.8,2L24,7.9c0,0,0,0.1,0,0.1h-2c0,0,0-0.1,0-0.1L21.2,2H24.8z M17,5c0-1.3,1.3-1.8,2.3-1.9L20,8h-2.1  C17.5,7,17,5.5,17,5z M14,42c0,0.6-0.4,1-1,1H4c-0.6,0-1-0.4-1-1s0.4-1,1-1h9C13.6,41,14,41.4,14,42z M32,42c0,0.6-0.4,1-1,1h-4  c-0.6,0-1-0.4-1-1s0.4-1,1-1h4C31.6,41,32,41.4,32,42z M32,26h-8c-0.6,0-1-0.4-1-1s0.4-1,1-1h8c0.6,0,1,0.4,1,1S32.6,26,32,26z   M53,26h-5c-0.6,0-1-0.4-1-1s0.4-1,1-1h5c0.6,0,1,0.4,1,1S53.6,26,53,26z M14,11c0.6,0,1,0.4,1,1s-0.4,1-1,1H9c-0.6,0-1-0.4-1-1  s0.4-1,1-1H14z M34,11c0.6,0,1,0.4,1,1s-0.4,1-1,1h-2c-0.6,0-1-0.4-1-1s0.4-1,1-1H34z M55,30c0,0.6-0.4,1-1,1s-1-0.4-1-1s0.4-1,1-1  S55,29.4,55,30z M51,34c0,0.6-0.4,1-1,1s-1-0.4-1-1s0.4-1,1-1S51,33.4,51,34z M30,29c0.6,0,1,0.4,1,1s-0.4,1-1,1s-1-0.4-1-1  S29.4,29,30,29z M55,37c0,0.6-0.4,1-1,1s-1-0.4-1-1s0.4-1,1-1S55,36.4,55,37z M51,41c0,0.6-0.4,1-1,1s-1-0.4-1-1s0.4-1,1-1  S51,40.4,51,41z M55,44c0,0.6-0.4,1-1,1s-1-0.4-1-1s0.4-1,1-1S55,43.4,55,44z M51,48c0,0.6-0.4,1-1,1s-1-0.4-1-1s0.4-1,1-1  S51,47.4,51,48z M55,51c0,0.6-0.4,1-1,1s-1-0.4-1-1s0.4-1,1-1S55,50.4,55,51z M51,55c0,0.6-0.4,1-1,1s-1-0.4-1-1s0.4-1,1-1  S51,54.4,51,55z"/>
  <text x="0" y="75" fill="#000000" font-size="5px" font-weight="bold" font-family="'Helvetica Neue', Helvetica, Arial-Unicode, Arial, Sans-serif">
    Created by Denis Shumaylov
  </text>
  <text x="0" y="80" fill="#000000" font-size="5px" font-weight="bold" font-family="'Helvetica Neue', Helvetica, Arial-Unicode, Arial, Sans-serif">
    from the Noun Project
  </text>
</svg>