<svg xmlns="http://www.w3.org/2000/svg" xmlns:xlink="http://www.w3.org/1999/xlink" version="1.1" viewBox="0 -9 60 41" fill="currentcolor">
  <path d="M55.3,13.7A4.8,4.8,0,0,0,57,10a5,5,0,0,0-5-5A96,96,0,0,1,30.2,2.5,98.55,98.55,0,0,0,8,0,5,5,0,0,0,3,5,5.13,5.13,0,0,0,4.3,8.4,8.31,8.31,0,0,0,2,14a7.88,7.88,0,0,0,1.7,4.9A13,13,0,0,0,13,41H44A16,16,0,0,0,55.3,13.7ZM44,39H13A11,11,0,0,1,5.8,19.7h0A11.07,11.07,0,0,1,13,17a1,1,0,0,0,0-2,13.06,13.06,0,0,0-7.8,2.6A5.78,5.78,0,0,1,4,14,6,6,0,0,1,6.4,9.2h0A6.06,6.06,0,0,1,9.9,8.1a15.73,15.73,0,0,1,6.7,1.6A16.44,16.44,0,0,0,22,11a.94.94,0,0,0,1-1,.94.94,0,0,0-1-1,12.05,12.05,0,0,1-4.5-1.2A18.35,18.35,0,0,0,10,6,8.39,8.39,0,0,0,5.9,7.1,2.72,2.72,0,0,1,5,5,3,3,0,0,1,8,2,96,96,0,0,1,29.8,4.5,98.55,98.55,0,0,0,52,7a3,3,0,0,1,3,3,2.85,2.85,0,0,1-1.2,2.4A15.76,15.76,0,0,0,44,9a.94.94,0,0,0-1,1,.94.94,0,0,0,1,1,14.05,14.05,0,0,1,9,3.3h0A14,14,0,0,1,44,39ZM34,17.9,32,19l2,1.1a1.11,1.11,0,0,1,.4,1.4,1.05,1.05,0,0,1-.9.5.9.9,0,0,1-.5-.1l-2-1.1V23a1,1,0,0,1-2,0V20.7l-2,1.1c-.1.2-.3.2-.5.2a1.19,1.19,0,0,1-.9-.5,1,1,0,0,1,.4-1.4L28,19l-2-1.1a1,1,0,0,1,1-1.8l2,1.1V15a1,1,0,0,1,2,0v2.3l2-1.1a1,1,0,0,1,1.4.4A1.13,1.13,0,0,1,34,17.9Zm13,10L45,29l2,1.1a1.11,1.11,0,0,1,.4,1.4,1.05,1.05,0,0,1-.9.5.9.9,0,0,1-.5-.1l-2-1.1V33a1,1,0,0,1-2,0V30.7l-2,1.1c-.1.2-.3.2-.5.2a1.19,1.19,0,0,1-.9-.5,1,1,0,0,1,.4-1.4L41,29l-2-1.1a1,1,0,1,1,1-1.8l2,1.1V25a1,1,0,0,1,2,0v2.3l2-1.1a1,1,0,0,1,1.4.4A1.13,1.13,0,0,1,47,27.9Zm-26,0L19,29l2,1.1a1.11,1.11,0,0,1,.4,1.4,1.05,1.05,0,0,1-.9.5.9.9,0,0,1-.5-.1l-2-1.1V33a1,1,0,0,1-2,0V30.7l-2,1.1c-.1.2-.3.2-.5.2a1.19,1.19,0,0,1-.9-.5,1,1,0,0,1,.4-1.4L15,29l-2-1.1a1,1,0,0,1,1-1.8l2,1.1V25a1,1,0,0,1,2,0v2.3l2-1.1a1,1,0,0,1,1.4.4A1.13,1.13,0,0,1,21,27.9Z"/>
  <text x="0" y="75" fill="#000000" font-size="5px" font-weight="bold" font-family="'Helvetica Neue', Helvetica, Arial-Unicode, Arial, Sans-serif">
    Created by Denis Shumaylov
  </text>
  <text x="0" y="80" fill="#000000" font-size="5px" font-weight="bold" font-family="'Helvetica Neue', Helvetica, Arial-Unicode, Arial, Sans-serif">
    from the Noun Project
  </text>
</svg>