<svg xmlns="http://www.w3.org/2000/svg" xmlns:xlink="http://www.w3.org/1999/xlink" version="1.1" viewBox="0 0 60 60" fill="currentcolor">
  <path d="M51.7,40.3c1.5,1.5,0.8,5.8-0.9,8.3C48.5,52.1,45.1,54,41,54c-7.4,0-10.2,2.7-12.2,5.6C28.6,59.8,28.3,60,28,60  s-0.6-0.2-0.8-0.4C25.2,56.7,22.4,54,15,54c-4.1,0-7.5-1.9-9.8-5.4c-1.7-2.5-2.4-6.7-0.9-8.3c0.4-0.4,1-0.4,1.4,0s0.4,1,0,1.4  c-0.4,0.4-0.4,3.5,1.1,5.7C8.2,49.5,10.8,52,15,52c7.4,0,10.8,2.5,13,5.3c2.2-2.8,5.6-5.3,13-5.3c4.2,0,6.8-2.5,8.2-4.6  c1.5-2.2,1.6-5.3,1.1-5.7c-0.4-0.4-0.4-1,0-1.4S51.3,39.9,51.7,40.3z M2,34c0.3,0,0.5-0.1,0.7-0.3C4.5,31.9,7.3,31,11,31  c0.6,0,1-0.4,1-1c0-2.5,0.4-4.7,1.2-6.6c0.2-0.5,0-1.1-0.5-1.3c-0.5-0.2-1.1,0-1.3,0.5c-0.8,1.9-1.3,4-1.4,6.4  c-3.8,0.2-6.7,1.3-8.7,3.3c-0.4,0.4-0.4,1,0,1.4C1.5,33.9,1.7,34,2,34z M7,36c0.6,0,1-0.4,1-1s-0.4-1-1-1c-2.5,0-4.8,1.4-5.9,3.6  c-0.2,0.5,0,1.1,0.4,1.3C1.7,39,1.8,39,2,39c0.4,0,0.7-0.2,0.9-0.6C3.6,36.9,5.2,36,7,36z M46,29c0-0.4,0-0.7-0.1-1.1  c0-0.6-0.5-1-1.1-0.9c-0.5,0-1,0.5-0.9,1.1C44,28.7,44,29.3,44,30c0,0.6,0.4,1,1,1c3.7,0,6.5,0.9,8.3,2.7c0.2,0.2,0.5,0.3,0.7,0.3  s0.5-0.1,0.7-0.3c0.4-0.4,0.4-1,0-1.4C52.7,30.3,49.8,29.2,46,29z M49,34c-0.6,0-1,0.4-1,1s0.4,1,1,1c1.8,0,3.4,0.9,4.1,2.4  c0.2,0.4,0.5,0.6,0.9,0.6c0.1,0,0.3,0,0.4-0.1c0.5-0.2,0.7-0.8,0.4-1.3C53.8,35.4,51.5,34,49,34z M25,33c-2.8,0-6.3-1.9-7.1-3.4  c-0.2-0.5-0.8-0.7-1.3-0.4c-0.5,0.2-0.7,0.8-0.4,1.3c1.2,2.3,5.5,4.6,8.9,4.6c0.6,0,1-0.4,1-1S25.6,33,25,33z M39.9,30.4  c0.2-0.5,0-1.1-0.4-1.3c-0.5-0.2-1.1,0-1.3,0.4C37.3,31.1,33.8,33,31,33c-0.6,0-1,0.4-1,1s0.4,1,1,1C34.4,35,38.7,32.8,39.9,30.4z   M9.4,38.2c-0.4,0.3-0.5,0.9-0.2,1.4c0.3,0.4,0.9,0.5,1.4,0.2c0,0,0.7-0.5,2-0.7c-0.6,1.6-0.5,3.3,0.3,4.9c1,1.9,2.9,3,5.1,3  c6.6,0,8.7,3.7,9.1,4.4c0.2,0.3,0.5,0.6,0.9,0.6s0.7-0.2,0.9-0.6c0.4-0.7,2.6-4.4,9.1-4.4c2.2,0,4.1-1.1,5.1-3  c0.8-1.5,0.9-3.3,0.3-4.9c1.3,0.2,2,0.7,2,0.7c0.2,0.1,0.4,0.2,0.6,0.2c0.3,0,0.6-0.1,0.8-0.4c0.3-0.4,0.2-1.1-0.2-1.4  C46.4,38.1,44.9,37,42,37s-4.4,1.1-4.6,1.2c-0.4,0.3-0.5,0.9-0.2,1.4c0.3,0.4,0.9,0.5,1.4,0.2c0,0,0.9-0.6,2.6-0.8c0,0,0,0,0,0  c0.8,1.2,0.8,2.7,0.1,4c-0.7,1.3-1.9,2-3.3,2c-5,0-8.2,2-10,4.2C26.2,47,23,45,18,45c-1.4,0-2.6-0.7-3.3-2c-0.7-1.3-0.6-2.8,0.1-4  c0,0,0,0,0,0c1.7,0.2,2.6,0.8,2.6,0.8c0.2,0.1,0.4,0.2,0.6,0.2c0.3,0,0.6-0.1,0.8-0.4c0.3-0.4,0.2-1.1-0.2-1.4  C18.4,38.1,16.9,37,14,37S9.6,38.1,9.4,38.2z M24.1,39.6c-0.2,0.5,0,1.1,0.4,1.3s1.1,0.1,1.3-0.4c0,0,0.8-1.5,2.1-1.5  c1.3,0,2.1,1.4,2.1,1.5c0.2,0.3,0.5,0.5,0.9,0.5c0.1,0,0.3,0,0.4-0.1c0.5-0.2,0.7-0.8,0.4-1.3C31.8,39.4,30.6,37,28,37  S24.2,39.4,24.1,39.6z M53,10c2.8,0.2,5,2.6,5,5.5c0,3-2.5,5.5-5.5,5.5S47,18.5,47,15.5c0-0.9,0.2-1.8,0.6-2.6  c-0.1,0-0.2-0.1-0.3-0.2c-0.6-0.6-1.3-1.2-1.9-1.6c-1.3,1.7-1.4,4.2-1.4,6c1.2,0.4,2,1.5,2,2.8v2c0,0.8-0.3,1.6-0.9,2.1  C44.5,24.7,43.8,25,43,25c0,0,0,0,0,0c-13.8-0.1-24.2-1.7-29.2-4.3c-1.2-0.6-1.8-1.9-1.6-3.2l0.4-2.2c0.1-0.9,0.7-1.6,1.4-2.1  c0.4-0.2,0.7-0.3,1.1-0.4C17.6,4.3,23.6,0,33,0C43.2,0,49.8,3.6,53,10z M44,20c0-0.5-0.4-1-1-1c-11.1-0.2-21.6-2.2-27.1-4.1  c-0.1,0-0.2-0.1-0.3-0.1c-0.2,0-0.4,0-0.5,0.1c-0.3,0.2-0.4,0.4-0.5,0.7l-0.4,2.2c-0.1,0.4,0.1,0.9,0.5,1.1  c4.7,2.5,14.7,3.9,28.3,4.1c0,0,0,0,0,0c0.3,0,0.5-0.1,0.7-0.3c0.2-0.2,0.3-0.4,0.3-0.7V20z M48.7,11.3c0,0,0.1,0.1,0.1,0.1  c0.6-0.6,1.4-1,2.2-1.2C48.1,4.6,42.3,2,33,2c-8.4,0-13.6,3.7-15.9,11.2c5.3,1.7,14.8,3.5,24.9,3.8c0-1.9,0-4.5,1.5-6.7  C43,10.1,42.5,10,42,10c-0.8,0-1.6,0.2-2.6,0.4C38.2,10.7,36.8,11,35,11c-3.5,0-6-2.4-6-4c0-0.6,0.4-1,1-1s1,0.4,1,1  c0.1,0.4,1.5,2,4,2c1.5,0,2.8-0.3,4-0.6C40,8.2,41,8,42,8C44.3,8,46.5,9.1,48.7,11.3z M56,15.5c0-1.9-1.6-3.5-3.5-3.5  S49,13.6,49,15.5s1.6,3.5,3.5,3.5S56,17.4,56,15.5z"/>
  <text x="0" y="75" fill="#000000" font-size="5px" font-weight="bold" font-family="'Helvetica Neue', Helvetica, Arial-Unicode, Arial, Sans-serif">
    Created by Denis Shumaylov
  </text>
  <text x="0" y="80" fill="#000000" font-size="5px" font-weight="bold" font-family="'Helvetica Neue', Helvetica, Arial-Unicode, Arial, Sans-serif">
    from the Noun Project
  </text>
</svg>