<svg xmlns="http://www.w3.org/2000/svg" xmlns:xlink="http://www.w3.org/1999/xlink" version="1.1" viewBox="0 0 60 60" fill="currentcolor">
  <path d="M53,54.3v-5.8c2.4,1,4.4,2.6,5.1,4c0.2,0.4,0.9,0.7,1.3,0.4c0.5-0.2,0.7-0.8,0.4-1.3  c-1.1-2.3-4.2-4.2-6.9-5.2V32.6l1,0.5V36c0,0.6,0.4,1,1,1s1-0.4,1-1v-2c0.4,0,0.7-0.2,0.9-0.6l2-4c0.2-0.5,0.1-1.1-0.4-1.3l-2.2-1.2  c0.6-1.1,0.8-2.4,0.6-3.7c-0.3-1.5-1.2-2.9-2.5-3.7l-2.8-1.8c-0.8-0.5-1.7-0.7-2.6-0.7c-0.4,0-0.9-0.1-1.3-0.3l-8.2-4.1  c-0.5-0.2-0.8-0.6-1.1-1.1c-0.4-0.8-1.1-1.5-1.9-1.9C33,7.9,29,8,25.6,9.8L23,11.2V7c0.6,0,1-0.4,1-1V1c0-0.6-0.4-1-1-1H12  c-0.6,0-1,0.4-1,1v5c0,0.6,0.4,1,1,1v8c0,0,0,0.1,0,0.1l-2,1.2c-1.1,0.6-2,1.5-2.8,2.6c-0.6,0.9-1.4,1.6-2.4,2.1l-0.3,0.1  c-1.3,0.7-2.3,1.8-2.7,3.2c-0.4,1.2-0.3,2.5,0.1,3.6l-0.4,0.2c-0.5,0.3-0.7,0.8-0.4,1.3L3,33.2V38c0,0.6,0.4,1,1,1s1-0.4,1-1v-4.4  l2-1v11.5c-3.1,0.4-5.9,2.4-6.9,4.5c-0.2,0.5,0,1.1,0.4,1.3c0.4,0.2,1.1,0.1,1.3-0.4c0.7-1.5,2.8-3,5.1-3.4V54c0,0,0,0,0,0  c-2.3,1.1-4.6,2.5-6.6,4.2c-0.4,0.3-0.5,1-0.1,1.4c0.2,0.3,0.9,0.6,1.4,0.1C7,55.4,13.5,53,20,53c2.5,0,4.9,0.3,7.3,1  c-2.8,1-5.3,2.4-7.5,4.2c-0.4,0.4-0.5,1-0.1,1.4c0.3,0.4,1,0.5,1.4,0.1c2.7-2.2,5.9-3.8,9.7-4.7c0,0,0,0,0,0c2.8-0.7,5.8-1,9.1-1  c7.7,0,13.7,1.9,18.4,5.8c0.4,0.4,1.1,0.3,1.4-0.1c0.3-0.4,0.3-1.1-0.1-1.4C57.7,56.6,55.4,55.3,53,54.3z M55.6,31.7l-9.8-4.9  c0.2-0.4,0.2-0.8,0.2-1.3l0-1.6c0,0,0-0.1,0.1-0.1c0.1,0,0.1,0,0.1,0l10.5,5.6L55.6,31.7z M13,2h9v3h-9V2z M21,12.3  c-0.9,0.5-1.9,0.7-3,0.7c-1.4,0-2.8,0.4-4,1V7h7L21,12.3z M3.7,24.9c0.3-0.9,0.9-1.6,1.7-2l0.3-0.1C7,22.1,8.1,21.1,8.9,20  c0.5-0.8,1.2-1.5,2.1-1.9l3.8-2.1c1-0.6,2.2-0.9,3.3-0.9c1.5,0,2.9-0.4,4.2-1.1l4.4-2.4c2.8-1.5,6.1-1.6,9-0.2  c0.5,0.2,0.8,0.6,1.1,1.1c0.4,0.8,1.1,1.5,1.9,1.9l8.2,4.1c0.7,0.3,1.4,0.5,2.2,0.5c0.5,0,1,0.1,1.5,0.4l2.8,1.8  c0.9,0.5,1.4,1.4,1.6,2.4c0.2,0.8,0,1.7-0.4,2.4L47.1,22c-0.7-0.4-1.5-0.3-2.1,0.1c-0.6,0.4-1,1.1-1,1.8l0,1.6c0,0.4-0.1,0.7-0.3,1  c0,0-0.1,0.1-0.1,0.1c-0.3,0.3-0.7,0.5-1.1,0.5c-0.8,0-1.5-0.7-1.5-1.5V19c0-0.6-0.4-1-1-1s-1,0.4-1,1v4.4l-8.6-4.3  c-0.3-0.1-0.6-0.1-0.9,0L21,23.4v-1.7c0-1.1,0.6-2,1.5-2.6l7.5-4l4.6,2.5c0.2,0.1,0.4,0.4,0.4,0.7V20c0,0.6,0.4,1,1,1s1-0.4,1-1  v-1.7c0-1-0.6-1.9-1.5-2.4l-5.1-2.7c-0.3-0.2-0.6-0.2-0.9,0l-7.9,4.3C20,18.2,19,19.9,19,21.7V30c0,0.6-0.4,1-1,1s-1-0.4-1-1v-3  c0,0,0,0,0,0v-3.7c0-0.7-0.4-1.4-1-1.8c-0.6-0.4-1.4-0.4-2.1,0L3.7,27C3.5,26.3,3.5,25.6,3.7,24.9z M4.4,31.7l-1.1-2.2l11.6-6.2  l0.1,0.1v3.1L4.4,31.7z M16,51.3V37h9v14.4c-1.7-0.3-3.3-0.4-5-0.4C18.7,51,17.3,51.1,16,51.3z M30.7,53c-1.2-0.5-2.5-0.8-3.7-1.2  V36c0-0.6-0.4-1-1-1H15c-0.6,0-1,0.4-1,1v15.6c-1.7,0.4-3.4,0.9-5,1.5V31.6l2-1V32c0,0.6,0.4,1,1,1s1-0.4,1-1v-2.4l2-1V30  c0,1.7,1.3,3,3,3s3-1.3,3-3v-4.4l9-4.5l9,4.5c0.1,1.9,1.6,3.4,3.5,3.4c0.7,0,1.4-0.2,2-0.6l2.5,1.2V33c0,0.6,0.4,1,1,1s1-0.4,1-1  v-2.4l2,1v21.9c-3.3-1-6.9-1.5-11-1.5C36.7,52,33.5,52.3,30.7,53z M45,35H31c-0.6,0-1,0.4-1,1v12c0,0.6,0.4,1,1,1h14  c0.6,0,1-0.4,1-1V36C46,35.4,45.6,35,45,35z M44,47h-5v-4h3c0.6,0,1-0.4,1-1s-0.4-1-1-1h-3v-2c0-0.6-0.4-1-1-1s-1,0.4-1,1v2h-3  c-0.6,0-1,0.4-1,1s0.4,1,1,1h3v4h-5V37h12V47z M20,45c0,0.6-0.4,1-1,1h-1c-0.6,0-1-0.4-1-1s0.4-1,1-1h1C19.6,44,20,44.4,20,45z   M33,39c0-0.6,0.4-1,1-1h1c0.6,0,1,0.4,1,1s-0.4,1-1,1h-1C33.4,40,33,39.6,33,39z M43,45c0,0.6-0.4,1-1,1h-1c-0.6,0-1-0.4-1-1  s0.4-1,1-1h1C42.6,44,43,44.4,43,45z M34,28c0-2.2-1.8-4-4-4s-4,1.8-4,4s1.8,4,4,4S34,30.2,34,28z M28,28c0-1.1,0.9-2,2-2s2,0.9,2,2  s-0.9,2-2,2S28,29.1,28,28z"/>
  <text x="0" y="75" fill="#000000" font-size="5px" font-weight="bold" font-family="'Helvetica Neue', Helvetica, Arial-Unicode, Arial, Sans-serif">
    Created by Denis Shumaylov
  </text>
  <text x="0" y="80" fill="#000000" font-size="5px" font-weight="bold" font-family="'Helvetica Neue', Helvetica, Arial-Unicode, Arial, Sans-serif">
    from the Noun Project
  </text>
</svg>