<svg xmlns="http://www.w3.org/2000/svg" viewBox="0 0 60 60" fill="currentcolor"><path d="M36 14.8l-1-4c-.1-.4-.5-.8-1-.8h-2.1c.9-1.5 2.1-3.5 2.1-5 0-2.5-1.4-5-4-5s-4 2.5-4 5c0 1.5 1.2 3.5 2.1 5H26c-.5 0-.9.3-1 .8l-1 4C14.2 17.4 7 26.4 7 37c0 12.7 10.3 23 23 23s23-10.3 23-23c0-10.6-7.2-19.6-17-22.2zM30 2c1.6 0 2 2 2 3 0 .9-1 2.8-2 4.3-1-1.5-2-3.4-2-4.3 0-1 .4-3 2-3zm-3.2 10h6.4l.6 2.3c-1.2-.2-2.5-.3-3.8-.3s-2.6.1-3.8.3l.6-2.3zm3.2 4c11.6 0 21 9.4 21 21 0 2-.3 4-.9 5.9l-5.9-13.3c-.2-.4-.5-.6-.9-.6s-.8.2-.9.6l-5.8 12.9-5.8-12.9c0-.4-.4-.6-.8-.6s-.8.2-.9.6l-5.8 12.9-5.8-12.9c-.2-.4-.5-.6-.9-.6s-.8.2-.9.6L9.9 42.9C9.3 41 9 39 9 37c0-11.6 9.4-21 21-21zm0 42c-8.5 0-15.9-5.1-19.2-12.5l.1-.1 5.8-12.9 5.8 12.9c.2.4.5.6.9.6s.8-.2.9-.6L30 32.5l5.8 12.9c.2.4.5.6.9.6s.8-.2.9-.6l5.8-12.9 5.8 12.9.1.1C45.9 52.9 38.5 58 30 58zM17.7 26.7c-.4-.4-.4-1 0-1.4.8-.9 1.8-1.7 2.8-2.4.5-.3 1.1-.2 1.4.3.3.5.2 1.1-.3 1.4-.9.6-1.7 1.3-2.5 2.1-.4.4-1 .4-1.4 0zm5.4-4.2c-.2-.5 0-1.1.6-1.3 2-.8 4.2-1.2 6.4-1.2.6 0 1 .4 1 1s-.4 1-1 1c-1.9 0-3.8.4-5.6 1.1-.8.3-1.3-.1-1.4-.6zm22.7 20.9C43.2 49.8 37 54 30 54c-1.4 0-2.9-.2-4.3-.5-.5-.1-.9-.7-.7-1.2.1-.5.7-.9 1.2-.7 1.2.3 2.5.5 3.8.5 6.1 0 11.6-3.7 13.9-9.4.2-.5.8-.8 1.3-.6.5.2.8.8.6 1.3z"/><text y="75" fill="#000" font-size="5" font-weight="bold" font-family="'Helvetica Neue', Helvetica, Arial-Unicode, Arial, Sans-serif">Created by Denis Shumaylov</text><text y="80" fill="#000" font-size="5" font-weight="bold" font-family="'Helvetica Neue', Helvetica, Arial-Unicode, Arial, Sans-serif">from the Noun Project</text></svg>