<svg xmlns="http://www.w3.org/2000/svg" viewBox="0 0 60 60" fill="currentcolor"><path d="M36 14.8l-1-4c-.1-.4-.5-.8-1-.8h-2.1c.9-1.5 2.1-3.5 2.1-5 0-2.5-1.4-5-4-5s-4 2.5-4 5c0 1.5 1.2 3.5 2.1 5H26c-.5 0-.9.3-1 .8l-1 4C14.2 17.4 7 26.4 7 37c0 12.7 10.3 23 23 23s23-10.3 23-23c0-10.6-7.2-19.6-17-22.2zM30 2c1.6 0 2 2 2 3 0 .9-1 2.8-2 4.3-1-1.5-2-3.4-2-4.3 0-1 .4-3 2-3zm-3.2 10h6.4l.6 2.3c-1.2-.2-2.5-.3-3.8-.3s-2.6.1-3.8.3l.6-2.3zM30 58C18.4 58 9 48.6 9 37s9.4-21 21-21 21 9.4 21 21-9.4 21-21 21zM17.6 28.6c-.2.3-.5.4-.8.4-.2 0-.4-.1-.6-.2-.5-.3-.6-.9-.3-1.4 2.8-4 7.1-6.7 11.9-7.3.5-.1 1 .3 1.1.9.1.5-.3 1-.9 1.1-4.1.5-8 2.9-10.4 6.5zM47 37c0 9.4-7.6 17-17 17-.6 0-1-.4-1-1s.4-1 1-1c8.3 0 15-6.7 15-15 0-.6.4-1 1-1s1 .4 1 1zm-31.3-4.7c-.4 1.5-.7 3.1-.7 4.7 0 .6-.4 1-1 1s-1-.4-1-1c0-1.8.3-3.6.8-5.3.2-.5.7-.8 1.3-.6.5.1.8.7.6 1.2zM30 45.4l-2.3 2.3c-.4.4-1 .4-1.4 0s-.4-1 0-1.4l2.7-2.7v-4.9l-4.2 2.4-1 3.7c-.1.4-.5.7-1 .7h-.3c-.5-.1-.9-.7-.7-1.2l.8-3.1-3.1-.8c-.5-.1-.9-.7-.7-1.2.1-.5.7-.9 1.2-.7l3.7 1L28 37l-4.2-2.4-3.7 1h-.3c-.4 0-.8-.3-1-.7-.1-.5.2-1.1.7-1.2l3.1-.8-.8-3.1c-.1-.5.2-1.1.7-1.2.5-.1 1.1.2 1.2.7l1 3.7 4.2 2.4v-4.9l-2.7-2.7c-.4-.4-.4-1 0-1.4s1-.4 1.4 0l2.3 2.3 2.3-2.3c.4-.4 1-.4 1.4 0s.4 1 0 1.4L31 30.4v4.9l4.2-2.4 1-3.7c.1-.5.7-.9 1.2-.7.5.1.9.7.7 1.2l-.8 3.1 3.1.8c.5.1.9.7.7 1.2-.1.4-.5.7-1 .7h-.3l-3.7-1L32 37l4.2 2.4 3.7-1c.5-.1 1.1.2 1.2.7s-.2 1.1-.7 1.2l-3.1.8.8 3.1c.1.5-.2 1.1-.7 1.2h-.3c-.4 0-.8-.3-1-.7l-1-3.7-4.1-2.3v4.9l2.7 2.7c.4.4.4 1 0 1.4-.2.2-.4.3-.7.3s-.5-.1-.7-.3L30 45.4z"/><text y="75" fill="#000" font-size="5" font-weight="bold" font-family="'Helvetica Neue', Helvetica, Arial-Unicode, Arial, Sans-serif">Created by Denis Shumaylov</text><text y="80" fill="#000" font-size="5" font-weight="bold" font-family="'Helvetica Neue', Helvetica, Arial-Unicode, Arial, Sans-serif">from the Noun Project</text></svg>