<svg xmlns="http://www.w3.org/2000/svg" xmlns:xlink="http://www.w3.org/1999/xlink" version="1.1" viewBox="0 0 60 60" fill="currentcolor">
  <path d="M36,14.8C36,14.8,36,14.8,36,14.8l-1-4c-0.1-0.4-0.5-0.8-1-0.8h-2.1C32.8,8.5,34,6.5,34,5  c0-2.5-1.4-5-4-5s-4,2.5-4,5c0,1.5,1.2,3.5,2.1,5H26c-0.5,0-0.9,0.3-1,0.8l-1,4c0,0,0,0,0,0C14.2,17.4,7,26.4,7,37  c0,12.7,10.3,23,23,23s23-10.3,23-23C53,26.4,45.8,17.4,36,14.8z M30,2c1.6,0,2,2,2,3c0,0.9-1,2.8-2,4.3c-1-1.5-2-3.4-2-4.3  C28,4,28.4,2,30,2z M26.8,12h6.4l0.6,2.3C32.6,14.1,31.3,14,30,14s-2.6,0.1-3.8,0.3L26.8,12z M30,58C18.4,58,9,48.6,9,37  s9.4-21,21-21s21,9.4,21,21S41.6,58,30,58z M17.6,28.6c-0.2,0.3-0.5,0.4-0.8,0.4c-0.2,0-0.4-0.1-0.6-0.2c-0.5-0.3-0.6-0.9-0.3-1.4  c2.8-4,7.1-6.7,11.9-7.3c0.5-0.1,1,0.3,1.1,0.9c0.1,0.5-0.3,1-0.9,1.1C23.9,22.6,20,25,17.6,28.6z M47,37c0,9.4-7.6,17-17,17  c-0.6,0-1-0.4-1-1s0.4-1,1-1c8.3,0,15-6.7,15-15c0-0.6,0.4-1,1-1S47,36.4,47,37z M15.7,32.3C15.3,33.8,15,35.4,15,37  c0,0.6-0.4,1-1,1s-1-0.4-1-1c0-1.8,0.3-3.6,0.8-5.3c0.2-0.5,0.7-0.8,1.3-0.6C15.6,31.2,15.9,31.8,15.7,32.3z M30,45.4l-2.3,2.3  c-0.4,0.4-1,0.4-1.4,0s-0.4-1,0-1.4l2.7-2.7v-4.9l-4.2,2.4l-1,3.7c-0.1,0.4-0.5,0.7-1,0.7c-0.1,0-0.2,0-0.3,0  c-0.5-0.1-0.9-0.7-0.7-1.2l0.8-3.1l-3.1-0.8c-0.5-0.1-0.9-0.7-0.7-1.2c0.1-0.5,0.7-0.9,1.2-0.7l3.7,1L28,37l-4.2-2.4l-3.7,1  c-0.1,0-0.2,0-0.3,0c-0.4,0-0.8-0.3-1-0.7c-0.1-0.5,0.2-1.1,0.7-1.2l3.1-0.8l-0.8-3.1c-0.1-0.5,0.2-1.1,0.7-1.2  c0.5-0.1,1.1,0.2,1.2,0.7l1,3.7l4.2,2.4v-4.9l-2.7-2.7c-0.4-0.4-0.4-1,0-1.4s1-0.4,1.4,0l2.3,2.3l2.3-2.3c0.4-0.4,1-0.4,1.4,0  s0.4,1,0,1.4L31,30.4v4.9l4.2-2.4l1-3.7c0.1-0.5,0.7-0.9,1.2-0.7c0.5,0.1,0.9,0.7,0.7,1.2l-0.8,3.1l3.1,0.8c0.5,0.1,0.9,0.7,0.7,1.2  c-0.1,0.4-0.5,0.7-1,0.7c-0.1,0-0.2,0-0.3,0l-3.7-1L32,37l4.2,2.4l3.7-1c0.5-0.1,1.1,0.2,1.2,0.7s-0.2,1.1-0.7,1.2l-3.1,0.8l0.8,3.1  c0.1,0.5-0.2,1.1-0.7,1.2c-0.1,0-0.2,0-0.3,0c-0.4,0-0.8-0.3-1-0.7l-1-3.7L31,38.7v4.9l2.7,2.7c0.4,0.4,0.4,1,0,1.4  C33.5,47.9,33.3,48,33,48s-0.5-0.1-0.7-0.3L30,45.4z"/>
  <text x="0" y="75" fill="#000000" font-size="5px" font-weight="bold" font-family="'Helvetica Neue', Helvetica, Arial-Unicode, Arial, Sans-serif">
    Created by Denis Shumaylov
  </text>
  <text x="0" y="80" fill="#000000" font-size="5px" font-weight="bold" font-family="'Helvetica Neue', Helvetica, Arial-Unicode, Arial, Sans-serif">
    from the Noun Project
  </text>
</svg>