<svg xmlns="http://www.w3.org/2000/svg" xmlns:xlink="http://www.w3.org/1999/xlink" version="1.1" viewBox="0 0 60 60" fill="currentcolor">
  <path d="M36,14.8C36,14.8,36,14.8,36,14.8l-1-4c-0.1-0.4-0.5-0.8-1-0.8h-2.1C32.8,8.5,34,6.5,34,5  c0-2.5-1.4-5-4-5s-4,2.5-4,5c0,1.5,1.2,3.5,2.1,5H26c-0.5,0-0.9,0.3-1,0.8l-1,4c0,0,0,0,0,0C14.2,17.4,7,26.4,7,37  c0,12.7,10.3,23,23,23s23-10.3,23-23C53,26.4,45.8,17.4,36,14.8z M30,2c1.6,0,2,2,2,3c0,0.9-1,2.8-2,4.3c-1-1.5-2-3.4-2-4.3  C28,4,28.4,2,30,2z M50.1,43c0,0-0.1,0-0.1,0H10c0,0-0.1,0-0.1,0c-0.5-1.6-0.8-3.3-0.8-5h41.9C50.9,39.7,50.6,41.4,50.1,43z M9.1,36  c0.1-1.7,0.4-3.4,0.8-5c0,0,0.1,0,0.1,0h40c0,0,0.1,0,0.1,0c0.5,1.6,0.8,3.3,0.8,5H9.1z M26.8,12h6.4l0.6,2.3  C32.6,14.1,31.3,14,30,14s-2.6,0.1-3.8,0.3L26.8,12z M30,16c8.7,0,16.3,5.4,19.4,13H10.6C13.7,21.4,21.3,16,30,16z M30,58  c-8.7,0-16.3-5.4-19.4-13h38.8C46.3,52.6,38.7,58,30,58z M17.5,26.9c-0.4-0.4-0.4-1-0.1-1.4C20.7,22,25.3,20,30,20c0.6,0,1,0.4,1,1  s-0.4,1-1,1c-4.2,0-8.2,1.8-11,4.8c-0.2,0.2-0.5,0.3-0.7,0.3C18,27.2,17.7,27.1,17.5,26.9z M42.4,47.2c0.4,0.4,0.4,1,0,1.4  C39.2,52,34.7,54,30,54c-3.2,0-6.3-0.9-9-2.6c-0.5-0.3-0.6-0.9-0.3-1.4c0.3-0.5,0.9-0.6,1.4-0.3c2.4,1.5,5.1,2.3,7.9,2.3  c4.2,0,8.1-1.7,10.9-4.7C41.3,46.9,42,46.8,42.4,47.2z M15.5,33.3c-0.1,0.3-0.1,0.6-0.2,0.8c-0.1,0.5-0.5,0.8-1,0.8  c-0.8,0-1.1-0.6-1-1.2c0.1-0.3,0.1-0.6,0.2-0.9c0.1-0.5,0.7-0.9,1.2-0.7C15.3,32.2,15.6,32.8,15.5,33.3z"/>
  <text x="0" y="75" fill="#000000" font-size="5px" font-weight="bold" font-family="'Helvetica Neue', Helvetica, Arial-Unicode, Arial, Sans-serif">
    Created by Denis Shumaylov
  </text>
  <text x="0" y="80" fill="#000000" font-size="5px" font-weight="bold" font-family="'Helvetica Neue', Helvetica, Arial-Unicode, Arial, Sans-serif">
    from the Noun Project
  </text>
</svg>