<svg xmlns="http://www.w3.org/2000/svg" xmlns:xlink="http://www.w3.org/1999/xlink" version="1.1" viewBox="0 0 60 60" fill="currentcolor">
  <path d="M36,14.8C36,14.8,36,14.8,36,14.8l-1-4c-0.1-0.4-0.5-0.8-1-0.8h-2.1C32.8,8.5,34,6.5,34,5  c0-2.5-1.4-5-4-5s-4,2.5-4,5c0,1.5,1.2,3.5,2.1,5H26c-0.5,0-0.9,0.3-1,0.8l-1,4c0,0,0,0,0,0C14.2,17.4,7,26.4,7,37  c0,12.7,10.3,23,23,23s23-10.3,23-23C53,26.4,45.8,17.4,36,14.8z M30,2c1.6,0,2,2,2,3c0,0.9-1,2.8-2,4.3c-1-1.5-2-3.4-2-4.3  C28,4,28.4,2,30,2z M26.8,12h6.4l0.6,2.3C32.6,14.1,31.3,14,30,14s-2.6,0.1-3.8,0.3L26.8,12z M30,58C18.4,58,9,48.6,9,37  s9.4-21,21-21s21,9.4,21,21S41.6,58,30,58z M16.9,27.8c-0.4-0.3-0.5-1-0.2-1.4c2.1-2.6,4.8-4.5,8-5.5c0.5-0.2,1.1,0.1,1.3,0.6  c0.2,0.5-0.1,1.1-0.6,1.3c-2.8,0.9-5.2,2.6-7,4.9c-0.2,0.2-0.5,0.4-0.8,0.4C17.3,28,17.1,27.9,16.9,27.8z M47,37  c0,3-0.8,5.9-2.3,8.5c-0.2,0.3-0.5,0.5-0.9,0.5c-0.2,0-0.3,0-0.5-0.1c-0.5-0.3-0.6-0.9-0.4-1.4c1.3-2.3,2-4.9,2-7.5c0-0.6,0.4-1,1-1  S47,36.4,47,37z M35,52.2c0.1,0.5-0.2,1.1-0.7,1.2C32.9,53.8,31.4,54,30,54c-0.6,0-1-0.4-1-1s0.4-1,1-1c1.3,0,2.5-0.2,3.8-0.5  C34.3,51.4,34.8,51.7,35,52.2z M46,32.7c0.2-0.3,0.3-0.6,0.2-0.9c-0.1-0.3-0.4-0.6-0.7-0.6l-9.3-2.7l-5.5-8c-0.4-0.5-1.3-0.5-1.6,0  l-5.5,8l-9.3,2.7c-0.3,0.1-0.6,0.3-0.7,0.6c-0.1,0.3,0,0.7,0.2,0.9l5.9,7.6L19.6,50c0,0.3,0.1,0.6,0.4,0.8c0.3,0.2,0.6,0.2,0.9,0.1  l9.1-3.2l9.1,3.2c0.1,0,0.2,0.1,0.3,0.1c0.2,0,0.4-0.1,0.6-0.2c0.3-0.2,0.4-0.5,0.4-0.8l-0.3-9.6L46,32.7z M38.4,39.4  c-0.1,0.2-0.2,0.4-0.2,0.6l0.2,8.5l-8-2.9c-0.1,0-0.2-0.1-0.3-0.1s-0.2,0-0.3,0.1l-8,2.9l0.2-8.5c0-0.2-0.1-0.5-0.2-0.6l-5.2-6.8  l8.2-2.4c0.2-0.1,0.4-0.2,0.5-0.4l4.8-7l4.8,7c0.1,0.2,0.3,0.3,0.5,0.4l8.2,2.4L38.4,39.4z"/>
  <text x="0" y="75" fill="#000000" font-size="5px" font-weight="bold" font-family="'Helvetica Neue', Helvetica, Arial-Unicode, Arial, Sans-serif">
    Created by Denis Shumaylov
  </text>
  <text x="0" y="80" fill="#000000" font-size="5px" font-weight="bold" font-family="'Helvetica Neue', Helvetica, Arial-Unicode, Arial, Sans-serif">
    from the Noun Project
  </text>
</svg>