<svg xmlns="http://www.w3.org/2000/svg" viewBox="0 0 60 60" fill="currentcolor"><path d="M36 14.8l-1-4c-.1-.4-.5-.8-1-.8h-2.1c.9-1.5 2.1-3.5 2.1-5 0-2.5-1.4-5-4-5s-4 2.5-4 5c0 1.5 1.2 3.5 2.1 5H26c-.5 0-.9.3-1 .8l-1 4C14.2 17.4 7 26.4 7 37c0 12.7 10.3 23 23 23s23-10.3 23-23c0-10.6-7.2-19.6-17-22.2zM30 2c1.6 0 2 2 2 3 0 .9-1 2.8-2 4.3-1-1.5-2-3.4-2-4.3 0-1 .4-3 2-3zm20.1 41H10h-.1c-.5-1.6-.8-3.3-.8-5H51c-.1 1.7-.4 3.4-.9 5zm-41-7c.1-1.7.4-3.4.8-5h40.2c.5 1.6.8 3.3.8 5H9.1zm17.7-24h6.4l.6 2.3c-1.2-.2-2.5-.3-3.8-.3s-2.6.1-3.8.3l.6-2.3zm3.2 4c8.7 0 16.3 5.4 19.4 13H10.6c3.1-7.6 10.7-13 19.4-13zm0 42c-8.7 0-16.3-5.4-19.4-13h38.8C46.3 52.6 38.7 58 30 58zM17.5 26.9c-.4-.4-.4-1-.1-1.4C20.7 22 25.3 20 30 20c.6 0 1 .4 1 1s-.4 1-1 1c-4.2 0-8.2 1.8-11 4.8-.2.2-.5.3-.7.3-.3.1-.6 0-.8-.2zm24.9 20.3c.4.4.4 1 0 1.4C39.2 52 34.7 54 30 54c-3.2 0-6.3-.9-9-2.6-.5-.3-.6-.9-.3-1.4.3-.5.9-.6 1.4-.3 2.4 1.5 5.1 2.3 7.9 2.3 4.2 0 8.1-1.7 10.9-4.7.4-.4 1.1-.5 1.5-.1zM15.5 33.3c-.1.3-.1.6-.2.8-.1.5-.5.8-1 .8-.8 0-1.1-.6-1-1.2.1-.3.1-.6.2-.9.1-.5.7-.9 1.2-.7.6.1.9.7.8 1.2z"/><text y="75" fill="#000" font-size="5" font-weight="bold" font-family="'Helvetica Neue', Helvetica, Arial-Unicode, Arial, Sans-serif">Created by Denis Shumaylov</text><text y="80" fill="#000" font-size="5" font-weight="bold" font-family="'Helvetica Neue', Helvetica, Arial-Unicode, Arial, Sans-serif">from the Noun Project</text></svg>