<svg xmlns="http://www.w3.org/2000/svg" xmlns:xlink="http://www.w3.org/1999/xlink" version="1.1" viewBox="0 0 60 60" fill="currentcolor">
  <path d="M36,14.8C36,14.8,36,14.8,36,14.8l-1-4c-0.1-0.4-0.5-0.8-1-0.8h-2.1C32.8,8.5,34,6.5,34,5  c0-2.5-1.4-5-4-5s-4,2.5-4,5c0,1.5,1.2,3.5,2.1,5H26c-0.5,0-0.9,0.3-1,0.8l-1,4c0,0,0,0,0,0C14.2,17.4,7,26.4,7,37  c0,12.7,10.3,23,23,23s23-10.3,23-23C53,26.4,45.8,17.4,36,14.8z M30,2c1.6,0,2,2,2,3c0,0.9-1,2.8-2,4.3c-1-1.5-2-3.4-2-4.3  C28,4,28.4,2,30,2z M26.8,12h6.4l0.6,2.3C32.6,14.1,31.3,14,30,14s-2.6,0.1-3.8,0.3L26.8,12z M30,16c11.6,0,21,9.4,21,21  c0,2-0.3,4-0.9,5.9l-5.9-13.3c-0.2-0.4-0.5-0.6-0.9-0.6s-0.8,0.2-0.9,0.6l-5.8,12.9l-5.8-12.9C30.8,29.2,30.4,29,30,29  s-0.8,0.2-0.9,0.6l-5.8,12.9l-5.8-12.9c-0.2-0.4-0.5-0.6-0.9-0.6s-0.8,0.2-0.9,0.6L9.9,42.9C9.3,41,9,39,9,37C9,25.4,18.4,16,30,16z   M30,58c-8.5,0-15.9-5.1-19.2-12.5c0,0,0.1-0.1,0.1-0.1l5.8-12.9l5.8,12.9c0.2,0.4,0.5,0.6,0.9,0.6s0.8-0.2,0.9-0.6L30,32.5  l5.8,12.9c0.2,0.4,0.5,0.6,0.9,0.6s0.8-0.2,0.9-0.6l5.8-12.9l5.8,12.9c0,0,0.1,0.1,0.1,0.1C45.9,52.9,38.5,58,30,58z M17.7,26.7  c-0.4-0.4-0.4-1,0-1.4c0.8-0.9,1.8-1.7,2.8-2.4c0.5-0.3,1.1-0.2,1.4,0.3c0.3,0.5,0.2,1.1-0.3,1.4c-0.9,0.6-1.7,1.3-2.5,2.1  C18.7,27.1,18.1,27.1,17.7,26.7z M23.1,22.5c-0.2-0.5,0-1.1,0.6-1.3c2-0.8,4.2-1.2,6.4-1.2c0.6,0,1,0.4,1,1s-0.4,1-1,1  c-1.9,0-3.8,0.4-5.6,1.1C23.7,23.4,23.2,23,23.1,22.5z M45.8,43.4C43.2,49.8,37,54,30,54c-1.4,0-2.9-0.2-4.3-0.5  c-0.5-0.1-0.9-0.7-0.7-1.2c0.1-0.5,0.7-0.9,1.2-0.7c1.2,0.3,2.5,0.5,3.8,0.5c6.1,0,11.6-3.7,13.9-9.4c0.2-0.5,0.8-0.8,1.3-0.6  C45.7,42.3,46,42.9,45.8,43.4z"/>
  <text x="0" y="75" fill="#000000" font-size="5px" font-weight="bold" font-family="'Helvetica Neue', Helvetica, Arial-Unicode, Arial, Sans-serif">
    Created by Denis Shumaylov
  </text>
  <text x="0" y="80" fill="#000000" font-size="5px" font-weight="bold" font-family="'Helvetica Neue', Helvetica, Arial-Unicode, Arial, Sans-serif">
    from the Noun Project
  </text>
</svg>