<svg xmlns="http://www.w3.org/2000/svg" xmlns:xlink="http://www.w3.org/1999/xlink" version="1.1" viewBox="0 0 60 60" fill="currentcolor">
  <path d="M57,19h-6.3c-3.7,0-7.1,1.3-9.8,3.8C39.2,21.9,35,20,30,20s-9.2,1.9-10.8,2.8C16.5,20.3,13,19,9.3,19H3  c-0.3,0-0.7,0.2-0.9,0.5c-0.2,0.3-0.2,0.7,0,1c2.5,5,7.4,8.2,12.9,8.5c0.2,15.5,5.1,24.4,7.2,27.6C24.5,60,26.9,60,30,60  s5.5,0,7.8-3.4c2.1-3.2,7-12.1,7.2-27.6c5.5-0.3,10.4-3.5,12.9-8.5c0.2-0.3,0.1-0.7,0-1C57.7,19.2,57.3,19,57,19z M44,27  c-0.6,0-1,0.4-1,1c0,15.5-4.8,24.4-6.8,27.4C34.5,58,33,58,30,58s-4.5,0-6.2-2.6C21.8,52.4,17,43.5,17,28c0-0.6-0.5-1-1.1-1  c-4.6,0-8.7-2.3-11.2-6h4.6c3.4,0,6.6,1.3,9,3.7c0.3,0.3,0.8,0.4,1.2,0.2c0,0,4.9-2.9,10.5-2.9s10.4,2.8,10.5,2.9  c0.4,0.2,0.9,0.2,1.2-0.2c2.4-2.4,5.6-3.7,9-3.7h4.6C52.8,24.7,48.6,27,44,27z M29.4,40c-3,0.3-5.4,3-5.4,6.2V48c0,1.6,1,3,2.5,3.6  l2.5,1V56c0,0.6,0.4,1,1,1s1-0.4,1-1v-3.3l2.5-1c1.5-0.6,2.5-2,2.5-3.6v-2c0-1.7-0.7-3.3-2-4.4C32.8,40.4,31.1,39.9,29.4,40z M34,48  c0,0.8-0.5,1.5-1.2,1.8L30,50.9l-2.8-1.1c-0.7-0.3-1.2-1-1.2-1.8v-1.8c0-2.6,1.3-4.2,4-4.2c2.5,0,4,1.5,4,4V48z M24,33  c-1.5,0-2.3,0.7-2.3,0.7c-0.4,0.4-1,0.3-1.4-0.1c-0.4-0.4-0.3-1,0.1-1.4c0.1-0.1,1.5-1.3,3.7-1.3s3.5,1.1,3.7,1.3  c0.4,0.4,0.5,1,0.1,1.4c-0.4,0.4-1,0.4-1.4,0.1C26.3,33.7,25.4,33,24,33z M39.7,32.3c0.4,0.4,0.4,1,0.1,1.4  c-0.3,0.3-0.9,0.5-1.4,0.1c-0.1,0-0.9-0.7-2.3-0.7c-1.5,0-2.3,0.7-2.3,0.7c-0.4,0.4-1,0.3-1.4-0.1c-0.4-0.4-0.3-1,0.1-1.4  c0.1-0.1,1.5-1.3,3.7-1.3S39.5,32.1,39.7,32.3z M31,44c0,0.6-0.4,1-1,1c-0.6,0-1,0.4-1,1c0,0.6-0.4,1-1,1s-1-0.4-1-1  c0-1.7,1.3-3,3-3C30.6,43,31,43.4,31,44z M60,3v2.7C60,11.9,54.9,17,48.7,17H40c-1.1,0-2,0.9-2,2c0,0.6-0.4,1-1,1s-1-0.4-1-1  c0-2.2,1.8-4,4-4h8.7c5.1,0,9.3-4.2,9.3-9.3V3c0-0.6-0.4-1-1-1s-1,0.4-1,1v2.9c0,3.9-3.2,7.1-7.1,7.1H44c-0.6,0-1-0.4-1-1V7  c0-0.6-0.4-1-1-1s-1,0.4-1,1v5c0,0.6-0.4,1-1,1h-1c-2.8,0-5,2.2-5,5c0,0.6-0.4,1-1,1s-1-0.4-1-1c0-3.9,3.1-7,7-7V7c0-1.7,1.3-3,3-3  s3,1.3,3,3v4h3.9c2.8,0,5.1-2.3,5.1-5.1V3c0-1.7,1.3-3,3-3S60,1.3,60,3z M0,5.7V3c0-1.7,1.3-3,3-3s3,1.3,3,3v2.9  C6,8.7,8.3,11,11.1,11H15V7c0-1.7,1.3-3,3-3s3,1.3,3,3v4c3.9,0,7,3.1,7,7c0,0.6-0.4,1-1,1s-1-0.4-1-1c0-2.8-2.2-5-5-5h-1  c-0.6,0-1-0.4-1-1V7c0-0.6-0.4-1-1-1s-1,0.4-1,1v5c0,0.6-0.4,1-1,1h-4.9C7.2,13,4,9.8,4,5.9V3c0-0.6-0.4-1-1-1S2,2.4,2,3v2.7  c0,5.1,4.2,9.3,9.3,9.3H20c2.2,0,4,1.8,4,4c0,0.6-0.4,1-1,1s-1-0.4-1-1c0-1.1-0.9-2-2-2h-8.7C5.1,17,0,11.9,0,5.7z"/>
  <text x="0" y="75" fill="#000000" font-size="5px" font-weight="bold" font-family="'Helvetica Neue', Helvetica, Arial-Unicode, Arial, Sans-serif">
    Created by Denis Shumaylov
  </text>
  <text x="0" y="80" fill="#000000" font-size="5px" font-weight="bold" font-family="'Helvetica Neue', Helvetica, Arial-Unicode, Arial, Sans-serif">
    from the Noun Project
  </text>
</svg>