<svg xmlns="http://www.w3.org/2000/svg" xmlns:xlink="http://www.w3.org/1999/xlink" version="1.1" viewBox="0 0 60 60" fill="currentcolor">
  <path d="M56,26c0-8.8-7.2-16-16-16c-0.8,0-1.7,0-2.4,0.1C37.8,9.4,38,8.7,38,8c0-2.8-2.2-5-5-5  c-0.2,0-0.4,0-0.6,0.1C30.1,1,26,0,23,0c-3.1,0-9.4,0-11.8,4.4C10.4,4.3,9.6,4.5,9,5C8.3,5.5,7.8,6.3,7.6,7.2L7.4,8.6  C7.2,10,7.8,11.3,8.8,12l-1.4,2H6c-1.7,0-3,1.3-3,3c0,1.3,0.9,2.5,2.1,2.9C4.3,21.4,4,23.4,4,25c0,1.3,0.5,2.4,1,3.4  c0.5,1.1,1,2.2,1,3.6c0,0.6,0.4,1,1,1c1.4,0,2.9-0.2,4-0.5C9.1,37.2,8,42.4,8,47c0,0.3,0.2,0.6,0.4,0.8c1.3,0.8,3.3,1.5,5.6,2  c0,0.1,0,0.1,0,0.2v1.2l-2.4,0.4C9.5,51.9,8,53.7,8,55.8c0,2.3,1.9,4.2,4.2,4.2h10.4c2.4,0,4.4-1.8,4.7-4.2l0.5-4.9  c2.6-0.1,5.5-0.3,8.1-0.8l0.6,5c0.1,0.7-0.1,1.4-0.6,1.9S34.8,58,34.1,58H29c-0.6,0-1,0.4-1,1s0.4,1,1,1h5.1c1.3,0,2.5-0.5,3.3-1.5  c0.9-0.9,1.3-2.2,1.1-3.5L38,49.9c0,0,0,0,0-0.1c2.3-0.5,4.3-1.2,5.6-2c0.3-0.2,0.4-0.5,0.4-0.8c0-2.1,0-3.9-0.2-5.5  C50.8,39.8,56,33.5,56,26z M36,8c0,0.9-0.4,1.7-1,2.3c-1.1,0.1-2.2,0.3-3.2,0.5C30.7,10.2,30,9.2,30,8c0-1.7,1.3-3,3-3S36,6.3,36,8z   M23,2c2.3,0,5.2,0.6,7.2,1.9C28.9,4.8,28,6.3,28,8c0,1.3,0.5,2.4,1.3,3.3c-0.6,0.2-1.2,0.4-1.8,0.6l0.2-1.5  c0.2-1.6-0.8-3.1-2.3-3.7C25.8,6.4,26.3,6,27,6c0.6,0,1-0.4,1-1s-0.4-1-1-1c-2.2,0-3.4,1.8-3.8,2.4l-9.8-1.6C15.5,2,20.5,2,23,2z   M9.6,7.5c0.1-0.4,0.3-0.7,0.6-0.9c0.3-0.2,0.7-0.3,1-0.2l13.4,2.2c0.7,0.1,1.2,0.8,1.1,1.5l-0.4,2.7c-0.4,0.2-0.8,0.4-1.3,0.7  l-13.6-3c-0.7-0.2-1.2-0.8-1-1.6L9.6,7.5z M7.9,31c-0.2-1.3-0.7-2.4-1.1-3.4C6.4,26.6,6,25.8,6,25c0-2.3,0.7-4.5,1.6-5.2  c0.3-0.3,0.5-0.7,0.3-1.1S7.4,18,7,18H6c-0.6,0-1-0.4-1-1s0.4-1,1-1h2c0.3,0,0.6-0.2,0.8-0.4l1.9-2.9l11.1,2.5  c-1.8,1.5-3.3,3.4-4.4,5.7c-1.6,0.3-2.9,1.4-3.4,3c-0.3,1-0.3,2,0,2.9c-0.7,1.1-1.4,2.3-2,3.6C11.8,30.3,9.9,30.8,7.9,31z   M22.2,31.7l2.1-5.5C26.4,27,29.1,27,31,27c0.6,0,1-0.4,1-1s-0.4-1-1-1c-1.7,0-4.3,0-6.1-0.7l0.4-1.1c0-0.1,0-0.1,0.1-0.2H30  c4.5,0,5,4.2,5,6c0,4.4-1.3,6-5,6C26.4,35,23.3,32.7,22.2,31.7z M23.4,22.5L21.1,29c0,0,0,0,0,0c-0.1,0-0.7-0.1-3.8-1.6  c-1.2-0.5-1.7-1.9-1.3-3.1c0.3-1,1.3-1.7,2.4-1.7c0.2,0,0.4,0,0.6,0.1l0.9,0.2c0.3,0.1,0.7,0,0.9-0.3l1.1-1.1c0.3-0.3,0.6-0.3,1-0.2  C23.3,21.5,23.6,22,23.4,22.5z M12.3,42.7c0,0.2-0.2,0.3-0.4,0.3h-1.6c0.3-2,0.7-4,1.3-6h1.6c0.3,0,0.5,0.2,0.4,0.5L12.3,42.7z   M25.4,55.6C25.2,57,24.1,58,22.7,58H12.2C11,58,10,57,10,55.8c0-1.1,0.8-2,1.9-2.2l3.3-0.5c0.5-0.1,0.8-0.5,0.8-1v-1.8  c3.2,0.5,6.8,0.8,9.9,0.8L25.4,55.6z M42,46.4C38.9,48.1,31.6,49,26,49c-5.6,0-12.9-0.9-16-2.6c0-0.5,0.1-1,0.1-1.4h1.8  c0.8,0,1.5-0.4,2-1c0.7,0.2,5,1.2,11.6,1.2c3.2,0,6.5-0.2,9.7-0.5c0.5-0.1,0.9-0.6,0.9-1.1c-0.1-0.5-0.6-0.9-1.1-0.9  c-3.1,0.3-6.3,0.5-9.4,0.5c-5.9,0-9.9-0.9-10.9-1.1l0.8-3.1c1.7,0.4,5.5,1,10.7,1c0.6,0,1-0.4,1-1s-0.4-1-1-1c-5.2,0-8.9-0.7-10.4-1  c-0.1-0.4-0.2-0.7-0.5-1.1c-0.5-0.6-1.2-0.9-1.9-0.9h-0.9c0.8-2.3,1.9-4.5,3.1-6.5c0.3,0.3,0.7,0.6,1.1,0.8c2.3,1.1,3.4,1.5,3.9,1.6  l-0.3,0.8c-0.1,0.4,0,0.8,0.2,1.1c0.2,0.2,3.5,3.4,8,4.1c0,0,0,0,0,0c3,3.3,7.3,5.1,11.7,5.1c0.6,0,1.3,0,1.9-0.1  C42,43.2,42,44.7,42,46.4z M40,40c-3.2,0-6.3-1.1-8.7-3.1c5-0.6,5.7-4.5,5.7-7.9c0-4.9-2.7-8-7-8h-4.8c-0.3-0.7-0.9-1.3-1.7-1.6  c-1.1-0.4-2.2-0.1-3,0.7l-0.7,0.7l0,0C23,14.8,29.5,12,40,12c7.7,0,14,6.3,14,14S47.7,40,40,40z M12.7,21.3c0.4,0.4,0.4,1,0,1.4  C11.4,24,10.1,24,8,24c-0.6,0-1-0.4-1-1s0.4-1,1-1c2,0,2.6,0,3.3-0.7C11.7,20.9,12.3,20.9,12.7,21.3z"/>
  <text x="0" y="75" fill="#000000" font-size="5px" font-weight="bold" font-family="'Helvetica Neue', Helvetica, Arial-Unicode, Arial, Sans-serif">
    Created by Denis Shumaylov
  </text>
  <text x="0" y="80" fill="#000000" font-size="5px" font-weight="bold" font-family="'Helvetica Neue', Helvetica, Arial-Unicode, Arial, Sans-serif">
    from the Noun Project
  </text>
</svg>