<svg xmlns="http://www.w3.org/2000/svg" viewBox="0 0 60 60" fill="currentcolor"><path d="M56 26c0-8.8-7.2-16-16-16-.8 0-1.7 0-2.4.1.2-.7.4-1.4.4-2.1 0-2.8-2.2-5-5-5-.2 0-.4 0-.6.1C30.1 1 26 0 23 0c-3.1 0-9.4 0-11.8 4.4-.8-.1-1.6.1-2.2.6-.7.5-1.2 1.3-1.4 2.2l-.2 1.4c-.2 1.4.4 2.7 1.4 3.4l-1.4 2H6c-1.7 0-3 1.3-3 3 0 1.3.9 2.5 2.1 2.9C4.3 21.4 4 23.4 4 25c0 1.3.5 2.4 1 3.4.5 1.1 1 2.2 1 3.6 0 .6.4 1 1 1 1.4 0 2.9-.2 4-.5-1.9 4.7-3 9.9-3 14.5 0 .3.2.6.4.8 1.3.8 3.3 1.5 5.6 2v1.4l-2.4.4c-2.1.3-3.6 2.1-3.6 4.2 0 2.3 1.9 4.2 4.2 4.2h10.4c2.4 0 4.4-1.8 4.7-4.2l.5-4.9c2.6-.1 5.5-.3 8.1-.8l.6 5c.1.7-.1 1.4-.6 1.9s-1.1 1-1.8 1H29c-.6 0-1 .4-1 1s.4 1 1 1h5.1c1.3 0 2.5-.5 3.3-1.5.9-.9 1.3-2.2 1.1-3.5l-.5-5.1v-.1c2.3-.5 4.3-1.2 5.6-2 .3-.2.4-.5.4-.8 0-2.1 0-3.9-.2-5.5 7-1.7 12.2-8 12.2-15.5zM36 8c0 .9-.4 1.7-1 2.3-1.1.1-2.2.3-3.2.5C30.7 10.2 30 9.2 30 8c0-1.7 1.3-3 3-3s3 1.3 3 3zM23 2c2.3 0 5.2.6 7.2 1.9C28.9 4.8 28 6.3 28 8c0 1.3.5 2.4 1.3 3.3l-1.8.6.2-1.5c.2-1.6-.8-3.1-2.3-3.7.4-.3.9-.7 1.6-.7.6 0 1-.4 1-1s-.4-1-1-1c-2.2 0-3.4 1.8-3.8 2.4l-9.8-1.6C15.5 2 20.5 2 23 2zM9.6 7.5c.1-.4.3-.7.6-.9.3-.2.7-.3 1-.2l13.4 2.2c.7.1 1.2.8 1.1 1.5l-.4 2.7c-.4.2-.8.4-1.3.7l-13.6-3c-.7-.2-1.2-.8-1-1.6l.2-1.4zM7.9 31c-.2-1.3-.7-2.4-1.1-3.4-.4-1-.8-1.8-.8-2.6 0-2.3.7-4.5 1.6-5.2.3-.3.5-.7.3-1.1S7.4 18 7 18H6c-.6 0-1-.4-1-1s.4-1 1-1h2c.3 0 .6-.2.8-.4l1.9-2.9 11.1 2.5c-1.8 1.5-3.3 3.4-4.4 5.7-1.6.3-2.9 1.4-3.4 3-.3 1-.3 2 0 2.9-.7 1.1-1.4 2.3-2 3.6-.2-.1-2.1.4-4.1.6zm14.3.7l2.1-5.5c2.1.8 4.8.8 6.7.8.6 0 1-.4 1-1s-.4-1-1-1c-1.7 0-4.3 0-6.1-.7l.4-1.1c0-.1 0-.1.1-.2H30c4.5 0 5 4.2 5 6 0 4.4-1.3 6-5 6-3.6 0-6.7-2.3-7.8-3.3zm1.2-9.2L21.1 29c-.1 0-.7-.1-3.8-1.6-1.2-.5-1.7-1.9-1.3-3.1.3-1 1.3-1.7 2.4-1.7.2 0 .4 0 .6.1l.9.2c.3.1.7 0 .9-.3l1.1-1.1c.3-.3.6-.3 1-.2.4.2.7.7.5 1.2zM12.3 42.7c0 .2-.2.3-.4.3h-1.6c.3-2 .7-4 1.3-6h1.6c.3 0 .5.2.4.5l-1.3 5.2zm13.1 12.9c-.2 1.4-1.3 2.4-2.7 2.4H12.2C11 58 10 57 10 55.8c0-1.1.8-2 1.9-2.2l3.3-.5c.5-.1.8-.5.8-1v-1.8c3.2.5 6.8.8 9.9.8l-.5 4.5zM42 46.4C38.9 48.1 31.6 49 26 49s-12.9-.9-16-2.6c0-.5.1-1 .1-1.4h1.8c.8 0 1.5-.4 2-1 .7.2 5 1.2 11.6 1.2 3.2 0 6.5-.2 9.7-.5.5-.1.9-.6.9-1.1-.1-.5-.6-.9-1.1-.9-3.1.3-6.3.5-9.4.5-5.9 0-9.9-.9-10.9-1.1l.8-3.1c1.7.4 5.5 1 10.7 1 .6 0 1-.4 1-1s-.4-1-1-1c-5.2 0-8.9-.7-10.4-1-.1-.4-.2-.7-.5-1.1-.5-.6-1.2-.9-1.9-.9h-.9c.8-2.3 1.9-4.5 3.1-6.5.3.3.7.6 1.1.8 2.3 1.1 3.4 1.5 3.9 1.6l-.3.8c-.1.4 0 .8.2 1.1.2.2 3.5 3.4 8 4.1 3 3.3 7.3 5.1 11.7 5.1.6 0 1.3 0 1.9-.1-.1 1.3-.1 2.8-.1 4.5zM40 40c-3.2 0-6.3-1.1-8.7-3.1 5-.6 5.7-4.5 5.7-7.9 0-4.9-2.7-8-7-8h-4.8c-.3-.7-.9-1.3-1.7-1.6-1.1-.4-2.2-.1-3 .7l-.7.7C23 14.8 29.5 12 40 12c7.7 0 14 6.3 14 14s-6.3 14-14 14zM12.7 21.3c.4.4.4 1 0 1.4C11.4 24 10.1 24 8 24c-.6 0-1-.4-1-1s.4-1 1-1c2 0 2.6 0 3.3-.7.4-.4 1-.4 1.4 0z"/><text y="75" fill="#000" font-size="5" font-weight="bold" font-family="'Helvetica Neue', Helvetica, Arial-Unicode, Arial, Sans-serif">Created by Denis Shumaylov</text><text y="80" fill="#000" font-size="5" font-weight="bold" font-family="'Helvetica Neue', Helvetica, Arial-Unicode, Arial, Sans-serif">from the Noun Project</text></svg>