<svg xmlns="http://www.w3.org/2000/svg" viewBox="0 0 60 60" fill="currentcolor"><path d="M44.6 36.8c.4.1.9.2 1.4.2 1.1 0 2.1-.4 2.7-1.1.9-.9 1.3-2.3 1.3-4.1-.1-2.9-2.1-4.8-5.1-4.8H44c-2.2 0-4.2 1.4-5 3.5l-2.8 7.7c-.6 1.7-2.2 2.8-4 2.8-1.6 0-3.1-1-3.8-2.4L24.8 31c-1.4-3-4.4-4.9-7.8-4.9h-.7c-1.4 0-2.5-1.1-2.5-2.5C14 21 12 19 9.5 19H2.7C1.2 19 0 20.2 0 21.7c0 1.1.7 2.1 1.8 2.6C3.3 24.8 5 25.9 5 28c0 1-.4 4-2.2 12.2-.7 3.1 0 6.4 2 8.9S9.8 53 13 53h1c0 2-1.1 4.1-1.6 5H8c-3.6 0-6.4-1.8-6.4-1.8-.5-.3-1.1-.2-1.4.3s-.2 1.1.3 1.4C.6 57.9 3.7 60 8 60h32c8.6 0 20-1.3 20-13 0-4.4-2.6-7-7-7-3.7 0-5 2.6-5 5 0 2.5 1.5 4 4 4 2 0 3-1.5 3-3 0-1.2-.8-2-2-2-.6 0-1 .4-1 1s.4 1 1 1c0 .3-.1 1-1 1-1.3 0-2-.7-2-2 0-1.4.5-3 3-3 2.3 0 5 .9 5 5 0 7.7-5.4 11-18 11h-2.4c-.5-.9-1.6-3-1.6-5h5.4c1.8 0 3.5-1.1 4.2-2.8s.4-3.5-.9-4.8c-1.2-1.2-2.4-4-2-6.1.2-1.1 1-2 1.9-2.5zM13 51c-2.6 0-5-1.2-6.6-3.2s-2.2-4.6-1.7-7.2c.8-3.6 1.4-6.4 1.8-8.6H17c.8 0 1.6.5 2 1.3l3.6 7.8c1.7 3.6 5.4 6 9.4 6h4c.6 0 1-.4 1-1s-.4-1-1-1h-4.1c-3.2 0-6.2-1.9-7.5-4.8l-3.6-7.8c-.7-1.6-2.2-2.5-3.8-2.5H6.8c.1-.9.2-1.5.2-2 0-2.5-1.6-4.5-4.5-5.6-.3-.1-.5-.4-.5-.7 0-.4.3-.7.7-.7h6.8c1.4 0 2.5 1.1 2.5 2.5 0 2.5 2 4.5 4.5 4.5h.7c2.5 0 4.9 1.5 6 3.8l3.6 7.6c1 2.2 3.2 3.6 5.6 3.6 2.6 0 5-1.7 5.9-4.1l2.8-7.7c.5-1.3 1.7-2.2 3.1-2.2h.9c1.9 0 3 1.1 3.1 2.9 0 1.2-.2 2.2-.7 2.7-.5.2-.9.4-1.5.4-1 0-1.5-.5-1.5-1 0-.4.1-.9.7-1 .5-.1.9-.7.7-1.2-.1-.5-.7-.9-1.2-.7-1.5.4-2.4 1.7-2.3 3.2 0 .4.2.9.4 1.3-1.2.8-1.9 2-2.2 3.5-.5 2.8 1 6.2 2.6 7.8.7.7.9 1.7.5 2.6-.3.8-1.1 1.6-2.4 1.6L13 51zm1.7 7c.6-1.3 1.3-3.1 1.3-5h8v5h-9.3zM26 53h8c0 1.9.7 3.7 1.3 5H26v-5zM5 16.8c0-.2 1.1-4.3 4.3-7.5.2-.2.4-.3.7-.3h6c.3 0 .5.1.7.3 1.1 1.1 2 2.3 2.8 3.8.5 0 1-.1 1.5-.1 5.1 0 10 2.2 13.4 6h.6c3.9 0 7.6 2.1 9.6 5.6.3.5.1 1.1-.4 1.4-.4.2-1 .2-1.4-.4-1.6-2.9-4.6-4.6-7.8-4.6h-.9c-3.2.4-5.4 1.7-6.4 2.7-.4.4-1 .4-1.4 0s-.4-1 0-1.4c1-1 3-2.2 5.7-2.9-3-2.8-6.9-4.4-11-4.4-2.3 0-4.5.5-6.6 1.4-.5.2-1.1 0-1.3-.5s0-1.1.5-1.3c1.2-.5 2.5-.9 3.8-1.2-.5-.9-1.1-1.7-1.8-2.4h-5.2C7.9 13.7 7 17.2 7 17.2c-.1.6-.7.9-1.2.7-.6-.1-.9-.6-.8-1.1zM17 7c0 .6-.4 1-1 1h-6c-.6 0-1-.4-1-1s.4-1 1-1h6c.6 0 1 .4 1 1zM8.1 1.3C7.9 1 8 .7 8.2.4c.2-.2.5-.4.8-.4 4.1 0 8.1 1 8.2 1 .3.1.5.3.7.6.1.3.1.6 0 .9l-1 2c-.2.5-.8.7-1.3.4-.5-.2-.7-.8-.4-1.3l.4-.8c-1.2-.2-3.1-.6-5.1-.7l.5 1.6c.2.5-.1 1.1-.6 1.3-.6.1-1.2-.1-1.3-.7l-1-3z"/><text y="75" fill="#000" font-size="5" font-weight="bold" font-family="'Helvetica Neue', Helvetica, Arial-Unicode, Arial, Sans-serif">Created by Denis Shumaylov</text><text y="80" fill="#000" font-size="5" font-weight="bold" font-family="'Helvetica Neue', Helvetica, Arial-Unicode, Arial, Sans-serif">from the Noun Project</text></svg>