<svg xmlns="http://www.w3.org/2000/svg" viewBox="0 -9 60 41" fill="currentcolor"><path d="M44.6 17.8a5.9 5.9 0 001.4.2 3.53 3.53 0 002.7-1.1 5.62 5.62 0 001.3-4.1A4.76 4.76 0 0044.9 8H44a5.39 5.39 0 00-5 3.5l-2.8 7.7a4.21 4.21 0 01-4 2.8 4.36 4.36 0 01-3.8-2.4L24.8 12A8.52 8.52 0 0017 7.1h-.7a2.48 2.48 0 01-2.5-2.5A4.23 4.23 0 009.5 0H2.7A2.69 2.69 0 000 2.7a2.91 2.91 0 001.8 2.6C3.3 5.8 5 6.9 5 9c0 1-.4 4-2.2 12.2a10.55 10.55 0 002 8.9A10.43 10.43 0 0013 34h1a11.29 11.29 0 01-1.6 5H8a13.05 13.05 0 01-6.4-1.8 1 1 0 00-1.4.3 1 1 0 00.3 1.4A15.43 15.43 0 008 41h32c8.6 0 20-1.3 20-13 0-4.4-2.6-7-7-7-3.7 0-5 2.6-5 5a3.68 3.68 0 004 4 2.88 2.88 0 003-3 1.89 1.89 0 00-2-2 1 1 0 000 2 .92.92 0 01-1 1 1.8 1.8 0 01-2-2 2.67 2.67 0 013-3c2.3 0 5 .9 5 5 0 7.7-5.4 11-18 11h-2.4a11.29 11.29 0 01-1.6-5h5.4a4.57 4.57 0 004.2-2.8 4.28 4.28 0 00-.9-4.8 8 8 0 01-2-6.1 3.74 3.74 0 011.9-2.5zM13 32a8.44 8.44 0 01-6.6-3.2 8.77 8.77 0 01-1.7-7.2c.8-3.6 1.4-6.4 1.8-8.6H17a2.3 2.3 0 012 1.3l3.6 7.8a10.5 10.5 0 009.4 6h4a1 1 0 000-2h-4.1a8.27 8.27 0 01-7.5-4.8l-3.6-7.8A4.11 4.11 0 0017 11H6.8c.1-.9.2-1.5.2-2 0-2.5-1.6-4.5-4.5-5.6a.75.75 0 01-.5-.7.68.68 0 01.7-.7h6.8A2.48 2.48 0 0112 4.5 4.48 4.48 0 0016.5 9h.7a6.75 6.75 0 016 3.8l3.6 7.6a6.15 6.15 0 005.6 3.6 6.4 6.4 0 005.9-4.1l2.8-7.7a3.34 3.34 0 013.1-2.2h.9a2.84 2.84 0 013.1 2.9 4 4 0 01-.7 2.7 3.71 3.71 0 01-1.5.4c-1 0-1.5-.5-1.5-1s.1-.9.7-1a1 1 0 10-.5-1.9 3 3 0 00-2.3 3.2 3.26 3.26 0 00.4 1.3 5.23 5.23 0 00-2.2 3.5 9.93 9.93 0 002.6 7.8 2.3 2.3 0 01.5 2.6 2.48 2.48 0 01-2.4 1.6H13zm1.7 7a12.25 12.25 0 001.3-5h8v5zM26 34h8a12.25 12.25 0 001.3 5H26z"/><text y="75" fill="#000" font-size="5" font-weight="bold" font-family="'Helvetica Neue', Helvetica, Arial-Unicode, Arial, Sans-serif">Created by Denis Shumaylov</text><text y="80" fill="#000" font-size="5" font-weight="bold" font-family="'Helvetica Neue', Helvetica, Arial-Unicode, Arial, Sans-serif">from the Noun Project</text></svg>