<svg xmlns="http://www.w3.org/2000/svg" xmlns:xlink="http://www.w3.org/1999/xlink" version="1.1" viewBox="0 0 60 60" fill="currentcolor">
  <path d="M44.6,36.8C45,36.9,45.5,37,46,37c1.1,0,2.1-0.4,2.7-1.1c0.9-0.9,1.3-2.3,1.3-4.1c-0.1-2.9-2.1-4.8-5.1-4.8H44  c-2.2,0-4.2,1.4-5,3.5l-2.8,7.7c-0.6,1.7-2.2,2.8-4,2.8c-1.6,0-3.1-1-3.8-2.4L24.8,31c-1.4-3-4.4-4.9-7.8-4.9h-0.7  c-1.4,0-2.5-1.1-2.5-2.5C14,21,12,19,9.5,19H2.7C1.2,19,0,20.2,0,21.7c0,1.1,0.7,2.1,1.8,2.6C3.3,24.8,5,25.9,5,28  c0,1-0.4,4-2.2,12.2c-0.7,3.1,0,6.4,2,8.9c2,2.5,5,3.9,8.2,3.9h1c0,2-1.1,4.1-1.6,5H8c-3.6,0-6.4-1.8-6.4-1.8  c-0.5-0.3-1.1-0.2-1.4,0.3S0,57.6,0.5,57.9C0.6,57.9,3.7,60,8,60h32c8.6,0,20-1.3,20-13c0-4.4-2.6-7-7-7c-3.7,0-5,2.6-5,5  c0,2.5,1.5,4,4,4c2,0,3-1.5,3-3c0-1.2-0.8-2-2-2c-0.6,0-1,0.4-1,1s0.4,1,1,1c0,0.3-0.1,1-1,1c-1.3,0-2-0.7-2-2c0-1.4,0.5-3,3-3  c2.3,0,5,0.9,5,5c0,7.7-5.4,11-18,11h-2.4c-0.5-0.9-1.6-3-1.6-5h5.4c1.8,0,3.5-1.1,4.2-2.8s0.4-3.5-0.9-4.8c-1.2-1.2-2.4-4-2-6.1  C42.9,38.2,43.7,37.3,44.6,36.8z M13,51c-2.6,0-5-1.2-6.6-3.2s-2.2-4.6-1.7-7.2C5.5,37,6.1,34.2,6.5,32H17c0.8,0,1.6,0.5,2,1.3  l3.6,7.8c1.7,3.6,5.4,6,9.4,6h4c0.6,0,1-0.4,1-1s-0.4-1-1-1h-4.1c-3.2,0-6.2-1.9-7.5-4.8l-3.6-7.8C20.1,30.9,18.6,30,17,30H6.8  C6.9,29.1,7,28.5,7,28c0-2.5-1.6-4.5-4.5-5.6C2.2,22.3,2,22,2,21.7C2,21.3,2.3,21,2.7,21h6.8c1.4,0,2.5,1.1,2.5,2.5  c0,2.5,2,4.5,4.5,4.5h0.7c2.5,0,4.9,1.5,6,3.8l3.6,7.6c1,2.2,3.2,3.6,5.6,3.6c2.6,0,5-1.7,5.9-4.1l2.8-7.7c0.5-1.3,1.7-2.2,3.1-2.2  h0.9c1.9,0,3,1.1,3.1,2.9c0,1.2-0.2,2.2-0.7,2.7C47,34.8,46.6,35,46,35c-1,0-1.5-0.5-1.5-1c0-0.4,0.1-0.9,0.7-1  c0.5-0.1,0.9-0.7,0.7-1.2c-0.1-0.5-0.7-0.9-1.2-0.7c-1.5,0.4-2.4,1.7-2.3,3.2c0,0.4,0.2,0.9,0.4,1.3c-1.2,0.8-1.9,2-2.2,3.5  c-0.5,2.8,1,6.2,2.6,7.8c0.7,0.7,0.9,1.7,0.5,2.6c-0.3,0.8-1.1,1.6-2.4,1.6L13,51L13,51z M14.7,58c0.6-1.3,1.3-3.1,1.3-5h8v5H14.7z   M26,53h8c0,1.9,0.7,3.7,1.3,5H26V53z M5,16.8c0-0.2,1.1-4.3,4.3-7.5C9.5,9.1,9.7,9,10,9h6c0.3,0,0.5,0.1,0.7,0.3  c1.1,1.1,2,2.3,2.8,3.8c0.5,0,1-0.1,1.5-0.1c5.1,0,10,2.2,13.4,6c0.2,0,0.4,0,0.6,0c3.9,0,7.6,2.1,9.6,5.6c0.3,0.5,0.1,1.1-0.4,1.4  c-0.4,0.2-1,0.2-1.4-0.4C41.2,22.7,38.2,21,35,21c-0.3,0-0.6,0-0.9,0c-3.2,0.4-5.4,1.7-6.4,2.7c-0.4,0.4-1,0.4-1.4,0s-0.4-1,0-1.4  c1-1,3-2.2,5.7-2.9c-3-2.8-6.9-4.4-11-4.4c-2.3,0-4.5,0.5-6.6,1.4c-0.5,0.2-1.1,0-1.3-0.5s0-1.1,0.5-1.3c1.2-0.5,2.5-0.9,3.8-1.2  c-0.5-0.9-1.1-1.7-1.8-2.4h-5.2C7.9,13.7,7,17.2,7,17.2c-0.1,0.6-0.7,0.9-1.2,0.7C5.2,17.8,4.9,17.3,5,16.8z M17,7c0,0.6-0.4,1-1,1  h-6C9.4,8,9,7.6,9,7s0.4-1,1-1h6C16.6,6,17,6.4,17,7z M8.1,1.3C7.9,1,8,0.7,8.2,0.4C8.4,0.2,8.7,0,9,0c4.1,0,8.1,1,8.2,1  c0.3,0.1,0.5,0.3,0.7,0.6c0.1,0.3,0.1,0.6,0,0.9l-1,2c-0.2,0.5-0.8,0.7-1.3,0.4c-0.5-0.2-0.7-0.8-0.4-1.3l0.4-0.8  c-1.2-0.2-3.1-0.6-5.1-0.7L11,3.7c0.2,0.5-0.1,1.1-0.6,1.3C9.8,5.1,9.2,4.9,9.1,4.3L8.1,1.3z"/>
  <text x="0" y="75" fill="#000000" font-size="5px" font-weight="bold" font-family="'Helvetica Neue', Helvetica, Arial-Unicode, Arial, Sans-serif">
    Created by Denis Shumaylov
  </text>
  <text x="0" y="80" fill="#000000" font-size="5px" font-weight="bold" font-family="'Helvetica Neue', Helvetica, Arial-Unicode, Arial, Sans-serif">
    from the Noun Project
  </text>
</svg>