<svg xmlns="http://www.w3.org/2000/svg" xmlns:xlink="http://www.w3.org/1999/xlink" version="1.1" viewBox="0 -9 60 41" fill="currentcolor">
  <path d="M44.6,17.8A5.9,5.9,0,0,0,46,18a3.53,3.53,0,0,0,2.7-1.1A5.62,5.62,0,0,0,50,12.8,4.76,4.76,0,0,0,44.9,8H44a5.39,5.39,0,0,0-5,3.5l-2.8,7.7a4.21,4.21,0,0,1-4,2.8,4.36,4.36,0,0,1-3.8-2.4L24.8,12A8.52,8.52,0,0,0,17,7.1h-.7a2.48,2.48,0,0,1-2.5-2.5A4.23,4.23,0,0,0,9.5,0H2.7A2.69,2.69,0,0,0,0,2.7,2.91,2.91,0,0,0,1.8,5.3C3.3,5.8,5,6.9,5,9c0,1-.4,4-2.2,12.2a10.55,10.55,0,0,0,2,8.9A10.43,10.43,0,0,0,13,34h1a11.29,11.29,0,0,1-1.6,5H8a13.05,13.05,0,0,1-6.4-1.8,1,1,0,0,0-1.4.3,1,1,0,0,0,.3,1.4A15.43,15.43,0,0,0,8,41H40c8.6,0,20-1.3,20-13,0-4.4-2.6-7-7-7-3.7,0-5,2.6-5,5a3.68,3.68,0,0,0,4,4,2.88,2.88,0,0,0,3-3,1.89,1.89,0,0,0-2-2,1,1,0,0,0,0,2,.92.92,0,0,1-1,1,1.8,1.8,0,0,1-2-2,2.67,2.67,0,0,1,3-3c2.3,0,5,.9,5,5,0,7.7-5.4,11-18,11H37.6A11.29,11.29,0,0,1,36,34h5.4a4.57,4.57,0,0,0,4.2-2.8,4.28,4.28,0,0,0-.9-4.8,8,8,0,0,1-2-6.1A3.74,3.74,0,0,1,44.6,17.8ZM13,32a8.44,8.44,0,0,1-6.6-3.2,8.77,8.77,0,0,1-1.7-7.2C5.5,18,6.1,15.2,6.5,13H17a2.3,2.3,0,0,1,2,1.3l3.6,7.8a10.5,10.5,0,0,0,9.4,6h4a1,1,0,0,0,0-2H31.9a8.27,8.27,0,0,1-7.5-4.8l-3.6-7.8A4.11,4.11,0,0,0,17,11H6.8c.1-.9.2-1.5.2-2C7,6.5,5.4,4.5,2.5,3.4A.75.75,0,0,1,2,2.7.68.68,0,0,1,2.7,2H9.5A2.48,2.48,0,0,1,12,4.5,4.48,4.48,0,0,0,16.5,9h.7a6.75,6.75,0,0,1,6,3.8l3.6,7.6A6.15,6.15,0,0,0,32.4,24a6.4,6.4,0,0,0,5.9-4.1l2.8-7.7A3.34,3.34,0,0,1,44.2,10h.9a2.84,2.84,0,0,1,3.1,2.9,4,4,0,0,1-.7,2.7A3.71,3.71,0,0,1,46,16c-1,0-1.5-.5-1.5-1s.1-.9.7-1a1,1,0,1,0-.5-1.9,3,3,0,0,0-2.3,3.2,3.26,3.26,0,0,0,.4,1.3,5.23,5.23,0,0,0-2.2,3.5,9.93,9.93,0,0,0,2.6,7.8,2.3,2.3,0,0,1,.5,2.6,2.48,2.48,0,0,1-2.4,1.6H13Zm1.7,7A12.25,12.25,0,0,0,16,34h8v5ZM26,34h8a12.25,12.25,0,0,0,1.3,5H26Z"/>
  <text x="0" y="75" fill="#000000" font-size="5px" font-weight="bold" font-family="'Helvetica Neue', Helvetica, Arial-Unicode, Arial, Sans-serif">
    Created by Denis Shumaylov
  </text>
  <text x="0" y="80" fill="#000000" font-size="5px" font-weight="bold" font-family="'Helvetica Neue', Helvetica, Arial-Unicode, Arial, Sans-serif">
    from the Noun Project
  </text>
</svg>
