<svg xmlns="http://www.w3.org/2000/svg" viewBox="0 0 60 60" fill="currentcolor"><path d="M27 4.1C27 1.9 25.2 0 23 0s-4 1.9-4 4.2c-2.5.1-5.3.4-7.7.6C8.8 4.9 7 6.9 7 9.4v2.3c0 1.6.8 3 2 3.8V50c0 5.5 4.5 10 10 10h24.7c5.1 0 9.3-4.2 9.3-9.3 0-3.8-2.4-7.3-6-8.7l-8.1-3c-1.1-.4-1.9-1.5-1.9-2.7V16.6c1.2-.9 2-2.3 2-3.8V9.4c0-2.4-1.8-4.5-4.3-4.7-2.3-.2-5.1-.4-7.7-.6zM25 4h-2c-.6 0-1.2 0-2 .1 0-1.2.9-2.1 2-2.1s2 .9 2 2zM11 19v-2.7c3.7.3 8.9.7 12 .7.6 0 1-.4 1-1s-.4-1-1-1c-3.1 0-8-.4-11.6-.7C10 14.2 9 13.1 9 11.7V9.4c0-1.4 1.1-2.6 2.5-2.7C14.6 6.4 20.4 6 23 6c3.1 0 8 .4 11.6.7C35.9 6.8 37 8 37 9.4v3.4c0 1-.6 1.9-1.4 2.3-.4.2-.6.5-.6.9v3c-.1 0-6.1 1-11 1s-12.9-1-13-1zm24 16c-.1 0-6.1 1-11 1s-12.9-1-13-1V25c1 .1 8.3 1 13 1 4.6 0 10-.8 11-1v10zm0-12c-.1 0-6.1 1-11 1s-12.9-1-13-1v-2c1 .1 8.3 1 13 1 4.6 0 10-.8 11-1v2zM11 50v-1.9c5 .5 9 4.8 9 9.9h-1c-4.4 0-8-3.6-8-8zm0-3.9v-9c1 .1 8.3 1 13 1 4.7 0 10.2-.9 11.1-1 .3 1.7 1.4 3.3 3.1 3.9l5.6 2.1c-2.6 3.8-3.7 9.3-2.9 15H22c0-6.4-4.9-11.5-11-12zM43.7 58h-.8c-.7-5.5.3-10.8 2.8-14.3l.6.2c2.8 1.1 4.7 3.8 4.7 6.8 0 4-3.3 7.3-7.3 7.3zm-26-29.3L16.4 30l1.3 1.3c.4.4.4 1 0 1.4-.4.4-1.1.4-1.4 0L15 31.4l-1.3 1.3c-.4.4-1 .4-1.4 0-.4-.4-.4-1 0-1.4l1.3-1.3-1.3-1.3c-.4-.4-.4-1 0-1.4s1-.4 1.4 0l1.3 1.3 1.3-1.3c.4-.4 1-.4 1.4 0s.4 1 0 1.4zm8 1L24.4 31l1.3 1.3c.4.4.4 1 0 1.4-.4.4-1.1.4-1.4 0L23 32.4l-1.3 1.3c-.4.4-1 .4-1.4 0-.4-.4-.4-1 0-1.4l1.3-1.3-1.3-1.3c-.4-.4-.4-1 0-1.4s1-.4 1.4 0l1.3 1.3 1.3-1.3c.4-.4 1-.4 1.4 0s.4 1 0 1.4zm8-1L32.4 30l1.3 1.3c.4.4.4 1 0 1.4-.4.4-1.1.4-1.4 0L31 31.4l-1.3 1.3c-.4.4-1 .4-1.4 0-.4-.4-.4-1 0-1.4l1.3-1.3-1.3-1.3c-.4-.4-.4-1 0-1.4s1-.4 1.4 0l1.3 1.3 1.3-1.3c.4-.4 1-.4 1.4 0s.4 1 0 1.4z"/><text y="75" fill="#000" font-size="5" font-weight="bold" font-family="'Helvetica Neue', Helvetica, Arial-Unicode, Arial, Sans-serif">Created by Denis Shumaylov</text><text y="80" fill="#000" font-size="5" font-weight="bold" font-family="'Helvetica Neue', Helvetica, Arial-Unicode, Arial, Sans-serif">from the Noun Project</text></svg>