<svg xmlns="http://www.w3.org/2000/svg" xmlns:xlink="http://www.w3.org/1999/xlink" version="1.1" viewBox="0 0 60 60" fill="currentcolor">
  <path d="M27,4.1C27,1.9,25.2,0,23,0s-4,1.9-4,4.2c-2.5,0.1-5.3,0.4-7.7,0.6C8.8,4.9,7,6.9,7,9.4v2.3  c0,1.6,0.8,3,2,3.8L9,50c0,5.5,4.5,10,10,10h24.7c5.1,0,9.3-4.2,9.3-9.3c0-3.8-2.4-7.3-6-8.7l-8.1-3c-1.1-0.4-1.9-1.5-1.9-2.7V16.6  c1.2-0.9,2-2.3,2-3.8V9.4c0-2.4-1.8-4.5-4.3-4.7C32.4,4.5,29.6,4.3,27,4.1z M25,4c-0.7,0-1.4,0-2,0c-0.6,0-1.2,0-2,0.1  C21,2.9,21.9,2,23,2S25,2.9,25,4z M11,19v-2.7c3.7,0.3,8.9,0.7,12,0.7c0.6,0,1-0.4,1-1s-0.4-1-1-1c-3.1,0-8-0.4-11.6-0.7  C10,14.2,9,13.1,9,11.7V9.4c0-1.4,1.1-2.6,2.5-2.7C14.6,6.4,20.4,6,23,6c3.1,0,8,0.4,11.6,0.7C35.9,6.8,37,8,37,9.4v3.4  c0,1-0.6,1.9-1.4,2.3C35.2,15.3,35,15.6,35,16v3c-0.1,0-6.1,1-11,1C19.1,20,11.1,19,11,19z M35,35c-0.1,0-6.1,1-11,1  c-4.9,0-12.9-1-13-1V25c1,0.1,8.3,1,13,1c4.6,0,10-0.8,11-1V35z M35,23c-0.1,0-6.1,1-11,1c-4.9,0-12.9-1-13-1v-2c1,0.1,8.3,1,13,1  c4.6,0,10-0.8,11-1V23z M11,50v-1.9c5,0.5,9,4.8,9,9.9h-1C14.6,58,11,54.4,11,50z M11,46.1v-9c1,0.1,8.3,1,13,1  c4.7,0,10.2-0.9,11.1-1c0.3,1.7,1.4,3.3,3.1,3.9l5.6,2.1c-2.6,3.8-3.7,9.3-2.9,15H22C22,51.7,17.1,46.6,11,46.1z M43.7,58h-0.8  c-0.7-5.5,0.3-10.8,2.8-14.3l0.6,0.2c2.8,1.1,4.7,3.8,4.7,6.8C51,54.7,47.7,58,43.7,58z M17.7,28.7L16.4,30l1.3,1.3  c0.4,0.4,0.4,1,0,1.4c-0.4,0.4-1.1,0.4-1.4,0L15,31.4l-1.3,1.3c-0.4,0.4-1,0.4-1.4,0c-0.4-0.4-0.4-1,0-1.4l1.3-1.3l-1.3-1.3  c-0.4-0.4-0.4-1,0-1.4s1-0.4,1.4,0l1.3,1.3l1.3-1.3c0.4-0.4,1-0.4,1.4,0S18.1,28.3,17.7,28.7z M25.7,29.7L24.4,31l1.3,1.3  c0.4,0.4,0.4,1,0,1.4c-0.4,0.4-1.1,0.4-1.4,0L23,32.4l-1.3,1.3c-0.4,0.4-1,0.4-1.4,0c-0.4-0.4-0.4-1,0-1.4l1.3-1.3l-1.3-1.3  c-0.4-0.4-0.4-1,0-1.4s1-0.4,1.4,0l1.3,1.3l1.3-1.3c0.4-0.4,1-0.4,1.4,0S26.1,29.3,25.7,29.7z M33.7,28.7L32.4,30l1.3,1.3  c0.4,0.4,0.4,1,0,1.4c-0.4,0.4-1.1,0.4-1.4,0L31,31.4l-1.3,1.3c-0.4,0.4-1,0.4-1.4,0c-0.4-0.4-0.4-1,0-1.4l1.3-1.3l-1.3-1.3  c-0.4-0.4-0.4-1,0-1.4s1-0.4,1.4,0l1.3,1.3l1.3-1.3c0.4-0.4,1-0.4,1.4,0S34.1,28.3,33.7,28.7z"/>
  <text x="0" y="75" fill="#000000" font-size="5px" font-weight="bold" font-family="'Helvetica Neue', Helvetica, Arial-Unicode, Arial, Sans-serif">
    Created by Denis Shumaylov
  </text>
  <text x="0" y="80" fill="#000000" font-size="5px" font-weight="bold" font-family="'Helvetica Neue', Helvetica, Arial-Unicode, Arial, Sans-serif">
    from the Noun Project
  </text>
</svg>