<svg xmlns="http://www.w3.org/2000/svg" xmlns:xlink="http://www.w3.org/1999/xlink" version="1.1" viewBox="0 0 60 60" fill="currentcolor">
  <path d="M24.8,10l-0.1,4.2c0,0.3,0.1,0.6,0.4,0.8c0.3,0.2,0.6,0.2,0.9,0.1l4-1.4l4,1.4c0.3,0.1,0.7,0,0.9-0.1  c0.3-0.2,0.4-0.5,0.4-0.8L35.2,10l2.6-3.4C38,6.4,38.1,6.1,38,5.8c-0.1-0.3-0.4-0.6-0.7-0.6l-4.1-1.2l-2.4-3.5  c-0.4-0.5-1.3-0.5-1.6,0l-2.4,3.5l-4.1,1.2c-0.3,0.1-0.6,0.3-0.7,0.6c-0.1,0.3,0,0.7,0.2,0.9L24.8,10z M27.7,5.7  c0.2-0.1,0.4-0.2,0.5-0.4L30,2.8l1.8,2.6c0.1,0.2,0.3,0.3,0.5,0.4l3,0.9l-1.9,2.5c-0.1,0.2-0.2,0.4-0.2,0.6l0.1,3.1l-3-1  c-0.2-0.1-0.5-0.1-0.7,0l-3,1l0.1-3.1c0-0.2-0.1-0.5-0.2-0.6l-1.9-2.5L27.7,5.7z M51.6,49.1l-9-13.5c0.5-0.3,0.9-0.7,1.2-1.2  c0.5-1,0.5-2.3-0.2-3.2l-5-7.5c0.5-0.3,0.9-0.7,1.2-1.2c0.5-1,0.5-2.3-0.2-3.2l-1.8-2.7c-0.3-0.5-0.9-0.6-1.4-0.3  c-0.5,0.3-0.6,0.9-0.3,1.4l1.8,2.7c0.2,0.4,0.3,0.8,0.1,1.2c-0.2,0.4-0.6,0.6-1,0.6c-0.3,0-0.5,0.1-0.7,0.3  c-0.2,0.2-0.4,0.4-0.6,0.7c-2.8,2.8-6.5,6.6-16.1,7l4.3-6.4c0.2-0.3,0.2-0.7,0-1C23.7,22.2,23.4,22,23,22c-0.4,0-0.8-0.2-1-0.6  c-0.2-0.4-0.2-0.8,0.1-1.2l1.8-2.7c0.3-0.5,0.2-1.1-0.3-1.4c-0.5-0.3-1.1-0.2-1.4,0.3l-1.8,2.7c-0.6,1-0.7,2.2-0.2,3.2  c0.3,0.5,0.7,0.9,1.2,1.2l-5,7.5c-0.6,1-0.7,2.2-0.2,3.2c0.3,0.5,0.7,0.9,1.2,1.2l-9,13.5c-0.6,1-0.7,2.2-0.2,3.2  c0.5,1,1.6,1.7,2.8,1.7h15v5c0,0.6,0.4,1,1,1h6c0.6,0,1-0.4,1-1v-5h15c1.2,0,2.2-0.6,2.8-1.7C52.3,51.3,52.3,50.1,51.6,49.1z M40,44  c1.1,0,2,0.9,2,2s-0.9,2-2,2s-2-0.9-2-2S38.9,44,40,44z M11.5,48l1.3-2c0,0,0.1,0,0.1,0c15.3,0,22.8-4.6,27.8-9.4l1.3,1.9  C36.5,44,29,47.8,11.5,48z M36.9,24.6l1.3,1.9C33.8,30.7,29.6,34,19,34c-0.4,0-0.8-0.2-1-0.6c-0.2-0.4-0.2-0.8,0.1-1.2l0.2-0.2  C29.4,31.9,33.9,27.6,36.9,24.6z M26,38c0,1.1-0.9,2-2,2s-2-0.9-2-2s0.9-2,2-2S26,36.9,26,38z M19.5,36c0.3,0,0.7,0,1,0  c-0.4,0.6-0.6,1.3-0.6,2c0,2.2,1.8,4,4,4s4-1.8,4-4c0-1.1-0.4-2-1.1-2.8c5.8-1.3,9.2-3.9,12.4-7.1l2.7,4.1c0.2,0.4,0.3,0.8,0.1,1.2  c-0.2,0.4-0.6,0.6-1,0.6c-0.3,0-0.5,0.1-0.7,0.3C35.6,39,28.9,43.7,14.2,44L19.5,36z M32,58h-4v-4h4V58z M50,51.4  c-0.2,0.4-0.6,0.6-1,0.6H11c-0.4,0-0.8-0.2-1-0.6c-0.2-0.4-0.2-0.8,0.1-1.2l0.2-0.2c12.5,0,20.3-1.7,25.9-4.6c0,0.2-0.1,0.4-0.1,0.6  c0,2.2,1.8,4,4,4s4-1.8,4-4c0-1.9-1.3-3.4-3-3.9c0.8-0.6,1.5-1.3,2.2-2l6.7,10.1C50.2,50.6,50.2,51,50,51.4z M30,16  c-2.2,0-4,1.8-4,4s1.8,4,4,4s4-1.8,4-4S32.2,16,30,16z M30,22c-1.1,0-2-0.9-2-2s0.9-2,2-2s2,0.9,2,2S31.1,22,30,22z"/>
  <text x="0" y="75" fill="#000000" font-size="5px" font-weight="bold" font-family="'Helvetica Neue', Helvetica, Arial-Unicode, Arial, Sans-serif">
    Created by Denis Shumaylov
  </text>
  <text x="0" y="80" fill="#000000" font-size="5px" font-weight="bold" font-family="'Helvetica Neue', Helvetica, Arial-Unicode, Arial, Sans-serif">
    from the Noun Project
  </text>
</svg>