<svg xmlns="http://www.w3.org/2000/svg" xmlns:xlink="http://www.w3.org/1999/xlink" version="1.1" viewBox="0 0 60 60" fill="currentcolor">
  <path d="M20.1,2.7c-0.2-0.5,0.1-1.1,0.7-1.2c3.2-1,5.9-0.8,8.2,0.6V1c0-0.3,0.1-0.5,0.3-0.7  C29.5,0.1,29.7,0,30,0c2.8,0.1,5,0.8,6.8,2.2c0.4,0.4,0.5,1,0.1,1.4c-0.4,0.4-1,0.5-1.4,0.1c-1.2-1-2.7-1.5-4.5-1.7V4  c0,0.4-0.2,0.7-0.6,0.9C30,5.1,29.6,5,29.3,4.7c-2.1-1.9-4.7-2.4-8-1.4C20.8,3.5,20.2,3.2,20.1,2.7z M57.9,38l-1-0.3  c2-1.8,3-4.4,3.1-7.7c0-0.3-0.1-0.5-0.3-0.7S59.3,29,59,29h-1c1.3-2.3,1.5-5.1,0.6-8.2c-0.1-0.3-0.3-0.5-0.5-0.6  c-0.2-0.1-0.5-0.1-0.8-0.1l-1,0.3c0.5-2.6-0.1-5.3-2-8c-0.2-0.2-0.4-0.4-0.7-0.4c-0.3,0-0.5,0-0.8,0.2L52,12.8  c-0.2-2-1.1-3.8-2.6-5.4c-0.4-0.4-1-0.4-1.4,0c-0.4,0.4-0.4,1,0,1.4c1.6,1.8,2.3,3.7,2.1,5.9c0,0.4,0.2,0.8,0.5,1  c0.3,0.2,0.8,0.2,1.1-0.1l1.6-1.1c1.5,2.5,1.7,4.8,0.6,7.2c-0.2,0.4-0.1,0.8,0.2,1.1c0.3,0.3,0.7,0.4,1.1,0.3l1.8-0.6  c0.6,2.8,0.1,5.1-1.6,7c-0.3,0.3-0.3,0.7-0.2,1.1c0.2,0.4,0.5,0.6,0.9,0.6h1.9c-0.3,2.9-1.5,4.9-3.7,6.2c-0.3,0.2-0.5,0.6-0.5,1  c0,0.4,0.3,0.7,0.7,0.8l1.8,0.6c-1.2,2.6-2.9,4.2-5.4,4.7c-0.4,0.1-0.7,0.4-0.8,0.8c-0.1,0.4,0.1,0.8,0.4,1l1.6,1.1  c-1.9,2.2-4.1,3.1-6.6,2.8c-0.4,0-0.8,0.2-1,0.5c-0.2,0.3-0.2,0.8,0.1,1.1l1.1,1.6c-2.5,1.5-4.8,1.7-7.2,0.6  c-0.4-0.2-0.8-0.1-1.1,0.2c-0.3,0.3-0.4,0.7-0.3,1.1l0.6,1.8c-2.8,0.6-5.1,0.1-7-1.6c-0.3-0.3-0.7-0.3-1.1-0.2  C29.2,55.2,29,55.6,29,56v1.9c-2.9-0.3-4.9-1.5-6.2-3.7c-0.2-0.3-0.6-0.5-1-0.5c-0.4,0-0.7,0.3-0.8,0.7l-0.6,1.8  c-2.6-1.2-4.2-2.9-4.7-5.4c-0.1-0.4-0.4-0.7-0.8-0.8c-0.4-0.1-0.8,0.1-1,0.4L12.8,52c-2.2-1.9-3.1-4.1-2.8-6.6c0-0.4-0.2-0.8-0.5-1  c-0.3-0.2-0.8-0.2-1.1,0.1l-1.6,1.1c-1.5-2.5-1.7-4.8-0.6-7.2c0.2-0.4,0.1-0.8-0.2-1.1C5.8,37.1,5.3,37,5,37.1l-1.8,0.6  c-0.6-2.8-0.1-5.1,1.6-7C5,30.4,5.1,30,4.9,29.6C4.8,29.2,4.4,29,4,29H2.1c0.3-2.9,1.5-4.9,3.7-6.2c0.3-0.2,0.5-0.6,0.5-1  c0-0.4-0.3-0.7-0.7-0.8l-1.8-0.6c1.2-2.6,2.9-4.2,5.4-4.7c0.4-0.1,0.7-0.4,0.8-0.8c0.1-0.4-0.1-0.8-0.4-1L8,12.8  c1.3-1.4,2.7-2.3,4.2-2.7c0.5-0.1,0.9-0.7,0.8-1.2c-0.1-0.5-0.7-0.9-1.2-0.8c-2.3,0.5-4.3,1.9-6,4.2c-0.2,0.2-0.2,0.5-0.2,0.8  s0.2,0.5,0.4,0.7l0.8,0.6c-2.4,1.1-4.2,3.2-5.3,6.3c-0.1,0.3-0.1,0.5,0,0.8c0.1,0.2,0.3,0.4,0.6,0.5l1,0.3c-2,1.8-3,4.4-3.1,7.7  c0,0.3,0.1,0.5,0.3,0.7S0.7,31,1,31h1c-1.3,2.3-1.5,5.1-0.6,8.2c0.1,0.3,0.3,0.5,0.5,0.6C2.2,40,2.5,40,2.7,39.9l1-0.3  c-0.5,2.6,0.1,5.3,2,8C5.9,47.8,6.1,48,6.4,48c0.3,0,0.5,0,0.8-0.2L8,47.2c0.3,2.7,1.8,5,4.4,7c0.2,0.2,0.5,0.2,0.8,0.2  c0.3,0,0.5-0.2,0.7-0.4l0.6-0.8c1.1,2.4,3.2,4.2,6.3,5.3c0.3,0.1,0.5,0.1,0.8,0c0.2-0.1,0.4-0.3,0.5-0.6l0.3-1c1.8,2,4.4,3,7.7,3.1  c0,0,0,0,0,0c0.3,0,0.5-0.1,0.7-0.3c0.2-0.2,0.3-0.4,0.3-0.7v-1c2.3,1.3,5.1,1.5,8.2,0.6c0.3-0.1,0.5-0.3,0.6-0.5  c0.1-0.2,0.1-0.5,0.1-0.8l-0.3-1c2.6,0.5,5.3-0.1,8-2c0.2-0.2,0.4-0.4,0.4-0.7c0-0.3,0-0.5-0.2-0.8L47.2,52c2.7-0.3,5-1.8,7-4.4  c0.2-0.2,0.2-0.5,0.2-0.8s-0.2-0.5-0.4-0.7l-0.8-0.6c2.4-1.1,4.2-3.2,5.3-6.3c0.1-0.3,0.1-0.5,0-0.8C58.4,38.3,58.1,38.1,57.9,38z   M43.2,25.4c-0.3-0.4-1-0.5-1.4-0.2l-3.5,2.7c-0.3,0.2-0.4,0.6-0.4,0.9c0.2,1.5,0.8,3,1.7,4.3l-1.7,0c-0.4,0-0.7,0.2-0.9,0.5  c-0.7,1.3-1.1,2.9-1.1,4.5l-1.4-0.9c-0.3-0.2-0.7-0.2-1-0.1c-1.3,0.7-2.6,1.7-3.5,3l-0.6-1.6c-0.1-0.3-0.4-0.6-0.8-0.7  c-1.5-0.2-3.1-0.2-4.6,0.3l0.5-1.6c0.1-0.3,0-0.7-0.2-1c-1-1.1-2.4-2-3.9-2.4l1.3-1c0.3-0.2,0.4-0.6,0.4-0.9  c-0.4-2.5-1.8-5.4-4.2-6.2c-0.5-0.2-1.1,0.1-1.3,0.6s0.1,1.1,0.6,1.3c1.3,0.4,2.3,2.3,2.7,4l-3,2.3c-0.4,0.3-0.5,0.8-0.3,1.3  c0.2,0.4,0.7,0.6,1.2,0.5c1.3-0.4,3.2,0.5,4.5,1.6l-1.1,3.6c-0.1,0.5,0.1,1,0.5,1.2c0.4,0.2,1,0.1,1.3-0.3c0.8-1.1,2.9-1.5,4.6-1.4  l1.3,3.6c0.1,0.4,0.5,0.7,0.9,0.7c0.7,0,1-0.5,1-1c0-1.4,1.4-2.9,2.9-3.8l3.1,2.2c0.4,0.3,0.9,0.2,1.3-0.1c0.3-0.3,0.4-0.9,0.1-1.3  c-0.8-1.1-0.6-3.2,0.1-4.8l3.8-0.1c0.5,0,0.9-0.4,1-0.9c0.1-0.5-0.2-0.9-0.7-1.1c-1.3-0.4-2.3-2.3-2.7-4l3-2.3  C43.4,26.4,43.5,25.8,43.2,25.4z M14.1,20.4c-1.1-2.3-0.6-5.1-0.1-8.1c0.5-2.8,1-5.7,0.1-8c-0.1-0.3-0.1-0.7,0.1-0.9S14.7,3,15,3  c4.5,0,10,2.3,12.1,3.8C27.9,6.3,28.9,6,30,6c1.1,0,2.1,0.3,3,0.8C34.8,5.9,40.5,3,45,3c0.4,0,0.7,0.2,0.9,0.6  c1.1,2.3,0.6,5.1,0.1,8.1c-0.5,2.8-1,5.7-0.1,8c0.1,0.3,0.1,0.7-0.1,0.9S45.3,21,45,21c-2.1,0-4.4-0.5-6.5-1.2  C39,21.6,39,22.7,39,25c0,0.3-0.2,0.6-0.4,0.8c-0.3,0.2-0.6,0.2-0.9,0.1l-2.8-1.2l-2,2.8c-0.2,0.3-0.7,0.5-1.1,0.4  c-0.4-0.1-0.7-0.5-0.7-1c0-1.5-0.2-5-1-7.6c-0.8,2.6-1,6.1-1,7.6c0,0.4-0.3,0.8-0.7,1c-0.4,0.1-0.9-0.1-1.1-0.4l-2-2.8l-2.8,1.2  c-0.3,0.1-0.7,0.1-0.9-0.1C21.2,25.6,21,25.3,21,25c0-2.3,0-3.5,0.5-5.4C19.4,20.4,17.1,21,15,21C14.6,21,14.3,20.8,14.1,20.4z   M28.5,17.8c-0.5-0.1-1-0.4-1.5-0.6c-0.6,0.3-1.7,0.9-3.1,1.5c-0.7,2-0.8,3.1-0.8,4.8l2.1-0.9c0.4-0.2,0.9,0,1.2,0.3l0.8,1.2  C27.3,22.2,27.7,19.7,28.5,17.8z M36.2,18.9c-1.4-0.6-2.5-1.2-3.2-1.7c-0.4,0.3-0.9,0.4-1.4,0.6c0.8,1.9,1.2,4.4,1.3,6.3l0.8-1.2  c0.3-0.4,0.8-0.5,1.2-0.3l2.1,0.9C37,21.8,36.8,20.9,36.2,18.9z M44.3,5c-3.4,0.2-7.6,2.2-9.7,3.2c0.8,1,1.3,2.3,1.3,3.8  c0,1.5-0.5,2.8-1.4,3.9c1.7,1,5.5,2.7,9.1,3c-0.5-2.4,0-5.1,0.4-7.6C44.5,8.9,44.8,6.7,44.3,5z M30,8c-2.2,0-4,1.8-4,4s1.8,4,4,4  s4-1.8,4-4S32.2,8,30,8z M15.7,19c3.4-0.2,7.6-2.2,9.7-3.2c-0.8-1-1.3-2.3-1.3-3.8c0-1.5,0.5-2.8,1.4-3.9c-1.7-1-5.5-2.7-9.1-3  c0.5,2.4,0,5.1-0.4,7.6C15.5,15.1,15.2,17.3,15.7,19z M15,30c0,2.2-1.8,4-4,4s-4-1.8-4-4s1.8-4,4-4S15,27.8,15,30z M13,30  c0-1.1-0.9-2-2-2s-2,0.9-2,2s0.9,2,2,2S13,31.1,13,30z M14,46c0-2.2,1.8-4,4-4s4,1.8,4,4s-1.8,4-4,4S14,48.2,14,46z M16,46  c0,1.1,0.9,2,2,2s2-0.9,2-2s-0.9-2-2-2S16,44.9,16,46z M37,44c2.2,0,4,1.8,4,4s-1.8,4-4,4s-4-1.8-4-4S34.8,44,37,44z M37,46  c-1.1,0-2,0.9-2,2s0.9,2,2,2s2-0.9,2-2S38.1,46,37,46z M45,36c0-2.2,1.8-4,4-4s4,1.8,4,4s-1.8,4-4,4S45,38.2,45,36z M47,36  c0,1.1,0.9,2,2,2s2-0.9,2-2s-0.9-2-2-2S47,34.9,47,36z"/>
  <text x="0" y="75" fill="#000000" font-size="5px" font-weight="bold" font-family="'Helvetica Neue', Helvetica, Arial-Unicode, Arial, Sans-serif">
    Created by Denis Shumaylov
  </text>
  <text x="0" y="80" fill="#000000" font-size="5px" font-weight="bold" font-family="'Helvetica Neue', Helvetica, Arial-Unicode, Arial, Sans-serif">
    from the Noun Project
  </text>
</svg>