<svg xmlns="http://www.w3.org/2000/svg" viewBox="0 0 60 60" fill="currentcolor"><path d="M20.1 2.7c-.2-.5.1-1.1.7-1.2 3.2-1 5.9-.8 8.2.6V1c0-.3.1-.5.3-.7.2-.2.4-.3.7-.3 2.8.1 5 .8 6.8 2.2.4.4.5 1 .1 1.4-.4.4-1 .5-1.4.1-1.2-1-2.7-1.5-4.5-1.7v2c0 .4-.2.7-.6.9-.4.2-.8.1-1.1-.2-2.1-1.9-4.7-2.4-8-1.4-.5.2-1.1-.1-1.2-.6zM57.9 38l-1-.3c2-1.8 3-4.4 3.1-7.7 0-.3-.1-.5-.3-.7s-.4-.3-.7-.3h-1c1.3-2.3 1.5-5.1.6-8.2-.1-.3-.3-.5-.5-.6-.2-.1-.5-.1-.8-.1l-1 .3c.5-2.6-.1-5.3-2-8-.2-.2-.4-.4-.7-.4-.3 0-.5 0-.8.2l-.8.6c-.2-2-1.1-3.8-2.6-5.4-.4-.4-1-.4-1.4 0-.4.4-.4 1 0 1.4 1.6 1.8 2.3 3.7 2.1 5.9 0 .4.2.8.5 1 .3.2.8.2 1.1-.1l1.6-1.1c1.5 2.5 1.7 4.8.6 7.2-.2.4-.1.8.2 1.1.3.3.7.4 1.1.3l1.8-.6c.6 2.8.1 5.1-1.6 7-.3.3-.3.7-.2 1.1.2.4.5.6.9.6H58c-.3 2.9-1.5 4.9-3.7 6.2-.3.2-.5.6-.5 1s.3.7.7.8l1.8.6c-1.2 2.6-2.9 4.2-5.4 4.7-.4.1-.7.4-.8.8-.1.4.1.8.4 1l1.6 1.1c-1.9 2.2-4.1 3.1-6.6 2.8-.4 0-.8.2-1 .5-.2.3-.2.8.1 1.1l1.1 1.6c-2.5 1.5-4.8 1.7-7.2.6-.4-.2-.8-.1-1.1.2-.3.3-.4.7-.3 1.1l.6 1.8c-2.8.6-5.1.1-7-1.6-.3-.3-.7-.3-1.1-.2-.4-.1-.6.3-.6.7v1.9c-2.9-.3-4.9-1.5-6.2-3.7-.2-.3-.6-.5-1-.5s-.7.3-.8.7l-.6 1.8c-2.6-1.2-4.2-2.9-4.7-5.4-.1-.4-.4-.7-.8-.8-.4-.1-.8.1-1 .4L12.8 52c-2.2-1.9-3.1-4.1-2.8-6.6 0-.4-.2-.8-.5-1-.3-.2-.8-.2-1.1.1l-1.6 1.1c-1.5-2.5-1.7-4.8-.6-7.2.2-.4.1-.8-.2-1.1-.2-.2-.7-.3-1-.2l-1.8.6c-.6-2.8-.1-5.1 1.6-7 .2-.3.3-.7.1-1.1-.1-.4-.5-.6-.9-.6H2.1c.3-2.9 1.5-4.9 3.7-6.2.3-.2.5-.6.5-1s-.3-.7-.7-.8l-1.8-.6c1.2-2.6 2.9-4.2 5.4-4.7.4-.1.7-.4.8-.8.1-.4-.1-.8-.4-1L8 12.8c1.3-1.4 2.7-2.3 4.2-2.7.5-.1.9-.7.8-1.2-.1-.5-.7-.9-1.2-.8-2.3.5-4.3 1.9-6 4.2-.2.2-.2.5-.2.8s.2.5.4.7l.8.6c-2.4 1.1-4.2 3.2-5.3 6.3-.1.3-.1.5 0 .8.1.2.3.4.6.5l1 .3c-2 1.8-3 4.4-3.1 7.7 0 .3.1.5.3.7s.4.3.7.3h1c-1.3 2.3-1.5 5.1-.6 8.2.1.3.3.5.5.6.3.2.6.2.8.1l1-.3c-.5 2.6.1 5.3 2 8 .2.2.4.4.7.4.3 0 .5 0 .8-.2l.8-.6c.3 2.7 1.8 5 4.4 7 .2.2.5.2.8.2.3 0 .5-.2.7-.4l.6-.8c1.1 2.4 3.2 4.2 6.3 5.3.3.1.5.1.8 0 .2-.1.4-.3.5-.6l.3-1c1.8 2 4.4 3 7.7 3.1.3 0 .5-.1.7-.3.2-.2.3-.4.3-.7v-1c2.3 1.3 5.1 1.5 8.2.6.3-.1.5-.3.6-.5.1-.2.1-.5.1-.8l-.3-1c2.6.5 5.3-.1 8-2 .2-.2.4-.4.4-.7 0-.3 0-.5-.2-.8l-.7-.8c2.7-.3 5-1.8 7-4.4.2-.2.2-.5.2-.8s-.2-.5-.4-.7l-.8-.6c2.4-1.1 4.2-3.2 5.3-6.3.1-.3.1-.5 0-.8-.1-.1-.4-.3-.6-.4zM43.2 25.4c-.3-.4-1-.5-1.4-.2l-3.5 2.7c-.3.2-.4.6-.4.9.2 1.5.8 3 1.7 4.3h-1.7c-.4 0-.7.2-.9.5-.7 1.3-1.1 2.9-1.1 4.5l-1.4-.9c-.3-.2-.7-.2-1-.1-1.3.7-2.6 1.7-3.5 3l-.6-1.6c-.1-.3-.4-.6-.8-.7-1.5-.2-3.1-.2-4.6.3l.5-1.6c.1-.3 0-.7-.2-1-1-1.1-2.4-2-3.9-2.4l1.3-1c.3-.2.4-.6.4-.9-.4-2.5-1.8-5.4-4.2-6.2-.5-.2-1.1.1-1.3.6s.1 1.1.6 1.3c1.3.4 2.3 2.3 2.7 4l-3 2.3c-.4.3-.5.8-.3 1.3.2.4.7.6 1.2.5 1.3-.4 3.2.5 4.5 1.6l-1.1 3.6c-.1.5.1 1 .5 1.2.4.2 1 .1 1.3-.3.8-1.1 2.9-1.5 4.6-1.4l1.3 3.6c.1.4.5.7.9.7.7 0 1-.5 1-1 0-1.4 1.4-2.9 2.9-3.8l3.1 2.2c.4.3.9.2 1.3-.1.3-.3.4-.9.1-1.3-.8-1.1-.6-3.2.1-4.8l3.8-.1c.5 0 .9-.4 1-.9.1-.5-.2-.9-.7-1.1-1.3-.4-2.3-2.3-2.7-4l3-2.3c.7-.4.8-1 .5-1.4zm-29.1-5c-1.1-2.3-.6-5.1-.1-8.1.5-2.8 1-5.7.1-8-.1-.3-.1-.7.1-.9s.5-.4.8-.4c4.5 0 10 2.3 12.1 3.8.8-.5 1.8-.8 2.9-.8 1.1 0 2.1.3 3 .8C34.8 5.9 40.5 3 45 3c.4 0 .7.2.9.6 1.1 2.3.6 5.1.1 8.1-.5 2.8-1 5.7-.1 8 .1.3.1.7-.1.9s-.5.4-.8.4c-2.1 0-4.4-.5-6.5-1.2.5 1.8.5 2.9.5 5.2 0 .3-.2.6-.4.8-.3.2-.6.2-.9.1l-2.8-1.2-2 2.8c-.2.3-.7.5-1.1.4-.4-.1-.7-.5-.7-1 0-1.5-.2-5-1-7.6-.8 2.6-1 6.1-1 7.6 0 .4-.3.8-.7 1-.4.1-.9-.1-1.1-.4l-2-2.8-2.8 1.2c-.3.1-.7.1-.9-.1-.4-.2-.6-.5-.6-.8 0-2.3 0-3.5.5-5.4-2.1.8-4.4 1.4-6.5 1.4-.4 0-.7-.2-.9-.6zm14.4-2.6c-.5-.1-1-.4-1.5-.6-.6.3-1.7.9-3.1 1.5-.7 2-.8 3.1-.8 4.8l2.1-.9c.4-.2.9 0 1.2.3l.8 1.2c.1-1.9.5-4.4 1.3-6.3zm7.7 1.1c-1.4-.6-2.5-1.2-3.2-1.7-.4.3-.9.4-1.4.6.8 1.9 1.2 4.4 1.3 6.3l.8-1.2c.3-.4.8-.5 1.2-.3l2.1.9c0-1.7-.2-2.6-.8-4.6zM44.3 5c-3.4.2-7.6 2.2-9.7 3.2.8 1 1.3 2.3 1.3 3.8s-.5 2.8-1.4 3.9c1.7 1 5.5 2.7 9.1 3-.5-2.4 0-5.1.4-7.6.5-2.4.8-4.6.3-6.3zM30 8c-2.2 0-4 1.8-4 4s1.8 4 4 4 4-1.8 4-4-1.8-4-4-4zM15.7 19c3.4-.2 7.6-2.2 9.7-3.2-.8-1-1.3-2.3-1.3-3.8s.5-2.8 1.4-3.9c-1.7-1-5.5-2.7-9.1-3 .5 2.4 0 5.1-.4 7.6-.5 2.4-.8 4.6-.3 6.3zM15 30c0 2.2-1.8 4-4 4s-4-1.8-4-4 1.8-4 4-4 4 1.8 4 4zm-2 0c0-1.1-.9-2-2-2s-2 .9-2 2 .9 2 2 2 2-.9 2-2zm1 16c0-2.2 1.8-4 4-4s4 1.8 4 4-1.8 4-4 4-4-1.8-4-4zm2 0c0 1.1.9 2 2 2s2-.9 2-2-.9-2-2-2-2 .9-2 2zm21-2c2.2 0 4 1.8 4 4s-1.8 4-4 4-4-1.8-4-4 1.8-4 4-4zm0 2c-1.1 0-2 .9-2 2s.9 2 2 2 2-.9 2-2-.9-2-2-2zm8-10c0-2.2 1.8-4 4-4s4 1.8 4 4-1.8 4-4 4-4-1.8-4-4zm2 0c0 1.1.9 2 2 2s2-.9 2-2-.9-2-2-2-2 .9-2 2z"/><text y="75" fill="#000" font-size="5" font-weight="bold" font-family="'Helvetica Neue', Helvetica, Arial-Unicode, Arial, Sans-serif">Created by Denis Shumaylov</text><text y="80" fill="#000" font-size="5" font-weight="bold" font-family="'Helvetica Neue', Helvetica, Arial-Unicode, Arial, Sans-serif">from the Noun Project</text></svg>