<svg xmlns="http://www.w3.org/2000/svg" viewBox="0 0 60 60" fill="currentcolor"><path d="M50 51.3C46.3 49 37.9 48 30 48s-16.3 1-20 3.3c0-1.6.6-3.5 1.8-4.7 1.4-1.4 2.2-3.3 2.4-5.3l1-16.3c.1-2 .6-3.9 1.5-5.6.2-.5 0-1.1-.5-1.3-.5-.2-1.1 0-1.3.5-1 2-1.5 4.1-1.7 6.4l-1 16.3c-.1 1.5-.7 2.9-1.8 4C8.8 46.7 8 48.8 8 50.9V54c0 4.1 11.4 6 22 6s22-1.9 22-6v-3.1c0-2.2-.8-4.2-2.4-5.7-1.1-1.1-1.7-2.5-1.8-4l-1-16.3c-.1-2.3-.7-4.5-1.7-6.5-.2-.5-.8-.7-1.3-.5-.5.2-.7.8-.5 1.3.9 1.8 1.4 3.7 1.5 5.7l1 16.3c.1 2 1 3.9 2.4 5.3 1.2 1.3 1.8 3.2 1.8 4.8zm-17-1.2c0 1.6-1.4 2.9-3 2.9s-3-1.3-3-2.9c1 0 2-.1 3-.1s2 0 3 .1zM30 58c-12.9 0-20-2.6-20-4 0-1.2 5.3-3.3 15-3.9.1 2.7 2.3 4.9 5 4.9s4.9-2.2 5-4.9c4.6.3 8.2.9 10.7 1.6-1.6.9-5.5 2.3-8.7 2.3-.6 0-1 .4-1 1s.4 1 1 1c4.1 0 9.4-2 10.7-3.3.1-.1.1-.2.2-.3 1.4.6 2.1 1.2 2.1 1.6 0 1.4-7.1 4-20 4zM11 9c0 1.1-.2 2.6-.5 4.3-.2.9.1 1.9.7 2.6.6.7 1.5 1.1 2.5 1.1.3 0 .6 0 .9-.1l5.6-1.7c-1.7 3.4-3.1 8.3-3.2 8.5-.1.3 0 .7.2 1 .2.3.6.4.9.3l4.5-.9 3.6 3.6c.2.2.6.4 1 .2.3-.1.6-.4.7-.8.3-1.5 1-4.5 2-7.3 1.3 3.5 2 7.3 2 7.3.1.4.3.6.7.8.3.1.8-.1 1-.2l3.6-3.6 4.5.9c.3.1.7 0 .9-.3.2-.3.3-.6.2-1-.1-.2-1.5-5.1-3.2-8.5l5.6 1.7c.5.1.8.1 1.1.1.9 0 1.8-.4 2.4-1.1.6-.7.9-1.7.7-2.6-.2-1.7-.4-3.2-.4-4.3 0-1.2.2-3.1.5-5.3.1-.9-.1-1.8-.7-2.5-.9-1-2.3-1.4-3.6-.9l-8.4 3.3c-.1-.2-.3-.4-.6-.5C36.2 3 33.1 2 30 2s-6.2 1-6.3 1c-.3.1-.5.3-.6.5L14.7.2c-1.2-.5-2.7-.1-3.6.9-.6.7-.9 1.6-.7 2.5.4 2.3.6 4.1.6 5.4zm19 6c-.3.5-.6 1.2-.9 1.8-1.2 2.8-2.2 6.2-2.7 8.2l-2.7-2.7c-.2-.2-.6-.3-.9-.3l-3.4.7c.7-2.2 2.1-6.3 3.5-8.3l1.6-.5c.1 0 3.4 1.1 5.5 1.1zm7.1-.6c1.3 2 2.8 6.1 3.5 8.3l-3.4-.7c-.3-.1-.7 0-.9.3L33.6 25c-.5-1.9-1.3-5.1-2.5-7.8.5-1.1 1.1-2 1.7-2.6 1.4-.3 2.7-.7 2.8-.7l1.5.5zm-1-2.4l.3-3c1.3-.1 5.4-.4 8.1-2.2.5-.3.6-.9.3-1.4-.3-.5-.9-.6-1.4-.3-2.1 1.4-5.4 1.7-6.8 1.8l.1-1.2L46 2.1c.5-.2 1-.1 1.3.3.2.3.3.6.3.9-.4 2.4-.6 4.3-.6 5.7 0 1.3.2 2.8.5 4.6.1.3 0 .7-.3.9-.3.3-.8.5-1.3.4L36.1 12zM30 4c1.9 0 3.9.4 4.9.7l-.8 7.5c-1 .3-2.8.8-4.1.8-1.3 0-3.1-.5-4.1-.8l-.8-7.5c1-.3 3-.7 4.9-.7zm-6.1 8L14 14.9c-.4.1-.9 0-1.3-.4-.2-.3-.3-.6-.3-.9.4-1.8.6-3.3.6-4.6 0-1.4-.2-3.3-.6-5.7-.1-.3 0-.7.3-.9.3-.4.9-.5 1.3-.3l9.2 3.7.1 1.1-4.1-.9c-.5-.1-1.1.2-1.2.8s.2 1.1.8 1.2l4.7.9.4 3.1zM45 11c0 .6-.4 1-1 1h-2c-.6 0-1-.4-1-1s.4-1 1-1h2c.6 0 1 .4 1 1zm-30.8 1.6c-.3-.5-.2-1.1.3-1.4.1-.1 3.2-2.2 6.5-2.2.6 0 1 .4 1 1s-.4 1-1 1c-2.7 0-5.4 1.8-5.4 1.8-.7.4-1.2 0-1.4-.2zM15.8 45c4.1-1 10.2-1 14.2-1 .6 0 1 .4 1 1s-.4 1-1 1c-3.9 0-9.9 0-13.8 1-.4.1-1-.1-1.2-.7-.1-.6.2-1.1.8-1.3zm2.2-4c-.6 0-1-.5-1-1 0-4 .5-8.6 1-11.2.1-.5.6-.9 1.2-.8.5.1.9.6.8 1.2-.5 2.5-1 6.9-1 10.8 0 .6-.4 1-1 1zm4 0c-.6 0-1-.5-1-1 0-.1 0-3.6.5-6.2.1-.5.6-.9 1.2-.8.5.1.9.6.8 1.2C23 36.6 23 40 23 40c0 .6-.5 1-1 1z"/><text y="75" fill="#000" font-size="5" font-weight="bold" font-family="'Helvetica Neue', Helvetica, Arial-Unicode, Arial, Sans-serif">Created by Denis Shumaylov</text><text y="80" fill="#000" font-size="5" font-weight="bold" font-family="'Helvetica Neue', Helvetica, Arial-Unicode, Arial, Sans-serif">from the Noun Project</text></svg>