<svg xmlns="http://www.w3.org/2000/svg" viewBox="0 0 60 60" fill="currentcolor"><path d="M30 0c-9.9 0-18 8.1-18 18v3c0 3.3 2.7 6 6 6s6-2.7 6-6v-3c0-3.3 2.7-6 6-6s6 2.7 6 6v36.1c0 3.3 2.7 5.9 6 5.9s6-2.7 6-6V18c0-9.9-8.1-18-18-18zm5.1 11.8L37.7 4c1.2.7 2.4 1.5 3.4 2.5l-5.2 6.1-.8-.8zm10.5 2.8L38 18.4c0-1.3-.3-3-.9-4.1L42.5 8c1.5 1.9 2.6 4.1 3.1 6.6zm.4 19.8l-8 4v-3.8l8-4v3.8zm0-6l-8 4v-5.8l8-4v5.8zm-8 12.2l8-4v5.8l-8 4v-5.8zM46 18v2.4l-8 4v-3.8l7.9-4c.1.5.1.9.1 1.4zm-8 30.6l8-4v3.8l-8 4v-3.8zM35.9 3.1l-2.5 7.6c-.8-.4-1.8-.6-2.8-.7l-4.2-7.6c1.1-.2 2.4-.4 3.6-.4 2.1 0 4.1.4 5.9 1.1zm-8.2 7.2l-6.6-5.7c1-.7 2.1-1.2 3.3-1.7l4 7.1c-.2.2-.5.3-.7.3zm-8.2-4.4l6.2 5.3c-.8.5-1.4 1.1-2 1.8l-9.2.9c.9-3.1 2.6-5.9 5-8zm2.7 10.4L14 19.9V18c0-.7.1-1.3.1-2l8.4-.8c-.1.3-.2.7-.3 1.1zM14.1 22l7.9-3.4V21c0 2.2-1.8 4-4 4-1.9 0-3.4-1.3-3.9-3zM42 58c-2 0-3.7-1.5-3.9-3.4l7.9-4V54c0 2.2-1.8 4-4 4zM17.2 11.3c.5-1.2 1.2-2.2 2-3.2.4-.4 1-.5 1.4-.1s.5 1 .1 1.4c-.7.8-1.3 1.8-1.7 2.7-.2.6-.9.7-1.3.5-.5-.2-.7-.8-.5-1.3zM29 4c0-.6.4-1 1-1 1.2 0 2.3.1 3.4.4.5.1.9.7.7 1.2-.1.5-.7.9-1.2.7C32 5.1 31 5 30 5c-.6 0-1-.4-1-1zm13 36.6V43c0 .6-.4 1-1 1s-1-.4-1-1v-2.4c0-.6.4-1 1-1s1 .5 1 1zM40 29v-1.9c0-.6.4-1 1-1s1 .4 1 1V29c0 .6-.4 1-1 1s-1-.4-1-1zm-.9-15c-.2-.5 0-1.1.5-1.3.5-.2 1.1 0 1.3.5.2.5.4 1.1.6 1.6.1.5-.2 1.1-.7 1.2-.5.2-1.1-.1-1.2-.7-.1-.5-.3-.9-.5-1.3z"/><text y="75" fill="#000" font-size="5" font-weight="bold" font-family="'Helvetica Neue', Helvetica, Arial-Unicode, Arial, Sans-serif">Created by Denis Shumaylov</text><text y="80" fill="#000" font-size="5" font-weight="bold" font-family="'Helvetica Neue', Helvetica, Arial-Unicode, Arial, Sans-serif">from the Noun Project</text></svg>