<svg xmlns="http://www.w3.org/2000/svg" viewBox="0 0 60 60" fill="currentcolor"><path d="M8.1 20.3c-1.9 1.4-2.8 3.8-2.2 6.1l1 3.8c-1.2-.1-2.3-.2-3.4-.2H2c-.3 0-.6.2-.8.4-.2.3-.2.6-.1.9l2 5c1.4 3.4 4.7 5.7 8.4 5.7h1.4l.3 2.1c.6 3.5 2.4 6.8 5 9.2l4.9 4.5c1.6 1.5 3.7 2.3 5.9 2.3s4.3-.8 5.9-2.3l4.9-4.5c2.6-2.4 4.4-5.7 5-9.2l.3-2.1h1.4c3.7 0 7-2.2 8.4-5.7l2-5c.1-.3.1-.7-.1-.9-.2-.2-.5-.4-.8-.4h-1.5c-2.6 0-5.1.5-7.5 1.5V29c0-.6-.4-1-1-1s-1 .4-1 1v4c0 .3.2.7.5.9.3.2.7.2 1 0 2.5-1.2 5.3-1.9 8-1.9h.1l-1.4 3.6C52 38.3 49.5 40 46.6 40h-1.1l.5-2.8c.1-.5-.3-1.1-.8-1.2-.5-.1-1.1.3-1.2.8l-1.1 6.9c-.5 3.1-2.1 5.9-4.4 8l-4.9 4.5C32.3 57.4 30.7 58 29 58s-3.3-.6-4.5-1.8l-4.9-4.5c-2.3-2.1-3.9-4.9-4.4-8L14 36.8c-.1-.5-.6-.9-1.2-.8-.5.1-.9.6-.8 1.2l.5 2.8h-1.1c-2.9 0-5.4-1.7-6.5-4.4L3.5 32h.1c2.8 0 5.5.7 8 1.9.5.2 1.1 0 1.3-.4.2-.5 0-1.1-.4-1.3-1.1-.6-2.3-1-3.5-1.3L7.8 26c-.4-1.6.2-3.2 1.6-4.1C15.5 17.6 21 15 29 15c5.7 0 9.7 1 12.1 1.8 1.3.4 2.2 1.5 2.5 2.8l.7 3.3c.1.4-.1.7-.3.8s-.4.3-.8.2c-2.9-.9-5.9-1.5-9.2-1.7V21c0-.6-.4-1-1-1s-1 .4-1 1v1.1c-.7 0-1.3 0-2-.1v-3c0-.6-.4-1-1-1s-1 .4-1 1v3c-.7 0-1.4 0-2 .1V19c0-.6-.4-1-1-1s-1 .4-1 1v3.4c-4.7.8-8.5 2.7-11.7 5.9-.4.4-.4 1 0 1.4s1 .4 1.4 0C17.6 25.8 22.5 24 29 24c5.3 0 9.5.6 13.6 1.8 1 .3 2 .1 2.8-.6.8-.7 1.1-1.7.9-2.7l-.7-3.3c-.3-1.5-1.2-2.8-2.5-3.6.1-.6.3-1.4 1-1.6.8-.3 2.2.2 3.1 1.6-.1.4-.2.9-.2 1.4 0 3.3 2.7 6 6 6s6-2.7 6-6-2.7-6-6-6h-.4C48.7 3.7 41.4 0 31 0 17.5 0 7.9 8.6 8.1 20.3zM57 17c0 2.2-1.8 4-4 4s-4-1.8-4-4 1.8-4 4-4 4 1.8 4 4zm-13.5-5c-1.2.4-2 1.4-2.3 2.7-2.6-.8-6.7-1.7-12.2-1.7-7.7 0-13.2 2.3-18.9 6C10.6 8.9 19 2 31 2c9.4 0 16 3.2 19.6 9.5-1 .4-1.9 1.2-2.5 2-1.3-1.3-3.1-1.9-4.6-1.5zM26.7 33.3c.4.4.4 1 .1 1.4-.4.5-1.1.3-1.4.1-.1 0-.9-.7-2.3-.7-1.5 0-2.3.7-2.3.7-.4.4-1 .3-1.4-.1-.4-.4-.3-1 .1-1.4.1-.1 1.5-1.3 3.7-1.3s3.3 1.1 3.5 1.3zm10.6 1.4s-.9-.7-2.3-.7c-1.5 0-2.3.7-2.3.7-.4.4-1 .3-1.4-.1s-.3-1 .1-1.4c.1-.1 1.5-1.3 3.7-1.3s3.5 1.1 3.7 1.3c.4.4.4 1 .1 1.4-.6.6-1.3.4-1.6.1zM31 5c0 .6-.4 1-1 1-6.8 0-12.3 2.9-14.1 7.4-.2.5-.8.8-1.3.6-.5-.2-.8-.8-.6-1.3C16.2 7.4 22.4 4 30 4c.6 0 1 .4 1 1zm-8.8 42.6c-.3-.4-.2-1.1.2-1.4.4-.3 1.1-.2 1.4.2.5.7 2.5 2.6 5.2 2.6s4.7-1.9 5.2-2.6c.3-.4 1-.5 1.4-.2.4.3.5 1 .2 1.4-.9 1.3-3.4 3.4-6.8 3.4s-5.9-2.1-6.8-3.4zm4.1-6.3c.4-.4 1-.4 1.4 0 .3.3.9.7 1.3.7s1-.4 1.3-.7c.4-.4 1-.4 1.4 0 .4.4.4 1 0 1.4-.1.1-1.3 1.3-2.7 1.3s-2.6-1.2-2.7-1.3c-.4-.4-.4-1 0-1.4z"/><text y="75" fill="#000" font-size="5" font-weight="bold" font-family="'Helvetica Neue', Helvetica, Arial-Unicode, Arial, Sans-serif">Created by Denis Shumaylov</text><text y="80" fill="#000" font-size="5" font-weight="bold" font-family="'Helvetica Neue', Helvetica, Arial-Unicode, Arial, Sans-serif">from the Noun Project</text></svg>