<svg xmlns="http://www.w3.org/2000/svg" viewBox="0 0 60 60" fill="currentcolor"><path d="M37 38h-9.7c.3-.9.7-2.2.7-3 0-2.3-1.9-3.6-4-3.9 0-.3-.1-.5-.2-.7-.2-.3-.5-.4-.8-.4h-6c-.3 0-.6.1-.8.3-.2.2-.2.5-.2.7-2.1.3-4 1.6-4 3.9 0 .8.4 2.1.7 3H3c-1.7 0-3 1.3-3 3v16c0 1.7 1.3 3 3 3h34c1.7 0 3-1.3 3-3V41c0-1.7-1.3-3-3-3zm-11-3c0 .5-.5 2-.9 3H23l.7-4.9c1 .1 2.3.6 2.3 1.9zm-4.2-3l-.8 5.9v.1h-2v-.1l-.8-5.9h3.6zM14 35c0-1.3 1.3-1.8 2.3-1.9L17 38h-2.1c-.4-1-.9-2.5-.9-3zM9.4 58l3.3-3.3c.4-.4.4-1 0-1.4s-1-.4-1.4 0L6.6 58H3.4l9.3-9.3c.4-.4.4-1 0-1.4s-1-.4-1.4 0L2 56.6v-3.2l7.7-7.7c.4-.4.4-1 0-1.4s-1-.4-1.4 0L2 50.6v-3.2l1.7-1.7c.4-.4.4-1 0-1.4s-1-.4-1.4 0l-.3.3V41c0-.6.4-1 1-1h12v18H9.4zm7.6 0V43h4c.6 0 1-.4 1-1s-.4-1-1-1h-4v-1h6v18h-6zm21-1c0 .6-.4 1-1 1h-3.6l2.3-2.3c.4-.4.4-1 0-1.4s-1-.4-1.4 0L30.6 58h-3.2l8.3-8.3c.4-.4.4-1 0-1.4s-1-.4-1.4 0L25 57.6v-3.2l10.7-10.7c.4-.4.4-1 0-1.4s-1-.4-1.4 0L25 51.6v-3.2l2.7-2.7c.4-.4.4-1 0-1.4s-1-.4-1.4 0L25 45.6V40h12c.6 0 1 .4 1 1v16zm19-36h-9.7c.3-.9.7-2.2.7-3 0-2.3-1.9-3.6-4-3.9 0-.3-.1-.5-.2-.7-.2-.3-.5-.4-.8-.4h-6c-.3 0-.6.1-.8.3-.2.2-.2.5-.2.7-2.1.3-4 1.6-4 3.9 0 .8.4 2.1.7 3H23c-1.7 0-3 1.3-3 3v4c0 .6.4 1 1 1s1-.4 1-1v-4c0-.6.4-1 1-1h11v13c0 .6.4 1 1 1s1-.4 1-1V26h3c.6 0 1-.4 1-1s-.4-1-1-1h-3v-1h8v35h-1c-.6 0-1 .4-1 1s.4 1 1 1h14c1.7 0 3-1.3 3-3V24c0-1.7-1.3-3-3-3zm-15.2-6l-.8 5.9v.1h-2v-.1l-.8-5.9h3.6zm-6.9 6c-.4-1-.9-2.5-.9-3 0-1.3 1.3-1.8 2.3-1.9L37 21h-2.1zm8.1 0l.7-4.9c1 .2 2.3.7 2.3 1.9 0 .5-.5 2-.9 3H43zm15 36c0 .6-.4 1-1 1H46V23h11c.6 0 1 .4 1 1v33zM6 36c.6 0 1-.4 1-1V11c0-.6.4-1 1-1h8v18c0 .6.4 1 1 1s1-.4 1-1V13h5c.6 0 1-.4 1-1s-.4-1-1-1h-5v-1h10v9c0 .6.4 1 1 1s1-.4 1-1v-9h8c.6 0 1 .4 1 1s.4 1 1 1 1-.4 1-1c0-1.7-1.3-3-3-3h-7.7c.3-.9.7-2.2.7-3 0-2.3-1.9-3.6-4-3.9 0-.3-.1-.5-.2-.7-.2-.3-.5-.4-.8-.4h-6c-.3 0-.6.1-.8.3-.1.2-.2.5-.2.8-2.1.3-4 1.6-4 3.9 0 .8.4 2.1.7 3H8c-1.7 0-3 1.3-3 3v24c0 .6.4 1 1 1zM29 5c0 .5-.5 2-.9 3H26l.7-4.9c1 .1 2.3.6 2.3 1.9zm-4.2-3L24 7.9V8h-2v-.1L21.2 2h3.6zM17 5c0-1.3 1.3-1.8 2.3-1.9L20 8h-2.1c-.4-1-.9-2.5-.9-3zm-3 37c0 .6-.4 1-1 1H4c-.6 0-1-.4-1-1s.4-1 1-1h9c.6 0 1 .4 1 1zm18 0c0 .6-.4 1-1 1h-4c-.6 0-1-.4-1-1s.4-1 1-1h4c.6 0 1 .4 1 1zm0-16h-8c-.6 0-1-.4-1-1s.4-1 1-1h8c.6 0 1 .4 1 1s-.4 1-1 1zm21 0h-5c-.6 0-1-.4-1-1s.4-1 1-1h5c.6 0 1 .4 1 1s-.4 1-1 1zM14 11c.6 0 1 .4 1 1s-.4 1-1 1H9c-.6 0-1-.4-1-1s.4-1 1-1h5zm20 0c.6 0 1 .4 1 1s-.4 1-1 1h-2c-.6 0-1-.4-1-1s.4-1 1-1h2zm21 19c0 .6-.4 1-1 1s-1-.4-1-1 .4-1 1-1 1 .4 1 1zm-4 4c0 .6-.4 1-1 1s-1-.4-1-1 .4-1 1-1 1 .4 1 1zm-21-5c.6 0 1 .4 1 1s-.4 1-1 1-1-.4-1-1 .4-1 1-1zm25 8c0 .6-.4 1-1 1s-1-.4-1-1 .4-1 1-1 1 .4 1 1zm-4 4c0 .6-.4 1-1 1s-1-.4-1-1 .4-1 1-1 1 .4 1 1zm4 3c0 .6-.4 1-1 1s-1-.4-1-1 .4-1 1-1 1 .4 1 1zm-4 4c0 .6-.4 1-1 1s-1-.4-1-1 .4-1 1-1 1 .4 1 1zm4 3c0 .6-.4 1-1 1s-1-.4-1-1 .4-1 1-1 1 .4 1 1zm-4 4c0 .6-.4 1-1 1s-1-.4-1-1 .4-1 1-1 1 .4 1 1z"/><text y="75" fill="#000" font-size="5" font-weight="bold" font-family="'Helvetica Neue', Helvetica, Arial-Unicode, Arial, Sans-serif">Created by Denis Shumaylov</text><text y="80" fill="#000" font-size="5" font-weight="bold" font-family="'Helvetica Neue', Helvetica, Arial-Unicode, Arial, Sans-serif">from the Noun Project</text></svg>