<svg xmlns="http://www.w3.org/2000/svg" viewBox="0 0 60 60" fill="currentcolor"><path d="M55.3 32.7A4.8 4.8 0 0057 29a5 5 0 00-5-5 96 96 0 01-21.8-2.5A98.55 98.55 0 008 19a5 5 0 00-5 5 5.13 5.13 0 001.3 3.4A8.31 8.31 0 002 33a7.88 7.88 0 001.7 4.9A13 13 0 0013 60h31a16 16 0 0011.3-27.3zM44 58H13a11 11 0 01-7.2-19.3A11.07 11.07 0 0113 36a1 1 0 000-2 13.06 13.06 0 00-7.8 2.6A5.78 5.78 0 014 33a6 6 0 012.4-4.8 6.06 6.06 0 013.5-1.1 15.73 15.73 0 016.7 1.6A16.44 16.44 0 0022 30a1 1 0 000-2 12.05 12.05 0 01-4.5-1.2A18.35 18.35 0 0010 25a8.39 8.39 0 00-4.1 1.1A2.72 2.72 0 015 24a3 3 0 013-3 96 96 0 0121.8 2.5A98.55 98.55 0 0052 26a3 3 0 013 3 2.85 2.85 0 01-1.2 2.4A15.76 15.76 0 0044 28a1 1 0 000 2 14.05 14.05 0 019 3.3A14 14 0 0144 58zM34 36.9L32 38l2 1.1a1.11 1.11 0 01.4 1.4 1.05 1.05 0 01-.9.5.9.9 0 01-.5-.1l-2-1.1V42a1 1 0 01-2 0v-2.3l-2 1.1c-.1.2-.3.2-.5.2a1.19 1.19 0 01-.9-.5 1 1 0 01.4-1.4l2-1.1-2-1.1a1 1 0 011-1.8l2 1.1V34a1 1 0 012 0v2.3l2-1.1a1 1 0 011.4.4 1.13 1.13 0 01-.4 1.3zm13 10L45 48l2 1.1a1.11 1.11 0 01.4 1.4 1.05 1.05 0 01-.9.5.9.9 0 01-.5-.1l-2-1.1V52a1 1 0 01-2 0v-2.3l-2 1.1c-.1.2-.3.2-.5.2a1.19 1.19 0 01-.9-.5 1 1 0 01.4-1.4l2-1.1-2-1.1a1 1 0 111-1.8l2 1.1V44a1 1 0 012 0v2.3l2-1.1a1 1 0 011.4.4 1.13 1.13 0 01-.4 1.3zm-26 0L19 48l2 1.1a1.11 1.11 0 01.4 1.4 1.05 1.05 0 01-.9.5.9.9 0 01-.5-.1l-2-1.1V52a1 1 0 01-2 0v-2.3l-2 1.1c-.1.2-.3.2-.5.2a1.19 1.19 0 01-.9-.5 1 1 0 01.4-1.4l2-1.1-2-1.1a1 1 0 011-1.8l2 1.1V44a1 1 0 012 0v2.3l2-1.1a1 1 0 011.4.4 1.13 1.13 0 01-.4 1.3zM10 18a.94.94 0 001-1v-6h6v6a1 1 0 002 0v-6h5v7a1 1 0 002 0v-7h6v9a1 1 0 002 0V10a.94.94 0 00-1-1h-7.1a4.16 4.16 0 00-4.4-4 4.69 4.69 0 00-4.4 4H10a.94.94 0 00-1 1v7a.94.94 0 001 1zM21.5 7a2.17 2.17 0 012.4 2h-4.7a2.54 2.54 0 012.3-2zM26 5h6v2a1 1 0 002 0V5h4v8a1 1 0 002 0V5h6v10H36a1 1 0 000 2h1v4a1 1 0 002 0v-4h3v5a1 1 0 002 0v-5h5v5a1 1 0 002 0v-6a.94.94 0 00-1-1h-2V4a.94.94 0 00-1-1h-7.1a4 4 0 00-7.8 0H26a.94.94 0 00-1 1 .94.94 0 001 1zm10-3a1.94 1.94 0 011.8 1h-3.5A1.67 1.67 0 0136 2z"/><text y="75" fill="#000" font-size="5" font-weight="bold" font-family="'Helvetica Neue', Helvetica, Arial-Unicode, Arial, Sans-serif">Created by Denis Shumaylov</text><text y="80" fill="#000" font-size="5" font-weight="bold" font-family="'Helvetica Neue', Helvetica, Arial-Unicode, Arial, Sans-serif">from the Noun Project</text></svg>