<svg xmlns="http://www.w3.org/2000/svg" viewBox="0 0 60 60" fill="currentcolor"><path d="M47 20H13c-2.8 0-5 2.2-5 5v24c0 2.8 2.2 5 5 5h34c2.8 0 5-2.2 5-5V25c0-2.8-2.2-5-5-5zm-13 2v30h-8V22h8zM10 49V25c0-1.7 1.3-3 3-3h11v30H13c-1.7 0-3-1.3-3-3zm40 0c0 1.7-1.3 3-3 3H36V22h11c1.7 0 3 1.3 3 3v24zm-1-20c0 .6-.4 1-1 1h-2c-.6 0-1-.4-1-1s.4-1 1-1h2c.6 0 1 .4 1 1zm-8 0c0 .6-.4 1-1 1h-2c-.6 0-1-.4-1-1s.4-1 1-1h2c.6 0 1 .4 1 1zm-26 0c0 .6-.4 1-1 1h-2c-.6 0-1-.4-1-1s.4-1 1-1h2c.6 0 1 .4 1 1zm4 0c0-.6.4-1 1-1h2c.6 0 1 .4 1 1s-.4 1-1 1h-2c-.6 0-1-.4-1-1zm22 8c0 .6-.4 1-1 1h-2c-.6 0-1-.4-1-1s.4-1 1-1h2c.6 0 1 .4 1 1zm-18 0c0 .6-.4 1-1 1h-2c-.6 0-1-.4-1-1s.4-1 1-1h2c.6 0 1 .4 1 1zm-8 0c0 .6-.4 1-1 1h-2c-.6 0-1-.4-1-1s.4-1 1-1h2c.6 0 1 .4 1 1zm34 0c0 .6-.4 1-1 1h-2c-.6 0-1-.4-1-1s.4-1 1-1h2c.6 0 1 .4 1 1zm-34 8c0 .6-.4 1-1 1h-2c-.6 0-1-.4-1-1s.4-1 1-1h2c.6 0 1 .4 1 1zm26 0c0 .6-.4 1-1 1h-2c-.6 0-1-.4-1-1s.4-1 1-1h2c.6 0 1 .4 1 1zm-18 0c0 .6-.4 1-1 1h-2c-.6 0-1-.4-1-1s.4-1 1-1h2c.6 0 1 .4 1 1zm26 0c0 .6-.4 1-1 1h-2c-.6 0-1-.4-1-1s.4-1 1-1h2c.6 0 1 .4 1 1zm-31 3v2c0 .6-.4 1-1 1s-1-.4-1-1v-2c0-.6.4-1 1-1s1 .4 1 1zm0-8v2c0 .6-.4 1-1 1s-1-.4-1-1v-2c0-.6.4-1 1-1s1 .4 1 1zm0-8v2c0 .6-.4 1-1 1s-1-.4-1-1v-2c0-.6.4-1 1-1s1 .4 1 1zm0-8v2c0 .6-.4 1-1 1s-1-.4-1-1v-2c0-.6.4-1 1-1s1 .4 1 1zm0 5c0 .6-.4 1-1 1s-1-.4-1-1 .4-1 1-1 1 .4 1 1zm0 8c0 .6-.4 1-1 1s-1-.4-1-1 .4-1 1-1 1 .4 1 1zm0 8c0 .6-.4 1-1 1s-1-.4-1-1 .4-1 1-1 1 .4 1 1zm26 3v2c0 .6-.4 1-1 1s-1-.4-1-1v-2c0-.6.4-1 1-1s1 .4 1 1zm0-8v2c0 .6-.4 1-1 1s-1-.4-1-1v-2c0-.6.4-1 1-1s1 .4 1 1zm0-8v2c0 .6-.4 1-1 1s-1-.4-1-1v-2c0-.6.4-1 1-1s1 .4 1 1zm0-8v2c0 .6-.4 1-1 1s-1-.4-1-1v-2c0-.6.4-1 1-1s1 .4 1 1zm0 5c0 .6-.4 1-1 1s-1-.4-1-1 .4-1 1-1 1 .4 1 1zm0 8c0 .6-.4 1-1 1s-1-.4-1-1 .4-1 1-1 1 .4 1 1zm0 8c0 .6-.4 1-1 1s-1-.4-1-1 .4-1 1-1 1 .4 1 1zM15.3 18.7c-.2-.2-2.3-2.4-2.3-4.7 0-2.6 2.5-4 5-4h.2c.3-1.5 1.2-3 3.8-3 1.1 0 2.2.5 3.1 1l-.1-.9c0-.3.1-.6.3-.8s.4-.3.7-.3h8c.3 0 .5.1.7.3s.3.5.3.8l-.1.9c.8-.5 1.9-1 3.1-1 2.6 0 3.5 1.6 3.8 3h.2c2.5 0 5 1.4 5 4 0 2.3-2.1 4.5-2.3 4.7-.3.3-1 .4-1.4 0-.4-.4-.4-1 0-1.4.5-.5 1.7-2 1.7-3.3 0-1.6-2-2-3-2 0 3.4-4 6.5-4.4 6.8-.6.4-1.2.1-1.4-.2-.3-.4-.2-1.1.2-1.4 1-.8 3.6-3.2 3.6-5.2 0-3-1.1-3-2-3-1.3 0-2.8 1.2-3.3 1.7l-.7 7.4c0 .5-.5 1-1.1.9-.5 0-1-.5-.9-1.1l.9-9.9h-5.8l.2 2H31c.6 0 1 .4 1 1s-.4 1-1 1h-3.5l.5 5.9c0 .5-.4 1-.9 1.1-.6 0-1-.4-1.1-.9l-.7-7.4c-.5-.5-2-1.7-3.3-1.7-.9 0-2 0-2 3 0 2 2.6 4.4 3.6 5.2.4.3.5 1 .2 1.4-.3.4-.9.6-1.4.2-.4-.3-4.4-3.4-4.4-6.8-1 0-3 .4-3 2 0 1.3 1.2 2.8 1.7 3.3.4.4.4 1 0 1.4-.5.5-1.2.3-1.4 0zM28 41V27c0-1.7 1.3-3 3-3 .6 0 1 .4 1 1s-.4 1-1 1-1 .4-1 1v14c0 .6-.4 1-1 1s-1-.4-1-1zm0 8c0-.6.4-1 1-1h2c.6 0 1 .4 1 1s-.4 1-1 1h-2c-.6 0-1-.4-1-1z"/><text y="75" fill="#000" font-size="5" font-weight="bold" font-family="'Helvetica Neue', Helvetica, Arial-Unicode, Arial, Sans-serif">Created by Denis Shumaylov</text><text y="80" fill="#000" font-size="5" font-weight="bold" font-family="'Helvetica Neue', Helvetica, Arial-Unicode, Arial, Sans-serif">from the Noun Project</text></svg>