<svg xmlns="http://www.w3.org/2000/svg" viewBox="0 0 60 60" fill="currentcolor"><path d="M53 54.3v-5.8c2.4 1 4.4 2.6 5.1 4 .2.4.9.7 1.3.4.5-.2.7-.8.4-1.3-1.1-2.3-4.2-4.2-6.9-5.2V32.6l1 .5V36c0 .6.4 1 1 1s1-.4 1-1v-2c.4 0 .7-.2.9-.6l2-4c.2-.5.1-1.1-.4-1.3l-2.2-1.2c.6-1.1.8-2.4.6-3.7-.3-1.5-1.2-2.9-2.5-3.7l-2.8-1.8c-.8-.5-1.7-.7-2.6-.7-.4 0-.9-.1-1.3-.3l-8.2-4.1c-.5-.2-.8-.6-1.1-1.1-.4-.8-1.1-1.5-1.9-1.9C33 7.9 29 8 25.6 9.8L23 11.2V7c.6 0 1-.4 1-1V1c0-.6-.4-1-1-1H12c-.6 0-1 .4-1 1v5c0 .6.4 1 1 1v8.1l-2 1.2c-1.1.6-2 1.5-2.8 2.6-.6.9-1.4 1.6-2.4 2.1l-.3.1c-1.3.7-2.3 1.8-2.7 3.2-.4 1.2-.3 2.5.1 3.6l-.4.2c-.5.3-.7.8-.4 1.3L3 33.2V38c0 .6.4 1 1 1s1-.4 1-1v-4.4l2-1v11.5c-3.1.4-5.9 2.4-6.9 4.5-.2.5 0 1.1.4 1.3.4.2 1.1.1 1.3-.4.7-1.5 2.8-3 5.1-3.4V54c-2.3 1.1-4.6 2.5-6.6 4.2-.4.3-.5 1-.1 1.4.2.3.9.6 1.4.1C7 55.4 13.5 53 20 53c2.5 0 4.9.3 7.3 1-2.8 1-5.3 2.4-7.5 4.2-.4.4-.5 1-.1 1.4.3.4 1 .5 1.4.1 2.7-2.2 5.9-3.8 9.7-4.7 2.8-.7 5.8-1 9.1-1 7.7 0 13.7 1.9 18.4 5.8.4.4 1.1.3 1.4-.1.3-.4.3-1.1-.1-1.4-1.9-1.7-4.2-3-6.6-4zm2.6-22.6l-9.8-4.9c.2-.4.2-.8.2-1.3v-1.6s0-.1.1-.1h.1l10.5 5.6-1.1 2.3zM13 2h9v3h-9V2zm8 10.3c-.9.5-1.9.7-3 .7-1.4 0-2.8.4-4 1V7h7v5.3zM3.7 24.9c.3-.9.9-1.6 1.7-2l.3-.1c1.3-.7 2.4-1.7 3.2-2.8.5-.8 1.2-1.5 2.1-1.9l3.8-2.1c1-.6 2.2-.9 3.3-.9 1.5 0 2.9-.4 4.2-1.1l4.4-2.4c2.8-1.5 6.1-1.6 9-.2.5.2.8.6 1.1 1.1.4.8 1.1 1.5 1.9 1.9l8.2 4.1c.7.3 1.4.5 2.2.5.5 0 1 .1 1.5.4l2.8 1.8c.9.5 1.4 1.4 1.6 2.4.2.8 0 1.7-.4 2.4l-7.5-4c-.7-.4-1.5-.3-2.1.1-.6.4-1 1.1-1 1.8v1.6c0 .4-.1.7-.3 1l-.1.1c-.3.3-.7.5-1.1.5-.8 0-1.5-.7-1.5-1.5V19c0-.6-.4-1-1-1s-1 .4-1 1v4.4l-8.6-4.3c-.3-.1-.6-.1-.9 0L21 23.4v-1.7c0-1.1.6-2 1.5-2.6l7.5-4 4.6 2.5c.2.1.4.4.4.7V20c0 .6.4 1 1 1s1-.4 1-1v-1.7c0-1-.6-1.9-1.5-2.4l-5.1-2.7c-.3-.2-.6-.2-.9 0l-7.9 4.3c-1.6.7-2.6 2.4-2.6 4.2V30c0 .6-.4 1-1 1s-1-.4-1-1v-6.7c0-.7-.4-1.4-1-1.8-.6-.4-1.4-.4-2.1 0L3.7 27c-.2-.7-.2-1.4 0-2.1zm.7 6.8l-1.1-2.2 11.6-6.2.1.1v3.1L4.4 31.7zM16 51.3V37h9v14.4c-1.7-.3-3.3-.4-5-.4-1.3 0-2.7.1-4 .3zM30.7 53c-1.2-.5-2.5-.8-3.7-1.2V36c0-.6-.4-1-1-1H15c-.6 0-1 .4-1 1v15.6c-1.7.4-3.4.9-5 1.5V31.6l2-1V32c0 .6.4 1 1 1s1-.4 1-1v-2.4l2-1V30c0 1.7 1.3 3 3 3s3-1.3 3-3v-4.4l9-4.5 9 4.5c.1 1.9 1.6 3.4 3.5 3.4.7 0 1.4-.2 2-.6l2.5 1.2V33c0 .6.4 1 1 1s1-.4 1-1v-2.4l2 1v21.9c-3.3-1-6.9-1.5-11-1.5-3.3 0-6.5.3-9.3 1zM45 35H31c-.6 0-1 .4-1 1v12c0 .6.4 1 1 1h14c.6 0 1-.4 1-1V36c0-.6-.4-1-1-1zm-1 12h-5v-4h3c.6 0 1-.4 1-1s-.4-1-1-1h-3v-2c0-.6-.4-1-1-1s-1 .4-1 1v2h-3c-.6 0-1 .4-1 1s.4 1 1 1h3v4h-5V37h12v10zm-24-2c0 .6-.4 1-1 1h-1c-.6 0-1-.4-1-1s.4-1 1-1h1c.6 0 1 .4 1 1zm13-6c0-.6.4-1 1-1h1c.6 0 1 .4 1 1s-.4 1-1 1h-1c-.6 0-1-.4-1-1zm10 6c0 .6-.4 1-1 1h-1c-.6 0-1-.4-1-1s.4-1 1-1h1c.6 0 1 .4 1 1zm-9-17c0-2.2-1.8-4-4-4s-4 1.8-4 4 1.8 4 4 4 4-1.8 4-4zm-6 0c0-1.1.9-2 2-2s2 .9 2 2-.9 2-2 2-2-.9-2-2z"/><text y="75" fill="#000" font-size="5" font-weight="bold" font-family="'Helvetica Neue', Helvetica, Arial-Unicode, Arial, Sans-serif">Created by Denis Shumaylov</text><text y="80" fill="#000" font-size="5" font-weight="bold" font-family="'Helvetica Neue', Helvetica, Arial-Unicode, Arial, Sans-serif">from the Noun Project</text></svg>