<svg xmlns="http://www.w3.org/2000/svg" viewBox="0 0 60 60" fill="currentcolor"><path d="M36 14.8l-1-4c-.1-.4-.5-.8-1-.8h-2.1c.9-1.5 2.1-3.5 2.1-5 0-2.5-1.4-5-4-5s-4 2.5-4 5c0 1.5 1.2 3.5 2.1 5H26c-.5 0-.9.3-1 .8l-1 4C14.2 17.4 7 26.4 7 37c0 12.7 10.3 23 23 23s23-10.3 23-23c0-10.6-7.2-19.6-17-22.2zM30 2c1.6 0 2 2 2 3 0 .9-1 2.8-2 4.3-1-1.5-2-3.4-2-4.3 0-1 .4-3 2-3zm-3.2 10h6.4l.6 2.3c-1.2-.2-2.5-.3-3.8-.3s-2.6.1-3.8.3l.6-2.3zM30 58C18.4 58 9 48.6 9 37s9.4-21 21-21 21 9.4 21 21-9.4 21-21 21zM16.9 27.8c-.4-.3-.5-1-.2-1.4 2.1-2.6 4.8-4.5 8-5.5.5-.2 1.1.1 1.3.6.2.5-.1 1.1-.6 1.3-2.8.9-5.2 2.6-7 4.9-.2.2-.5.4-.8.4-.3-.1-.5-.2-.7-.3zM47 37c0 3-.8 5.9-2.3 8.5-.2.3-.5.5-.9.5-.2 0-.3 0-.5-.1-.5-.3-.6-.9-.4-1.4 1.3-2.3 2-4.9 2-7.5 0-.6.4-1 1-1s1.1.4 1.1 1zM35 52.2c.1.5-.2 1.1-.7 1.2-1.4.4-2.9.6-4.3.6-.6 0-1-.4-1-1s.4-1 1-1c1.3 0 2.5-.2 3.8-.5.5-.1 1 .2 1.2.7zm11-19.5c.2-.3.3-.6.2-.9-.1-.3-.4-.6-.7-.6l-9.3-2.7-5.5-8c-.4-.5-1.3-.5-1.6 0l-5.5 8-9.3 2.7c-.3.1-.6.3-.7.6-.1.3 0 .7.2.9l5.9 7.6-.1 9.7c0 .3.1.6.4.8.3.2.6.2.9.1l9.1-3.2 9.1 3.2c.1 0 .2.1.3.1.2 0 .4-.1.6-.2.3-.2.4-.5.4-.8l-.3-9.6 5.9-7.7zm-7.6 6.7c-.1.2-.2.4-.2.6l.2 8.5-8-2.9c-.1 0-.2-.1-.3-.1s-.2 0-.3.1l-8 2.9.2-8.5c0-.2-.1-.5-.2-.6l-5.2-6.8 8.2-2.4c.2-.1.4-.2.5-.4l4.8-7 4.8 7c.1.2.3.3.5.4l8.2 2.4-5.2 6.8z"/><text y="75" fill="#000" font-size="5" font-weight="bold" font-family="'Helvetica Neue', Helvetica, Arial-Unicode, Arial, Sans-serif">Created by Denis Shumaylov</text><text y="80" fill="#000" font-size="5" font-weight="bold" font-family="'Helvetica Neue', Helvetica, Arial-Unicode, Arial, Sans-serif">from the Noun Project</text></svg>