<svg xmlns="http://www.w3.org/2000/svg" viewBox="0 0 60 60" fill="currentcolor"><path d="M57 19h-6.3c-3.7 0-7.1 1.3-9.8 3.8C39.2 21.9 35 20 30 20s-9.2 1.9-10.8 2.8C16.5 20.3 13 19 9.3 19H3c-.3 0-.7.2-.9.5-.2.3-.2.7 0 1 2.5 5 7.4 8.2 12.9 8.5.2 15.5 5.1 24.4 7.2 27.6C24.5 60 26.9 60 30 60s5.5 0 7.8-3.4c2.1-3.2 7-12.1 7.2-27.6 5.5-.3 10.4-3.5 12.9-8.5.2-.3.1-.7 0-1-.2-.3-.6-.5-.9-.5zm-13 8c-.6 0-1 .4-1 1 0 15.5-4.8 24.4-6.8 27.4C34.5 58 33 58 30 58s-4.5 0-6.2-2.6c-2-3-6.8-11.9-6.8-27.4 0-.6-.5-1-1.1-1-4.6 0-8.7-2.3-11.2-6h4.6c3.4 0 6.6 1.3 9 3.7.3.3.8.4 1.2.2 0 0 4.9-2.9 10.5-2.9s10.4 2.8 10.5 2.9c.4.2.9.2 1.2-.2 2.4-2.4 5.6-3.7 9-3.7h4.6c-2.5 3.7-6.7 6-11.3 6zM29.4 40c-3 .3-5.4 3-5.4 6.2V48c0 1.6 1 3 2.5 3.6l2.5 1V56c0 .6.4 1 1 1s1-.4 1-1v-3.3l2.5-1c1.5-.6 2.5-2 2.5-3.6v-2c0-1.7-.7-3.3-2-4.4-1.2-1.3-2.9-1.8-4.6-1.7zm4.6 8c0 .8-.5 1.5-1.2 1.8L30 50.9l-2.8-1.1c-.7-.3-1.2-1-1.2-1.8v-1.8c0-2.6 1.3-4.2 4-4.2 2.5 0 4 1.5 4 4v2zM24 33c-1.5 0-2.3.7-2.3.7-.4.4-1 .3-1.4-.1-.4-.4-.3-1 .1-1.4.1-.1 1.5-1.3 3.7-1.3s3.5 1.1 3.7 1.3c.4.4.5 1 .1 1.4-.4.4-1 .4-1.4.1-.2 0-1.1-.7-2.5-.7zm15.7-.7c.4.4.4 1 .1 1.4-.3.3-.9.5-1.4.1-.1 0-.9-.7-2.3-.7-1.5 0-2.3.7-2.3.7-.4.4-1 .3-1.4-.1-.4-.4-.3-1 .1-1.4.1-.1 1.5-1.3 3.7-1.3s3.3 1.1 3.5 1.3zM31 44c0 .6-.4 1-1 1s-1 .4-1 1-.4 1-1 1-1-.4-1-1c0-1.7 1.3-3 3-3 .6 0 1 .4 1 1zM60 3v2.7C60 11.9 54.9 17 48.7 17H40c-1.1 0-2 .9-2 2 0 .6-.4 1-1 1s-1-.4-1-1c0-2.2 1.8-4 4-4h8.7c5.1 0 9.3-4.2 9.3-9.3V3c0-.6-.4-1-1-1s-1 .4-1 1v2.9c0 3.9-3.2 7.1-7.1 7.1H44c-.6 0-1-.4-1-1V7c0-.6-.4-1-1-1s-1 .4-1 1v5c0 .6-.4 1-1 1h-1c-2.8 0-5 2.2-5 5 0 .6-.4 1-1 1s-1-.4-1-1c0-3.9 3.1-7 7-7V7c0-1.7 1.3-3 3-3s3 1.3 3 3v4h3.9c2.8 0 5.1-2.3 5.1-5.1V3c0-1.7 1.3-3 3-3s3 1.3 3 3zM0 5.7V3c0-1.7 1.3-3 3-3s3 1.3 3 3v2.9C6 8.7 8.3 11 11.1 11H15V7c0-1.7 1.3-3 3-3s3 1.3 3 3v4c3.9 0 7 3.1 7 7 0 .6-.4 1-1 1s-1-.4-1-1c0-2.8-2.2-5-5-5h-1c-.6 0-1-.4-1-1V7c0-.6-.4-1-1-1s-1 .4-1 1v5c0 .6-.4 1-1 1h-4.9C7.2 13 4 9.8 4 5.9V3c0-.6-.4-1-1-1s-1 .4-1 1v2.7c0 5.1 4.2 9.3 9.3 9.3H20c2.2 0 4 1.8 4 4 0 .6-.4 1-1 1s-1-.4-1-1c0-1.1-.9-2-2-2h-8.7C5.1 17 0 11.9 0 5.7z"/><text y="75" fill="#000" font-size="5" font-weight="bold" font-family="'Helvetica Neue', Helvetica, Arial-Unicode, Arial, Sans-serif">Created by Denis Shumaylov</text><text y="80" fill="#000" font-size="5" font-weight="bold" font-family="'Helvetica Neue', Helvetica, Arial-Unicode, Arial, Sans-serif">from the Noun Project</text></svg>