<svg xmlns="http://www.w3.org/2000/svg" viewBox="0 0 60 60" fill="currentcolor"><path d="M24.8 10l-.1 4.2c0 .3.1.6.4.8.3.2.6.2.9.1l4-1.4 4 1.4c.3.1.7 0 .9-.1.3-.2.4-.5.4-.8l-.1-4.2 2.6-3.4c.2-.2.3-.5.2-.8-.1-.3-.4-.6-.7-.6L33.2 4 30.8.5c-.4-.5-1.3-.5-1.6 0L26.8 4l-4.1 1.2c-.3.1-.6.3-.7.6-.1.3 0 .7.2.9l2.6 3.3zm2.9-4.3c.2-.1.4-.2.5-.4L30 2.8l1.8 2.6c.1.2.3.3.5.4l3 .9-1.9 2.5c-.1.2-.2.4-.2.6l.1 3.1-3-1c-.2-.1-.5-.1-.7 0l-3 1 .1-3.1c0-.2-.1-.5-.2-.6l-1.9-2.5 3.1-1zm23.9 43.4l-9-13.5c.5-.3.9-.7 1.2-1.2.5-1 .5-2.3-.2-3.2l-5-7.5c.5-.3.9-.7 1.2-1.2.5-1 .5-2.3-.2-3.2l-1.8-2.7c-.3-.5-.9-.6-1.4-.3-.5.3-.6.9-.3 1.4l1.8 2.7c.2.4.3.8.1 1.2-.2.4-.6.6-1 .6-.3 0-.5.1-.7.3-.2.2-.4.4-.6.7-2.8 2.8-6.5 6.6-16.1 7l4.3-6.4c.2-.3.2-.7 0-1-.2-.6-.5-.8-.9-.8s-.8-.2-1-.6c-.2-.4-.2-.8.1-1.2l1.8-2.7c.3-.5.2-1.1-.3-1.4-.5-.3-1.1-.2-1.4.3l-1.8 2.7c-.6 1-.7 2.2-.2 3.2.3.5.7.9 1.2 1.2l-5 7.5c-.6 1-.7 2.2-.2 3.2.3.5.7.9 1.2 1.2l-9 13.5c-.6 1-.7 2.2-.2 3.2.5 1 1.6 1.7 2.8 1.7h15v5c0 .6.4 1 1 1h6c.6 0 1-.4 1-1v-5h15c1.2 0 2.2-.6 2.8-1.7.5-.8.5-2-.2-3zM40 44c1.1 0 2 .9 2 2s-.9 2-2 2-2-.9-2-2 .9-2 2-2zm-28.5 4l1.3-2h.1c15.3 0 22.8-4.6 27.8-9.4l1.3 1.9C36.5 44 29 47.8 11.5 48zm25.4-23.4l1.3 1.9C33.8 30.7 29.6 34 19 34c-.4 0-.8-.2-1-.6-.2-.4-.2-.8.1-1.2l.2-.2c11.1-.1 15.6-4.4 18.6-7.4zM26 38c0 1.1-.9 2-2 2s-2-.9-2-2 .9-2 2-2 2 .9 2 2zm-6.5-2h1c-.4.6-.6 1.3-.6 2 0 2.2 1.8 4 4 4s4-1.8 4-4c0-1.1-.4-2-1.1-2.8 5.8-1.3 9.2-3.9 12.4-7.1l2.7 4.1c.2.4.3.8.1 1.2-.2.4-.6.6-1 .6-.3 0-.5.1-.7.3-4.7 4.7-11.4 9.4-26.1 9.7l5.3-8zM32 58h-4v-4h4v4zm18-6.6c-.2.4-.6.6-1 .6H11c-.4 0-.8-.2-1-.6-.2-.4-.2-.8.1-1.2l.2-.2c12.5 0 20.3-1.7 25.9-4.6 0 .2-.1.4-.1.6 0 2.2 1.8 4 4 4s4-1.8 4-4c0-1.9-1.3-3.4-3-3.9.8-.6 1.5-1.3 2.2-2L50 50.2c.2.4.2.8 0 1.2zM30 16c-2.2 0-4 1.8-4 4s1.8 4 4 4 4-1.8 4-4-1.8-4-4-4zm0 6c-1.1 0-2-.9-2-2s.9-2 2-2 2 .9 2 2-.9 2-2 2z"/><text y="75" fill="#000" font-size="5" font-weight="bold" font-family="'Helvetica Neue', Helvetica, Arial-Unicode, Arial, Sans-serif">Created by Denis Shumaylov</text><text y="80" fill="#000" font-size="5" font-weight="bold" font-family="'Helvetica Neue', Helvetica, Arial-Unicode, Arial, Sans-serif">from the Noun Project</text></svg>